abhaya_Italic_extra_bold.sfdir
StartChar: exclaim
Encoding: 33 33 253
Width: 228
GlyphClass: 2
Flags: W
LayerCount: 2
Back
Fore
SplineSet
124.542987159 180 m 1
 85.5114070092 180 l 1
 85.0289647622 184.462590785 l 2
 83.0239206186 203.009249113 83.0239206186 203.009249113 79.026485737 242.984076518 c 0
 75.0290508553 282.958903923 75.0290508553 282.958903923 69.0186548211 344.565463273 c 0
 68.0302374358 357.414889283 68.0302374358 357.414889283 53.0257463321 498.492775286 c 0
 45 580.75667519 45 580.75667519 45 624 c 0
 45 636.832056215 45 636.832056215 49.0808939451 647.986302595 c 0
 53.1617878903 659.140548975 53.1617878903 659.140548975 61.2508107232 668.308108185 c 0
 66.7538197012 674.544851694 66.7538197012 674.544851694 73.7915705183 678.721583197 c 0
 80.8293213354 682.8983147 80.8293213354 682.8983147 89.1294409075 684.94915735 c 0
 97.4295604795 687 97.4295604795 687 107 687 c 0
 166.172338857 687 166.172338857 687 163.996574169 622.814941697 c 0
 163.492626103 609.208343929 163.492626103 609.208343929 161.802686037 585.594419908 c 0
 160.112745971 561.980495887 160.112745971 561.980495887 157.23273782 528.305983939 c 0
 154.352729669 494.631471992 154.352729669 494.631471992 150.293474568 450.988151491 c 0
 146.234219467 407.344830991 146.234219467 407.344830991 140.977948267 353.530625846 c 0
 138.979014915 331.542358982 138.979014915 331.542358982 134.977561014 289.277012585 c 0
 130.976107113 247.011666187 130.976107113 247.011666187 124.977118039 184.522196668 c 2
 124.542987159 180 l 1
107 126 m 0
 133.918680026 126 133.918680026 126 155.344823658 106.716470731 c 0
 177 87.2268120235 177 87.2268120235 177 57 c 0
 177 30.0121703854 177 30.0121703854 158.620689655 10.5517241379 c 0
 137.142857143 -12 137.142857143 -12 107 -12 c 0
 93.588763378 -12 93.588763378 -12 81.43225725 -7.13749401663 c 0
 69.2757511219 -2.27498803326 69.2757511219 -2.27498803326 58.6551763419 7.28352926876 c 0
 37 26.7731879765 37 26.7731879765 37 57 c 0
 37 65.962287419 37 65.962287419 39.2424573507 74.342313787 c 0
 41.4849147015 82.7223401551 41.4849147015 82.7223401551 45.9027742131 90.3787148935 c 0
 50.3206337248 98.0350896319 50.3206337248 98.0350896319 56.8726815075 104.94130216 c 0
 66.799532458 115.404739648 66.799532458 115.404739648 79.432193476 120.702369824 c 0
 92.064854494 126 92.064854494 126 107 126 c 0
EndSplineSet
EndChar
StartChar: bracket2
Encoding: 40 40 231
Width: 261
GlyphClass: 2
Flags: W
LayerCount: 2
Back
Fore
SplineSet
236 636.46936175 m 1
 236 608.210606206 l 1
 234.864641487 606.827533108 l 2
 126.016367704 474.230545046 126.016367704 474.230545046 127.999804225 257.044246055 c 0
 128.995037708 144.582862429 128.995037708 144.582862429 143.868977679 79.1375265586 c 0
 167.584425751 -19.6768404068 167.584425751 -19.6768404068 232.837122184 -97.7943029857 c 2
 234 -99.1862324931 l 1
 234 -131.517838505 l 1
 226.16283089 -126.117095024 l 2
 31.5506164751 9.25266097234 31.5506164751 9.25266097234 26.0010938095 247.895420373 c 0
 20.9444672761 489.60216867 20.9444672761 489.60216867 228.180191769 631.129004909 c 2
 236 636.46936175 l 1
EndSplineSet
EndChar
StartChar: asterisk
Encoding: 42 42 215
Width: 383
GlyphClass: 2
Flags: W
LayerCount: 2
Back
Fore
SplineSet
159.419510468 393.009143637 m 0
 170.308087677 419.735651332 170.308087677 419.735651332 172.25658351 425.58113883 c 1
 172.322433392 425.559188869 172.322433392 425.559188869 172.964529017 428.4432879 c 0
 173.606624642 431.327386931 173.606624642 431.327386931 174.536875638 435.780060344 c 0
 175.467126635 440.232733757 175.467126635 440.232733757 176.451582617 445.060752475 c 0
 177.436038599 449.888771194 177.436038599 449.888771194 178.297358932 454.291323518 c 0
 179.158679264 458.693875843 179.158679264 458.693875843 179.552163826 460.941069786 c 1
 175.312173585 458.891550694 175.312173585 458.891550694 171.376125548 456.389106515 c 0
 167.440077511 453.886662336 167.440077511 453.886662336 163.75382504 450.891751489 c 0
 160.067572569 447.896840643 160.067572569 447.896840643 156.628767713 444.41596912 c 0
 153.189962857 440.935097596 153.189962857 440.935097596 149.929759145 436.907787129 c 0
 136.72394023 419.638639316 136.72394023 419.638639316 102.426823495 387.359000037 c 0
 101.572478777 386.712535371 l 2
 90.3849198247 380 90.3849198247 380 77 380 c 0
 41 380 41 380 41 414 c 0
 41 426.69227061 41 426.69227061 46.5032697076 436.251923382 c 0
 52.0065394152 445.811576154 52.0065394152 445.811576154 62.6503317536 451.413572121 c 0
 76.4689335467 458.854357702 76.4689335467 458.854357702 94.4157937622 460.965753022 c 2
 128.354244298 464.958511908 l 2
 139.851372398 466.60095878 139.851372398 466.60095878 170.678267987 480.349539391 c 1
 169.230004549 481.027521347 169.230004549 481.027521347 167.70062906 481.706189884 c 0
 166.17125357 482.384858421 166.17125357 482.384858421 164.544035256 483.071531592 c 0
 162.916816942 483.758204763 162.916816942 483.758204763 161.192855141 484.451437493 c 0
 159.468893341 485.144670224 159.468893341 485.144670224 157.639232947 485.848837069 c 0
 155.809572552 486.553003913 155.809572552 486.553003913 153.86701886 487.269799531 c 0
 151.924465169 487.986595149 151.924465169 487.986595149 149.868357113 488.717254361 c 0
 147.812249057 489.447913573 147.812249057 489.447913573 145.627097893 490.197270771 c 0
 143.441946729 490.94662797 143.441946729 490.94662797 141.13538543 491.712778242 c 0
 138.828824131 492.478928514 138.828824131 492.478928514 136.377588291 493.269649753 c 0
 125.862735126 497.093232722 125.862735126 497.093232722 98.517044869 500.023128107 c 0
 92.5938484775 500.538188663 92.5938484775 500.538188663 87.2785600883 501.446026168 c 0
 81.9632716991 502.353863673 81.9632716991 502.353863673 77.174360178 503.67665068 c 0
 72.3854486569 504.999437687 72.3854486569 504.999437687 68.1742404894 506.767965838 c 0
 63.9630323218 508.536493989 63.9630323218 508.536493989 60.3927499527 510.733590832 c 0
 40 523.195826914 40 523.195826914 40 546 c 0
 40 581 40 581 77 581 c 0
 80.5929077423 581 80.5929077423 581 83.9616713177 580.628950685 c 0
 87.3304348931 580.25790137 87.3304348931 580.25790137 90.4857275945 579.514324429 c 0
 93.6410202959 578.770747487 93.6410202959 578.770747487 96.5560936337 577.638784062 c 0
 99.4711669714 576.506820636 99.4711669714 576.506820636 102.127209933 575.000633485 c 0
 104.783252895 573.494446333 104.783252895 573.494446333 107.184966916 571.581492791 c 0
 109.586680938 569.668539248 109.586680938 569.668539248 111.685770701 567.378623143 c 0
 111.859651178 567.178536264 l 2
 116.4386871 561.618278359 116.4386871 561.618278359 122.569417434 554.488237764 c 0
 128.700147769 547.35819717 128.700147769 547.35819717 136.20948228 538.853930262 c 0
 143.718816792 530.349663353 143.718816792 530.349663353 152.625816176 520.445251636 c 0
 154.534213081 518.536854731 154.534213081 518.536854731 158.519047575 515.307326243 c 0
 162.503882068 512.077797755 162.503882068 512.077797755 168.412321657 507.677227459 c 0
 174.320761246 503.276657163 174.320761246 503.276657163 181.41034807 498.283485652 c 1
 181.842300796 521.638722732 181.842300796 521.638722732 176.160211641 542.743625308 c 0
 174.320067304 550.104202657 174.320067304 550.104202657 163.629225846 568.570201538 c 0
 155 584.75 155 584.75 155 602 c 0
 155 646 155 646 193 646 c 0
 230.126562256 646 230.126562256 646 228.996099689 600.781497309 c 0
 228.45744828 592.163074766 228.45744828 592.163074766 226.354113726 584.009989356 c 0
 224.250779173 575.856903945 224.250779173 575.856903945 220.518689194 567.859568276 c 0
 211.730633703 549.307006682 211.730633703 549.307006682 209.860260555 541.825514094 c 0
 207.192537593 530.392415683 207.192537593 530.392415683 205.366764547 519.4070193 c 0
 203.540991501 508.421622917 203.540991501 508.421622917 202.655493145 498.807640769 c 1
 213.780920707 506.990919591 213.780920707 506.990919591 232.174251298 523.288985459 c 0
 236.95074948 530.583528879 236.95074948 530.583528879 246.723896334 541.826845855 c 0
 256.497043188 553.070162831 256.497043188 553.070162831 271.406989291 568.477107138 c 2
 271.593282633 568.669610257 l 2
 278.49450441 574.420628405 278.49450441 574.420628405 286.863201797 577.210314202 c 0
 295.231899184 580 295.231899184 580 305 580 c 0
 344 580 344 580 344 546 c 0
 342.977923116 524.316849511 342.977923116 524.316849511 325.887258508 511.917337775 c 0
 313.898766872 503.198434766 313.898766872 503.198434766 292.620173673 500.538610616 c 0
 282.651718047 499.292553663 282.651718047 499.292553663 273.263058936 497.934659096 c 0
 263.874399825 496.576764529 263.874399825 496.576764529 254.942635253 495.0881371 c 0
 236.42813308 491.063245324 236.42813308 491.063245324 213.84060884 480.670212698 c 1
 230.695288162 472.456764906 230.695288162 472.456764906 254.83184886 467.931159775 c 0
 261.435645261 466.940590315 261.435645261 466.940590315 268.136259428 465.823267686 c 0
 274.836873596 464.705945058 274.836873596 464.705945058 281.577078719 463.470753901 c 0
 288.317283841 462.235562745 288.317283841 462.235562745 294.980580676 460.902903378 c 0
 305.539459266 458.79112766 305.539459266 458.79112766 314.138587188 454.894734036 c 0
 322.73771511 450.998340411 322.73771511 450.998340411 329.292523039 445.262883474 c 0
 343 433.268841133 343 433.268841133 343 415 c 0
 343 378 343 378 307 378 c 0
 288.045080828 378 288.045080828 378 273.657447462 391.280892338 c 0
 265.263721433 398.625402613 265.263721433 398.625402613 253.922464276 414.60626497 c 0
 248.550279949 422.176161067 248.550279949 422.176161067 243.731066033 427.837925544 c 0
 238.911852116 433.49969002 238.911852116 433.49969002 234.637565532 437.299055872 c 0
 223.205637069 447.914418016 223.205637069 447.914418016 202.839735963 461.053709053 c 1
 202.941843613 451.727876966 202.941843613 451.727876966 203.932235105 442.503311627 c 0
 204.922626597 433.278746288 204.922626597 433.278746288 206.914817097 422.919355687 c 0
 207.210465998 421.293286732 207.210465998 421.293286732 207.731848621 419.3358512 c 0
 208.253231245 417.378415667 208.253231245 417.378415667 208.993939481 415.108853941 c 0
 209.734647717 412.839292214 209.734647717 412.839292214 210.706745464 410.246646299 c 0
 211.678843211 407.654000384 211.678843211 407.654000384 212.855520089 404.804141533 c 0
 214.032196968 401.954282683 214.032196968 401.954282683 215.447279297 398.786513309 c 0
 216.862361626 395.618743935 216.862361626 395.618743935 218.468636757 392.24556616 c 0
 228 374.241880034 228 374.241880034 228 360 c 0
 228 339.12478556 228 339.12478556 219.177228867 327.350246682 c 0
 210.354457734 315.575707804 210.354457734 315.575707804 193.16120647 315.002599428 c 0
 181.429074395 314.624143555 181.429074395 314.624143555 172.857460229 319.59117352 c 0
 164.285846063 324.558203484 164.285846063 324.558203484 159.364294341 334.117861747 c 0
 154.442742619 343.677520009 154.442742619 343.677520009 153.031742447 357.434771685 c 0
 152.597187599 360.91121047 152.597187599 360.91121047 152.596807344 364.439038355 c 0
 152.596427089 367.96686624 152.596427089 367.96686624 153.026565896 371.515324615 c 0
 153.456704704 375.06378299 153.456704704 375.06378299 154.31321939 378.644272407 c 0
 155.169734076 382.224761824 155.169734076 382.224761824 156.446800485 385.815331434 c 0
 157.723866894 389.405901043 157.723866894 389.405901043 159.419510468 393.009143637 c 0
EndSplineSet
EndChar
StartChar: plus
Encoding: 43 43 240
Width: 436
GlyphClass: 2
Flags: W
LayerCount: 2
Back
Fore
SplineSet
41 235 m 1
 177 235 l 1
 177 359 l 1
 241 359 l 1
 241 235 l 1
 378 235 l 1
 378 178 l 1
 241 178 l 1
 241 55 l 1
 177 55 l 1
 177 178 l 1
 41 178 l 1
 41 235 l 1
EndSplineSet
EndChar
StartChar: comma
Encoding: 44 44 210
Width: 202
GlyphClass: 2
Flags: W
LayerCount: 2
Back
Fore
SplineSet
37.4109373775 39.0143186483 m 0
 33 48.9389277478 33 48.9389277478 33 60 c 0
 33 86.6082449902 33 86.6082449902 56.6390920199 103.100634772 c 0
 79.7680096883 119.237088959 79.7680096883 119.237088959 108.770137091 114.940477492 c 0
 168 105.248318107 168 105.248318107 168 20 c 0
 168 18.0705889489 168 18.0705889489 167.950886061 16.1468880157 c 0
 167.901772122 14.2231870825 167.901772122 14.2231870825 167.80399436 12.3141001891 c 0
 167.706216597 10.4050132958 167.706216597 10.4050132958 167.55982094 8.50663752307 c 0
 167.413425283 6.60826175033 167.413425283 6.60826175033 167.219047151 4.72874297999 c 0
 167.024669019 2.84922420964 167.024669019 2.84922420964 166.782156684 0.98546809867 c 0
 166.539644349 -0.878288012304 166.539644349 -0.878288012304 166.249830888 -2.71894415838 c 0
 165.960017427 -4.55960030446 165.960017427 -4.55960030446 165.622553453 -6.37944225238 c 0
 165.28508948 -8.19928420031 165.28508948 -8.19928420031 164.900993376 -9.99173268483 c 0
 160.702200991 -32.0353927054 160.702200991 -32.0353927054 136.03081039 -65.9585547815 c 0
 115.703734497 -93.4001072371 115.703734497 -93.4001072371 98.3081081854 -108.749189277 c 2
 96.5440217977 -110.30573609 l 1
 46.5214905121 -102.407441676 l 1
 53.4644660941 -95.4644660941 l 2
 96 -52.9289321881 96 -52.9289321881 96 -21 c 0
 96 -10.4068286862 96 -10.4068286862 91.2335908317 -2.60725004727 c 0
 86.6971696204 4.81598466216 86.6971696204 4.81598466216 68.4545696383 10.7448296563 c 0
 46.2793805518 17.9517661095 46.2793805518 17.9517661095 37.4109373775 39.0143186483 c 0
EndSplineSet
EndChar
StartChar: short_dash1
Encoding: 45 45 216
Width: 297
GlyphClass: 2
Flags: W
LayerCount: 2
Back
Fore
SplineSet
38 231 m 1
 250 231 l 1
 250 182 l 1
 38 182 l 1
 38 231 l 1
EndSplineSet
EndChar
StartChar: slash
Encoding: 47 47 211
Width: 407
GlyphClass: 2
Flags: W
LayerCount: 2
Back
Fore
SplineSet
311.665462562 612 m 1
 363.508128385 612 l 1
 92.3297246289 -37 l 1
 41.502708258 -37 l 1
 311.665462562 612 l 1
EndSplineSet
EndChar
StartChar: 1
Encoding: 49 49 219
Width: 368
GlyphClass: 2
Flags: W
LayerCount: 2
Back
Fore
SplineSet
117.973632812 468.41796875 m 128,-1,1
 112.76171875 467.263671875 112.76171875 467.263671875 105.720703125 464.958007812 c 0,2,3
 103.159179688 463.952148438 103.159179688 463.952148438 99.94921875 462.77734375 c 128,-1,4
 96.73828125 461.602539062 96.73828125 461.602539062 92.84765625 460.248046875 c 128,-1,5
 88.9560546875 458.892578125 88.9560546875 458.892578125 84.4169921875 457.3671875 c 128,-1,6
 79.8779296875 455.841796875 79.8779296875 455.841796875 74.5810546875 454.107421875 c 2,7,-1
 68 451.952148438 l 1,8,-1
 68 480.333007812 l 1,9,-1
 209.713867188 557 l 1,10,-1
 233 557 l 1,11,-1
 233 74.6748046875 l 2,12,13
 233 69.6552734375 233 69.6552734375 234.08203125 65.4951171875 c 128,-1,14
 235.1640625 61.3359375 235.1640625 61.3359375 237.40625 57.87109375 c 128,-1,15
 239.649414062 54.4072265625 239.649414062 54.4072265625 243.056640625 51.6455078125 c 128,-1,16
 246.463867188 48.884765625 246.463867188 48.884765625 251.149414062 46.6923828125 c 2,17,-1
 251.474609375 46.541015625 l 1,18,-1
 251.7734375 46.3447265625 l 2,19,20
 260.432617188 40.673828125 260.432617188 40.673828125 268.633789062 34.669921875 c 0,21,22
 279.856445312 29.40234375 279.856445312 29.40234375 298.25 28.4990234375 c 2,23,-1
 303 28.265625 l 1,24,-1
 303 1 l 1,25,-1
 73 1 l 1,26,-1
 73 29.21484375 l 1,27,-1
 77.71484375 29.4794921875 l 2,28,29
 111.208007812 31.359375 111.208007812 31.359375 126 42.2578125 c 0,30,-1
 126.548828125 42.609375 l 2,31,32
 140 50.0419921875 140 50.0419921875 140 82.533203125 c 2,33,-1
 140 430.279296875 l 2,34,35
 140 437.982421875 140 437.982421875 139.541015625 444.749023438 c 128,-1,36
 139.08203125 451.515625 139.08203125 451.515625 138.565429688 454.938476562 c 128,-1,37
 138.048828125 458.360351562 138.048828125 458.360351562 137.637695312 459.28125 c 0,38,39
 130.116210938 469.572265625 130.116210938 469.572265625 126 469.572265625 c 0,40,0
 123.184570312 469.572265625 123.184570312 469.572265625 117.973632812 468.41796875 c 128,-1,1
EndSplineSet
EndChar
StartChar: 5
Encoding: 53 53 223
Width: 427
GlyphClass: 2
Flags: W
LayerCount: 2
Back
Fore
SplineSet
129.235351562 63.248046875 m 0,0,-1
 129.50390625 63.10546875 l 2,1,2
 147.983936374 52.587890625 147.983936374 52.587890625 164.70101118 47.625 c 128,-1,3
 181.418085986 42.6630859375 181.418085986 42.6630859375 194.515956526 43.119140625 c 0,4,5
 253.361969154 44.98828125 253.361969154 44.98828125 273.610207795 77.974609375 c 0,6,7
 290.999023438 108.3125 290.999023438 108.3125 290.999023438 145.366210938 c 0,8,9
 290.999023438 184.611328125 290.999023438 184.611328125 271.767723091 225.91796875 c 0,10,11
 264.872990461 239.678710938 264.872990461 239.678710938 256.634315333 251.28515625 c 128,-1,12
 248.395640205 262.891601562 248.395640205 262.891601562 238.914852475 272.259765625 c 128,-1,13
 229.434064746 281.627929688 229.434064746 281.627929688 218.649642185 288.869140625 c 0,14,15
 194.779017094 304.712890625 194.779017094 304.712890625 168.823000564 314.064453125 c 0,16,17
 143.271484375 323.415039062 143.271484375 323.415039062 117.509765625 326.282226562 c 0,18,19
 106.440429688 327.189453125 106.440429688 327.189453125 69.271484375 317.573242188 c 2,20,-1
 66.96484375 316.9765625 l 1,21,-1
 65.0419921875 318.36328125 l 2,22,23
 46.91796875 331.4296875 46.91796875 331.4296875 50.3564453125 339.881835938 c 0,24,-1
 149.932493887 555.325195312 l 1,25,-1
 341.999023438 555.325195312 l 2,26,27
 360.69921875 555.325195312 360.69921875 555.325195312 377.203125 574.25390625 c 2,28,-1
 380.45703125 578.049804688 l 1,29,-1
 394.005859375 566.630859375 l 1,30,-1
 363.629882812 494.540039062 l 2,31,32
 356.545898438 477.126953125 356.545898438 477.126953125 345.619140625 475.783203125 c 2,33,-1
 345.310546875 475.74609375 l 2,34,35
 344.922851562 475.74609375 344.922851562 475.74609375 342.874023438 474.6953125 c 128,-1,36
 340.82421875 473.645507812 340.82421875 473.645507812 338.071289062 472.021484375 c 0,37,38
 333.4921875 469.3203125 333.4921875 469.3203125 330.653320312 468.108398438 c 128,-1,39
 327.814453125 466.896484375 327.814453125 466.896484375 324.999023438 466.896484375 c 2,40,-1
 154.659098287 466.896484375 l 1,41,-1
 125.143554688 408.22265625 l 1,42,43
 154.705770323 409.022460938 154.705770323 409.022460938 181.480668944 405.981445312 c 128,-1,44
 208.255567564 402.940429688 208.255567564 402.940429688 232.24075129 395.860351562 c 0,45,46
 291.62890625 377.817382812 291.62890625 377.817382812 323.947265625 347.553710938 c 128,-1,47
 356.204101562 317.348632812 356.204101562 317.348632812 371.108398438 282.48046875 c 128,-1,48
 385.999023438 247.645507812 385.999023438 247.645507812 385.999023438 204.375976562 c 0,49,50
 385.999023438 108.705078125 385.999023438 108.705078125 315.262695312 49.2353515625 c 0,51,52
 246.712264715 -6.998046875 246.712264715 -6.998046875 140.024414062 -8 c 0,53,54
 103.34375 -8 103.34375 -8 72.66796875 0.0419921875 c 0,55,56
 26.8837890625 12.90234375 26.8837890625 12.90234375 28.00390625 49.2392578125 c 0,57,58
 29.18359375 68.962890625 29.18359375 68.962890625 44.869140625 76.080078125 c 0,59,60
 71.7314453125 88.755859375 71.7314453125 88.755859375 84.7314453125 84.1083984375 c 0,61,62
 93 81.0595703125 93 81.0595703125 129.235351562 63.248046875 c 0,0,-1
EndSplineSet
EndChar
StartChar: 7
Encoding: 55 55 225
Width: 442
GlyphClass: 2
Flags: W
LayerCount: 2
Back
Fore
SplineSet
22 410.723632812 m 1,0,-1
 55.5986328125 494.720703125 l 1,1,2
 66.5908203125 527.697265625 66.5908203125 527.697265625 73.6357421875 545.8125 c 2,3,-1
 74.875 549 l 1,4,-1
 402.295898438 549 l 1,5,-1
 402.295898438 529.553710938 l 1,6,-1
 220.513253702 -1 l 1,7,-1
 154.287970358 -1 l 1,8,-1
 310.412109375 441 l 1,9,-1
 153.086092032 441 l 2,10,11
 128.583007812 441 128.583007812 441 113.274414062 439.103515625 c 128,-1,12
 97.9658203125 437.20703125 97.9658203125 437.20703125 93.52734375 434.311523438 c 0,13,14
 82.609375 427.19140625 82.609375 427.19140625 56.06640625 396.715820312 c 2,15,-1
 53.435546875 393.696289062 l 1,16,-1
 22 410.723632812 l 1,0,-1
EndSplineSet
EndChar
StartChar: 9
Encoding: 57 57 227
Width: 451
GlyphClass: 2
Flags: W
LayerCount: 2
Back
Fore
SplineSet
258.516231652 148.788085938 m 0,0,1
 269.907285748 165.701171875 269.907285748 165.701171875 276.128610322 189.221679688 c 0,2,3
 279.206705729 204.864257812 279.206705729 204.864257812 282.364642519 220.384765625 c 1,4,5
 240.62125651 197 240.62125651 197 187.803030303 197 c 0,6,7
 109.6640625 197 109.6640625 197 67.1455078125 247.12890625 c 0,8,9
 28 293.875 28 293.875 28 369.634765625 c 128,-1,10
 28 445.438476562 28 445.438476562 78.1943359375 503.543945312 c 0,11,12
 128.69140625 562 128.69140625 562 209.318181818 562 c 0,13,14
 304.629882812 562 304.629882812 562 361.130859375 481.236328125 c 0,15,16
 410 410.19921875 410 410.19921875 410 319.265625 c 0,17,18
 410 175.484375 410 175.484375 293.231445312 77.6962890625 c 0,19,20
 186.58334813 -5.0068359375 186.58334813 -5.0068359375 52.0771484375 -6.9990234375 c 2,21,-1
 48.0654296875 -7.0615234375 l 1,22,-1
 40.876953125 22.4072265625 l 1,23,-1
 46.2509765625 23.2021484375 l 2,24,25
 78.6435546875 27.9921875 78.6435546875 27.9921875 136.450195312 42.5478515625 c 1,26,27
 169.897549716 54.81640625 169.897549716 54.81640625 204.67372455 82.5458984375 c 0,28,29
 224.511156487 98.650390625 224.511156487 98.650390625 258.516231652 148.788085938 c 0,0,1
132.9921875 393.088867188 m 0,30,31
 130.055664062 345.965820312 130.055664062 345.965820312 145.69140625 304.681640625 c 0,32,33
 168.974121094 246 168.974121094 246 225.454545455 246 c 0,34,35
 254.162775213 246 254.162775213 246 276.450076941 294.110351562 c 0,36,37
 285.742143111 313.911132812 285.742143111 313.911132812 287.852687027 361.1328125 c 0,38,39
 288.909534801 386.71484375 288.909534801 386.71484375 285.212668679 410.587890625 c 128,-1,40
 281.516853101 434.4609375 281.516853101 434.4609375 273.099890507 456.561523438 c 0,41,42
 245.358161695 526 245.358161695 526 205.015151515 526 c 0,43,44
 183.694350734 526 183.694350734 526 171.236993963 513.749023438 c 0,45,46
 166.903497869 509.791015625 166.903497869 509.791015625 161.721161813 501.515625 c 128,-1,47
 156.538825758 493.241210938 156.538825758 493.241210938 150.786044034 480.823242188 c 0,48,49
 135.9453125 448.209960938 135.9453125 448.209960938 132.9921875 393.088867188 c 0,30,31
EndSplineSet
EndChar
StartChar: colon
Encoding: 58 58 214
Width: 202
GlyphClass: 2
Flags: W
LayerCount: 2
Back
Fore
SplineSet
48.9872883638 159.983051152 m 0
 56.6646932808 170.402386396 56.6646932808 170.402386396 67.8209893077 175.701193198 c 0
 78.9772853346 181 78.9772853346 181 93 181 c 0
 111.666666667 181 111.666666667 181 125.015151298 170.988636527 c 0
 148 153.476370849 148 153.476370849 148 126 c 0
 148 103.767468243 148 103.767468243 131.837725079 89.2771527968 c 0
 115.913208498 75 115.913208498 75 94 75 c 0
 87.8252490965 75 87.8252490965 75 81.9787894896 76.2210720716 c 0
 76.1323298827 77.4421441431 76.1323298827 77.4421441431 70.6445936062 79.8785068585 c 0
 65.1568573296 82.3148695738 65.1568573296 82.3148695738 60.0637466282 85.9528057891 c 0
 49.6104398463 93.6552423652 49.6104398463 93.6552423652 44.3052199232 104.542766491 c 0
 39 115.430290617 39 115.430290617 39 129 c 0
 39 137.746192564 39 137.746192564 41.5042198729 145.545389446 c 0
 44.0084397459 153.344586328 44.0084397459 153.344586328 48.9872883638 159.983051152 c 0
49 326 m 0
 65 348 65 348 94 348 c 0
 99.8242922303 348 99.8242922303 348 105.22573619 346.892230654 c 0
 110.62718015 345.784461308 110.62718015 345.784461308 115.599596789 343.552725619 c 0
 120.572013428 341.320989929 120.572013428 341.320989929 125.015151298 337.988636527 c 0
 130.675144803 333.676260523 130.675144803 333.676260523 134.975275072 328.664046849 c 0
 139.275405342 323.651833176 139.275405342 323.651833176 142.169089033 318.009916116 c 0
 145.062772723 312.367999057 145.062772723 312.367999057 146.531386362 306.089235231 c 0
 148 299.810471404 148 299.810471404 148 293 c 0
 148 275 148 275 138 262 c 0
 137.726206568 261.666025703 l 2
 119.235551992 241 119.235551992 241 92 241 c 0
 87.6260406242 241 87.6260406242 241 83.4474295638 241.617605241 c 0
 79.2688185034 242.235210481 79.2688185034 242.235210481 75.2784567427 243.472816709 c 0
 71.2880949819 244.710422937 71.2880949819 244.710422937 67.4886275205 246.576004467 c 0
 63.6891600591 248.441585997 63.6891600591 248.441585997 60.093345893 250.930995805 c 0
 49.6028910238 258.660804656 49.6028910238 258.660804656 44.3014455119 269.538616309 c 0
 39 280.416427962 39 280.416427962 39 294 c 0
 39 313 39 313 49 326 c 0
EndSplineSet
EndChar
StartChar: equals
Encoding: 61 61 233
Width: 374
GlyphClass: 2
Flags: W
LayerCount: 2
Back
Fore
SplineSet
37 189 m 1
 320 189 l 1
 320 134 l 1
 37 134 l 1
 37 189 l 1
37 290 m 1
 320 290 l 1
 320 237 l 1
 37 237 l 1
 37 290 l 1
EndSplineSet
EndChar
StartChar: question
Encoding: 63 63 228
Width: 385
GlyphClass: 2
Flags: W
LayerCount: 2
Back
Fore
SplineSet
348 455 m 0
 348 437.384362888 348 437.384362888 343.376844588 418.381916028 c 0
 338.753689176 399.379469168 338.753689176 399.379469168 329.543187076 378.911686725 c 0
 305.946473487 328.640427339 305.946473487 328.640427339 263.823419578 299.873463694 c 0
 190 249.36270293 190 249.36270293 190 168 c 0
 190 159.719004996 190 159.719004996 190.730695499 151.437791754 c 0
 191.461390998 143.156578513 191.461390998 143.156578513 192.923917794 134.86892667 c 2
 193.959610736 129 l 1
 162.583980223 129 l 1
 161.342111903 132.182287572 l 2
 144.841767786 174.46441937 144.841767786 174.46441937 154.064103743 229.79843511 c 0
 156.802522816 247.255856701 156.802522816 247.255856701 163.829185426 267.428722196 c 0
 170.855848036 287.60158769 170.855848036 287.60158769 182.055869836 310.318537439 c 0
 193.255891636 333.035487188 193.255891636 333.035487188 208.722499605 358.589013397 c 0
 231.053404584 395.483552058 231.053404584 395.483552058 233.004520797 446.212573583 c 0
 234.948086012 491.886356138 234.948086012 491.886356138 219.519033353 521.780145665 c 0
 201.769216517 559.148181108 201.769216517 559.148181108 162.79492262 561.004099865 c 0
 149.261409817 561.470772721 149.261409817 561.470772721 136.049195481 556.989768707 c 0
 122.836981145 552.508764694 122.836981145 552.508764694 110.062478046 543.046169806 c 0
 89.9877830711 526.795226255 89.9877830711 526.795226255 80.4901675886 507.79999529 c 0
 69 483.862146147 69 483.862146147 69 462 c 0
 69 430.385119582 69 430.385119582 90.8759637887 421.634734066 c 0
 112.84368629 412.743036863 112.84368629 412.743036863 124.421843145 402.004488036 c 0
 136 391.265939208 136 391.265939208 136 378 c 0
 136 367.615080175 136 367.615080175 129.314828328 356.473127388 c 0
 119.901612677 340 119.901612677 340 96 340 c 0
 77.0926702484 340 77.0926702484 340 61.6699211535 353.770311692 c 0
 46.9035524756 366.95456944 46.9035524756 366.95456944 39.5132032283 382.791032113 c 0
 25 410.780781196 25 410.780781196 25 454.950985103 c 0
 23.9633455523 507.820361934 23.9633455523 507.820361934 63.7187523309 553.771416523 c 0
 103.714268373 600 103.714268373 600 186 600 c 0
 254.816633577 600 254.816633577 600 299.192862348 562.847808471 c 0
 323.51974281 542.661673619 323.51974281 542.661673619 335.759871405 515.577342312 c 0
 348 488.493011004 348 488.493011004 348 455 c 0
180 99 m 0
 202.120882015 99 202.120882015 99 218.09494188 82.4751104842 c 0
 234 66.0216020845 234 66.0216020845 234 43 c 0
 234 20.8306499107 234 20.8306499107 216.915785644 4.84864293241 c 0
 199.974132854 -11 199.974132854 -11 177 -11 c 0
 154.879117985 -11 154.879117985 -11 138.90505812 5.52488951576 c 0
 123 21.9783979155 123 21.9783979155 123 45 c 0
 123 67.1693500893 123 67.1693500893 140.084214356 83.1513570676 c 0
 157.025867146 99 157.025867146 99 180 99 c 0
EndSplineSet
EndChar
StartChar: roman_V
Encoding: 86 86 247
Width: 674
GlyphClass: 2
Flags: W
LayerCount: 2
Back
Fore
SplineSet
557.615234375 521.758789062 m 128,-1,1
 551.55859375 509.668945312 551.55859375 509.668945312 545.668945312 494.548828125 c 2,2,-1
 342.687252421 -13 l 1,3,-1
 307.777701364 -13 l 1,4,-1
 106.299804688 527.630859375 l 2,5,6
 95.92578125 555.478515625 95.92578125 555.478515625 85.46484375 561.483398438 c 0,7,8
 69.572265625 570.684570312 69.572265625 570.684570312 35.857421875 571.6328125 c 2,9,-1
 31 571.76953125 l 1,10,-1
 31 611 l 1,11,-1
 293.915492958 611 l 1,12,-1
 293.915492958 571 l 1,13,-1
 288.774647887 571 l 2,14,15
 280.315347161 571 280.315347161 571 272.770755392 570.62890625 c 128,-1,16
 265.225159551 570.2578125 265.225159551 570.2578125 258.901518486 569.552734375 c 128,-1,17
 252.576873349 568.84765625 252.576873349 568.84765625 247.246258803 567.817382812 c 128,-1,18
 241.915644256 566.787109375 241.915644256 566.787109375 237.758789062 565.477539062 c 128,-1,19
 233.601933869 564.168945312 233.601933869 564.168945312 230.518430898 562.581054688 c 2,20,-1
 230.141904159 562.387695312 l 2,21,22
 217.830985915 558.396484375 217.830985915 558.396484375 217.830985915 535 c 0,23,24
 217.830985915 524.880859375 217.830985915 524.880859375 221.644448724 514.681640625 c 2,25,-1
 355.879745268 142.349609375 l 1,26,-1
 488.588853433 470.811523438 l 2,27,28
 498.556269256 496.017578125 498.556269256 496.017578125 499.551303917 522.137695312 c 0,29,30
 499.785252531 534.662109375 499.785252531 534.662109375 495.82318717 543.967773438 c 128,-1,31
 491.861121809 553.2734375 491.861121809 553.2734375 483.357641945 559.708007812 c 128,-1,32
 474.853158011 566.142578125 474.853158011 566.142578125 461.450814261 569.450195312 c 128,-1,33
 448.047466439 572.7578125 448.047466439 572.7578125 429.564521897 573 c 2,34,-1
 424.492957746 573.067382812 l 1,35,-1
 424.492957746 611 l 1,36,-1
 636 611 l 1,37,-1
 636 573 l 1,38,-1
 631 573 l 2,39,40
 614.79296875 573 614.79296875 573 602.477539062 568.887695312 c 128,-1,41
 590.162109375 564.775390625 590.162109375 564.775390625 581.438476562 556.649414062 c 0,42,43
 575.543945312 551.159179688 575.543945312 551.159179688 569.607421875 542.50390625 c 128,-1,0
 563.671875 533.848632812 563.671875 533.848632812 557.615234375 521.758789062 c 128,-1,1
EndSplineSet
EndChar
StartChar: roman_X
Encoding: 88 88 248
Width: 674
GlyphClass: 2
Flags: W
LayerCount: 2
Back
Fore
SplineSet
249.127929688 36.998046875 m 2,0,-1
 254 36.873046875 l 1,1,-1
 254 -1 l 1,2,-1
 31 -1 l 1,3,-1
 31 37 l 1,4,-1
 36 37 l 2,5,6
 71.04296875 37 71.04296875 37 96.10546875 59.7763671875 c 0,7,8
 122.18359375 83.474609375 122.18359375 83.474609375 161.864257812 141.00390625 c 2,9,-1
 268.040039062 294.651367188 l 1,10,-1
 119.719726562 529.858398438 l 2,11,12
 115.041992188 537.674804688 115.041992188 537.674804688 107.263671875 544.857421875 c 128,-1,13
 99.486328125 552.0390625 99.486328125 552.0390625 88.375 558.6875 c 0,14,15
 72.8544921875 568.221679688 72.8544921875 568.221679688 70.4189453125 569.020507812 c 0,16,-1
 70.142578125 569.119140625 l 2,17,18
 60.9228515625 572.744140625 60.9228515625 572.744140625 40.76171875 573.688476562 c 2,19,-1
 36 573.911132812 l 1,20,-1
 36 613 l 1,21,-1
 276 613 l 1,22,-1
 276 571 l 1,23,-1
 271 571 l 2,24,25
 264.559570312 571 264.559570312 571 259.22265625 570.373046875 c 128,-1,26
 253.88671875 569.747070312 253.88671875 569.747070312 250.129882812 568.62109375 c 128,-1,27
 246.374023438 567.495117188 246.374023438 567.495117188 243.840820312 566.0625 c 128,-1,28
 241.306640625 564.629882812 241.306640625 564.629882812 239.91796875 562.893554688 c 0,29,30
 237.162109375 559.385742188 237.162109375 559.385742188 234.8046875 556.041015625 c 128,-1,31
 232.448242188 552.6953125 232.448242188 552.6953125 231.345703125 550.927734375 c 128,-1,32
 230.243164062 549.159179688 230.243164062 549.159179688 230.005859375 548.599609375 c 0,33,34
 230.202148438 546.59765625 230.202148438 546.59765625 231.109375 543.943359375 c 128,-1,35
 232.017578125 541.288085938 232.017578125 541.288085938 233.817382812 537.654296875 c 128,-1,36
 235.618164062 534.021484375 235.618164062 534.021484375 238.279296875 529.5859375 c 2,37,-1
 338.504340278 375.19921875 l 1,38,-1
 427.891601562 499.849609375 l 2,39,40
 432.291015625 506.134765625 432.291015625 506.134765625 435.450195312 512.850585938 c 128,-1,41
 438.610351562 519.567382812 438.610351562 519.567382812 440.45703125 526.341796875 c 128,-1,42
 442.3046875 533.1171875 442.3046875 533.1171875 443 540.188476562 c 0,43,44
 443 550.009765625 443 550.009765625 436.883789062 556.928710938 c 128,-1,45
 430.766601562 563.84765625 430.766601562 563.84765625 416.71484375 568.099609375 c 128,-1,46
 402.662109375 572.3515625 402.662109375 572.3515625 380.850585938 573.001953125 c 2,47,-1
 376 573.147460938 l 1,48,-1
 376 613 l 1,49,-1
 596 613 l 1,50,-1
 596 575.92578125 l 1,51,-1
 591.333007812 575.620117188 l 2,52,53
 587.173828125 575.346679688 587.173828125 575.346679688 578.8125 572.555664062 c 128,-1,54
 570.451171875 569.763671875 570.451171875 569.763671875 557.416992188 564.126953125 c 128,-1,55
 544.383789062 558.489257812 544.383789062 558.489257812 528.236328125 550.544921875 c 2,56,-1
 528.033203125 550.4453125 l 2,57,58
 506.250976562 542.05859375 506.250976562 542.05859375 474.135742188 496.094726562 c 2,59,-1
 367.105685764 342.3359375 l 1,60,-1
 533.221679688 90.1943359375 l 2,61,62
 536.315429688 85.3232421875 536.315429688 85.3232421875 541.03125 79.0537109375 c 128,-1,63
 545.74609375 72.783203125 545.74609375 72.783203125 551.639648438 65.6748046875 c 128,-1,64
 557.532226562 58.56640625 557.532226562 58.56640625 564.293945312 50.9794921875 c 0,65,66
 586.137695312 37.3291015625 586.137695312 37.3291015625 629.111328125 36.3896484375 c 2,67,-1
 634 36.283203125 l 1,68,-1
 634 -1 l 1,69,-1
 361.555555556 -1 l 1,70,-1
 361.555555556 37 l 1,71,-1
 367.111111111 37 l 2,72,73
 402.387695312 37 402.387695312 37 413.578125 45.0576171875 c 0,74,75
 424 52.5615234375 424 52.5615234375 424 60 c 0,76,77
 424 69.5927734375 424 69.5927734375 413.745117188 86.3740234375 c 2,78,-1
 295.867621528 262.735351562 l 1,79,-1
 209.176757812 134.251953125 l 2,80,81
 185 97.5029296875 185 97.5029296875 185 76 c 0,82,83
 185 53.8310546875 185 53.8310546875 197.572265625 46.287109375 c 0,84,85
 204.157226562 42.3369140625 204.157226562 42.3369140625 217.229492188 39.9091796875 c 128,-1,86
 230.301757812 37.4814453125 230.301757812 37.4814453125 249.127929688 36.998046875 c 2,0,-1
EndSplineSet
EndChar
StartChar: roman_i
Encoding: 105 105 243
Width: 311
GlyphClass: 2
Flags: W
LayerCount: 2
Back
Fore
SplineSet
252.138671875 30.271484375 m 2,0,-1
 257 30.1396484375 l 1,1,-1
 257 0 l 1,2,-1
 50 0 l 1,3,-1
 50 32 l 1,4,-1
 55 32 l 2,5,6
 83.150390625 32 83.150390625 32 95.7119140625 42.494140625 c 0,7,8
 103 48.8076171875 103 48.8076171875 103 68.0615234375 c 2,9,-1
 103 340.961914062 l 2,10,11
 103 347.942382812 103 347.942382812 101.88671875 353.077148438 c 128,-1,12
 100.7734375 358.212890625 100.7734375 358.212890625 99.0576171875 360.95703125 c 128,-1,13
 97.341796875 363.701171875 97.341796875 363.701171875 95.01953125 364.995117188 c 0,14,15
 92.2685546875 366.52734375 92.2685546875 366.52734375 86.7646484375 367.782226562 c 128,-1,16
 81.259765625 369.037109375 81.259765625 369.037109375 72.4951171875 369.951171875 c 128,-1,17
 63.73046875 370.866210938 63.73046875 370.866210938 52.8525390625 371.177734375 c 2,18,-1
 48 371.31640625 l 1,19,-1
 48 405.938476562 l 1,20,-1
 203 416.356445312 l 1,21,-1
 203 67.3818359375 l 2,22,23
 203 62.6953125 203 62.6953125 203.38671875 58.6796875 c 128,-1,24
 203.7734375 54.6630859375 203.7734375 54.6630859375 204.418945312 51.791015625 c 128,-1,25
 205.063476562 48.9189453125 205.063476562 48.9189453125 205.94921875 46.7021484375 c 128,-1,26
 206.833984375 44.484375 206.833984375 44.484375 207.783203125 43.1669921875 c 128,-1,27
 208.731445312 41.849609375 208.731445312 41.849609375 209.7734375 41.171875 c 0,28,-1
 210.870117188 40.2001953125 l 2,29,30
 214.202148438 36.2236328125 214.202148438 36.2236328125 224.68359375 33.4775390625 c 128,-1,31
 235.166015625 30.7314453125 235.166015625 30.7314453125 252.138671875 30.271484375 c 2,0,-1
85 519 m 0,32,33
 85 548.385742188 85 548.385742188 107.837890625 566.873046875 c 0,34,35
 126.206054688 582 126.206054688 582 149 582 c 0,36,37
 156.255859375 582 156.255859375 582 162.995117188 580.552734375 c 128,-1,38
 169.734375 579.104492188 169.734375 579.104492188 175.852539062 576.247070312 c 128,-1,39
 181.970703125 573.390625 181.970703125 573.390625 187.47265625 569.135742188 c 128,-1,40
 192.973632812 564.879882812 192.973632812 564.879882812 197.779296875 559.2734375 c 0,41,42
 205.31640625 550.66015625 205.31640625 550.66015625 209.158203125 540.504882812 c 128,-1,43
 213 530.350585938 213 530.350585938 213 519 c 0,44,45
 213 504.461914062 213 504.461914062 207.227539062 492.365234375 c 128,-1,46
 201.454101562 480.268554688 201.454101562 480.268554688 190.162109375 471.126953125 c 0,47,48
 181.067382812 463.637695312 181.067382812 463.637695312 170.701171875 459.818359375 c 128,-1,49
 160.334960938 456 160.334960938 456 149 456 c 0,50,51
 141.731445312 456 141.731445312 456 135.001953125 457.44140625 c 128,-1,52
 128.272460938 458.8828125 128.272460938 458.8828125 122.15234375 461.740234375 c 128,-1,53
 116.033203125 464.59765625 116.033203125 464.59765625 110.522460938 468.8671875 c 128,-1,54
 105.01171875 473.13671875 105.01171875 473.13671875 100.171875 478.783203125 c 0,55,56
 85 497.206054688 85 497.206054688 85 519 c 0,32,33
EndSplineSet
EndChar
StartChar: roman_x
Encoding: 120 120 245
Width: 482
GlyphClass: 2
Flags: W
LayerCount: 2
Back
Fore
SplineSet
187.2265625 375.174804688 m 128,-1,1
 178.4453125 371.350585938 178.4453125 371.350585938 175.704101562 364.302734375 c 0,2,3
 172.493164062 354.666992188 172.493164062 354.666992188 183.211914062 337.694335938 c 2,4,-1
 241.668387277 255.909179688 l 1,5,-1
 297.89453125 328.854492188 l 2,6,7
 311.91796875 349.422851562 311.91796875 349.422851562 311.009765625 366.676757812 c 0,8,9
 310.9765625 367.106445312 310.9765625 367.106445312 310.5625 367.633789062 c 128,-1,10
 310.1484375 368.16015625 310.1484375 368.16015625 309.227539062 368.810546875 c 128,-1,11
 308.305664062 369.4609375 308.305664062 369.4609375 306.9609375 370.13671875 c 128,-1,12
 305.616210938 370.8125 305.616210938 370.8125 303.579101562 371.533203125 c 128,-1,13
 301.541015625 372.254882812 301.541015625 372.254882812 299.047851562 372.930664062 c 128,-1,14
 296.5546875 373.606445312 296.5546875 373.606445312 293.182617188 374.249023438 c 128,-1,15
 289.811523438 374.892578125 289.811523438 374.892578125 285.952148438 375.418945312 c 128,-1,16
 282.092773438 375.944335938 282.092773438 375.944335938 277.168945312 376.361328125 c 128,-1,17
 272.245117188 376.77734375 272.245117188 376.77734375 266.791992188 377.00390625 c 2,18,-1
 262 377.204101562 l 1,19,-1
 262 412 l 1,20,-1
 423 412 l 1,21,-1
 423 379.26953125 l 1,22,-1
 418.497070312 378.830078125 l 2,23,24
 412.297851562 378.224609375 412.297851562 378.224609375 405.970703125 376.404296875 c 128,-1,25
 399.642578125 374.584960938 399.642578125 374.584960938 393.06640625 371.48046875 c 128,-1,26
 386.489257812 368.375976562 386.489257812 368.375976562 379.7734375 364.004882812 c 2,27,-1
 379.3125 363.704101562 l 1,28,-1
 378.794921875 363.509765625 l 2,29,30
 367.13671875 359.1328125 367.13671875 359.1328125 352.985351562 340.7109375 c 2,31,-1
 267.057617188 231.080078125 l 1,32,-1
 362.270507812 79.666015625 l 2,33,34
 366.798828125 72.404296875 366.798828125 72.404296875 371.16015625 66.56640625 c 128,-1,35
 375.522460938 60.728515625 375.522460938 60.728515625 379.458984375 56.5791015625 c 128,-1,36
 383.395507812 52.4306640625 383.395507812 52.4306640625 387 49.791015625 c 0,37,38
 392.716796875 45.60546875 392.716796875 45.60546875 396.689453125 42.943359375 c 128,-1,39
 400.662109375 40.28125 400.662109375 40.28125 402.303710938 39.48046875 c 0,40,41
 414.438476562 33.1005859375 414.438476562 33.1005859375 426.383789062 32.2041015625 c 2,42,-1
 431 31.8564453125 l 1,43,-1
 431 0 l 1,44,-1
 244 0 l 1,45,-1
 244 36.212890625 l 1,46,-1
 249.208007812 35.99609375 l 2,47,48
 256.705078125 35.68359375 256.705078125 35.68359375 262.409179688 36.634765625 c 128,-1,49
 268.114257812 37.5869140625 268.114257812 37.5869140625 271.555664062 39.4169921875 c 128,-1,50
 274.997070312 41.2470703125 274.997070312 41.2470703125 276.956054688 43.9404296875 c 0,51,52
 279.860351562 46.7099609375 279.860351562 46.7099609375 278.565429688 53.64453125 c 128,-1,53
 277.270507812 60.580078125 277.270507812 60.580078125 270.81640625 70.2607421875 c 2,54,-1
 203.347039474 162.0390625 l 1,55,-1
 147.05859375 84.080078125 l 2,56,57
 134 66.3564453125 134 66.3564453125 134 55 c 0,58,59
 134 51.34375 134 51.34375 135.720703125 48.1474609375 c 128,-1,60
 137.440429688 44.951171875 137.440429688 44.951171875 140.595703125 42.322265625 c 0,61,62
 148.799804688 38.78515625 148.799804688 38.78515625 157.013671875 36.498046875 c 128,-1,63
 165.227539062 34.2109375 165.227539062 34.2109375 173.62890625 33.10546875 c 128,-1,64
 182.03125 32 182.03125 32 191 32 c 2,65,-1
 196 32 l 1,66,-1
 196 0 l 1,67,-1
 25 0 l 1,68,-1
 25 31.849609375 l 1,69,-1
 30.583984375 31.2080078125 l 2,70,71
 45.78515625 29.4619140625 45.78515625 29.4619140625 67.3232421875 43.17578125 c 0,72,73
 79.509765625 50.498046875 79.509765625 50.498046875 95.93359375 73.1337890625 c 2,74,-1
 181.969726562 190.540039062 l 1,75,-1
 80.7666015625 345.942382812 l 2,76,77
 60.17578125 377.924804688 60.17578125 377.924804688 34.8212890625 378.80859375 c 2,78,-1
 30 378.9765625 l 1,79,-1
 30 412 l 1,80,-1
 217 412 l 1,81,-1
 217 379 l 1,82,-1
 212 379 l 2,83,0
 196.006835938 379 196.006835938 379 187.2265625 375.174804688 c 128,-1,1
EndSplineSet
EndChar
StartChar: brace_open
Encoding: 123 123 261
Width: 416
GlyphClass: 2
Flags: W
LayerCount: 2
Back
Fore
SplineSet
320 675.078735314 m 1
 320 645.232429514 l 1
 315.237825747 645.005659311 l 2
 308.758701465 644.697129584 308.758701465 644.697129584 303.207253748 643.187325629 c 0
 297.655806031 641.677521674 297.655806031 641.677521674 293.034706106 639.010030022 c 0
 288.413606182 636.34253837 288.413606182 636.34253837 284.535533906 632.464466094 c 2
 284.284271247 632.213203436 l 2
 283.167205312 631.375403984 283.167205312 631.375403984 280.642153834 628.686893137 c 0
 278.117102355 625.998382291 278.117102355 625.998382291 273.627556339 620.842440314 c 0
 269.138010322 615.686498338 269.138010322 615.686498338 263.848789802 609.308320652 c 0
 256.311671991 600.219443291 256.311671991 600.219443291 252.155835995 578.901710435 c 0
 248 557.583977578 248 557.583977578 248 525 c 2
 248 466 l 2
 248 424.318664189 248 424.318664189 242.823819106 405.684412971 c 0
 240.701057471 397.900953643 240.701057471 397.900953643 236.892904606 389.995962969 c 0
 233.084751742 382.090972294 233.084751742 382.090972294 227.694100028 374.184666003 c 0
 222.303448314 366.278359711 222.303448314 366.278359711 215.267845286 358.21315624 c 0
 194.128264798 333.979978608 194.128264798 333.979978608 160.383735638 324.190782446 c 0
 155.662727151 322.61711295 155.662727151 322.61711295 117.325424074 315.531515931 c 1
 185.440123739 299.246830582 185.440123739 299.246830582 201.857696832 279.180907914 c 0
 250 220.795561518 250 220.795561518 250 170 c 2
 250 105 l 2
 250 77.7007895696 250 77.7007895696 255.546045175 56.9644789415 c 0
 261.09209035 36.2281683133 261.09209035 36.2281683133 271.94642194 22.0703445 c 0
 278.927534714 13.227601654 278.927534714 13.227601654 290.173034291 5.57096051623 c 0
 301.418533868 -2.08568062154 301.418533868 -2.08568062154 316.881885235 -8.36766711439 c 2
 320 -9.63440123776 l 1
 320 -41 l 1
 295 -41 l 2
 249.381087858 -41 249.381087858 -41 201.072547231 -6.053396142 c 0
 191.3026737 1.00262363001 191.3026737 1.00262363001 183.189262415 13.0457515919 c 0
 175.07585113 25.0888795539 175.07585113 25.0888795539 168.335549542 42.1988758917 c 0
 154 80.0856853965 154 80.0856853965 154 123 c 2
 154 184 l 2
 154 239.178653468 154 239.178653468 134.19205698 262.759538016 c 0
 122.592583983 276.214926692 122.592583983 276.214926692 99.0917949882 285.426069925 c 0
 75.5910059937 294.637213158 75.5910059937 294.637213158 40.3798263271 299.038610616 c 2
 36 299.586088907 l 1
 36 332.215794544 l 1
 40.1551809244 332.928111274 l 2
 108.64154926 344.66863156 108.64154926 344.66863156 133.547621267 368.616777721 c 0
 143.42553816 378.045698392 143.42553816 378.045698392 148.71276908 398.203323744 c 0
 154 418.360949096 154 418.360949096 154 449 c 2
 154 510 l 2
 154 594.341824684 154 594.341824684 197.784039568 630.828524324 c 0
 249.144872452 673.971623946 249.144872452 673.971623946 314.921884535 674.99938976 c 2
 320 675.078735314 l 1
EndSplineSet
EndChar
StartChar: brace_close
Encoding: 125 125 255
Width: 416
GlyphClass: 2
Flags: W
LayerCount: 2
Back
Fore
SplineSet
97.078115465 674.99938976 m 2
 162.855066641 673.971624898 162.855066641 673.971624898 214.200921998 630.841106398 c 0
 258 594.34187473 258 594.34187473 258 510 c 2
 258 449 l 2
 258 433.546761692 258 433.546761692 259.374281197 420.631739622 c 0
 260.748562395 407.716717552 260.748562395 407.716717552 263.396659224 397.767802337 c 0
 266.044756054 387.818887122 266.044756054 387.818887122 269.811848289 380.543768591 c 0
 273.578940525 373.26865006 273.578940525 373.26865006 278.465543581 368.604165325 c 0
 303.358509101 344.668621555 303.358509101 344.668621555 371.844819076 332.928111274 c 2
 376 332.215794544 l 1
 376 299.586088907 l 1
 371.620173673 299.038610616 l 2
 301.530207531 290.277364849 301.530207531 290.277364849 277.80794302 262.759538016 c 0
 258 239.178653468 258 239.178653468 258 184 c 2
 258 123 l 2
 258 79.0892277647 258 79.0892277647 244.6788533 43.7369538291 c 0
 231.123429323 7.76294404583 231.123429323 7.76294404583 210.856941664 -6.10360014243 c 0
 186.370451356 -23.4481974437 186.370451356 -23.4481974437 162.880298554 -32.2240987219 c 0
 139.390145752 -41 139.390145752 -41 117 -41 c 2
 92 -41 l 1
 92 -9.63440123776 l 1
 95.1181147652 -8.36766711439 l 2
 125.894182823 4.13511053425 125.894182823 4.13511053425 140.05357806 22.0703445 c 0
 162 50.6961122485 162 50.6961122485 162 105 c 2
 162 170 l 2
 162 196.0832058 162 196.0832058 174.099985774 223.368687381 c 0
 186.199971548 250.654168963 186.199971548 250.654168963 210.192817174 279.241389282 c 0
 227.313604047 299.065458293 227.313604047 299.065458293 294.696903183 315.478169855 c 1
 256.734494988 322.308615393 256.734494988 322.308615393 252.178005063 323.068030381 c 0
 251.508625034 323.22760011 l 2
 234.897966826 328.4184308 234.897966826 328.4184308 221.167977172 337.179523499 c 0
 207.437987517 345.940616197 207.437987517 345.940616197 196.732154714 358.21315624 c 0
 175.478110017 382.577548942 175.478110017 382.577548942 169.182410452 405.661780681 c 0
 166.527910408 415.217980839 166.527910408 415.217980839 165.263955204 430.161920304 c 0
 164 445.10585977 164 445.10585977 164 466 c 2
 164 525 l 2
 164 557.521011853 164 557.521011853 159.615691154 578.392206284 c 0
 155.231382308 599.263400715 155.231382308 599.263400715 147.37023658 607.56127676 c 0
 146.979119293 608.028044695 l 2
 130.693226902 630.061899106 130.693226902 630.061899106 128.454114465 632.475487836 c 0
 121.513530321 638.688126446 121.513530321 638.688126446 114.029702475 641.613947632 c 0
 106.545874629 644.539768817 106.545874629 644.539768817 96.7621742529 645.005659311 c 2
 92 645.232429514 l 1
 92 675.078735314 l 1
 97.078115465 674.99938976 l 2
EndSplineSet
EndChar
StartChar: not_used_da_yansa
Encoding: 181 181 249
Width: 924
GlyphClass: 2
Flags: W
LayerCount: 2
Back
Fore
SplineSet
286 289 m 2
 233.35898915 289 233.35898915 289 188.531002844 262.687921081 c 0
 145 237.137115064 145 237.137115064 145 160 c 0
 145 108.666666667 145 108.666666667 170.971156513 74.0384579831 c 0
 186.28819543 54.4135018706 186.28819543 54.4135018706 207.264960299 43.927051162 c 0
 228.241725168 33.4406004534 228.241725168 33.4406004534 255.289369248 31.9916195206 c 0
 321.838126291 28.1337205616 321.838126291 28.1337205616 380.226972389 95.2808935746 c 2
 383.257683865 98.7662117719 l 1
 414.640951403 75.5698835915 l 1
 410.535533906 71.4644660941 l 2
 382.805907565 43.7348397527 382.805907565 43.7348397527 372.032024979 29.0431816819 c 0
 371.873248842 29.1596175159 371.873248842 29.1596175159 365.567158496 17.5718355795 c 0
 359.261068149 5.98405364313 359.261068149 5.98405364313 350.702460253 -11.4361731564 c 0
 342.143852357 -28.8563999559 342.143852357 -28.8563999559 337.681645888 -40.7556172079 c 0
 337.472135955 -41.2360679775 l 2
 324 -68.1803398875 324 -68.1803398875 324 -95 c 0
 324 -131.235076899 324 -131.235076899 347.908344647 -160.881424261 c 0
 362.23344654 -179.026553326 362.23344654 -179.026553326 377.333242422 -186.576451267 c 0
 385.995421514 -191.388772985 385.995421514 -191.388772985 410.523878636 -199.237879264 c 2
 414 -200.350238101 l 1
 414 -242.137513887 l 1
 409.935560539 -242.911692832 l 2
 402.692156365 -244.291388865 402.692156365 -244.291388865 394.187206564 -245.199888478 c 0
 385.682256763 -246.108388091 385.682256763 -246.108388091 375.914515754 -246.554194045 c 0
 366.146774744 -247 366.146774744 -247 354.930568946 -247 c 0
 317.674621142 -245.965112561 317.674621142 -245.965112561 303.650331754 -238.413572121 c 0
 244 -207.018660672 244 -207.018660672 244 -142 c 0
 244 -85.7443793371 244 -85.7443793371 307.42845841 2.65521274356 c 1
 260.330612442 -6 260.330612442 -6 224 -6 c 0
 190.339034184 -6 190.339034184 -6 163.671571293 1.17970154767 c 0
 33.2225851274 37.130209546 33.2225851274 37.130209546 26.0079369659 157.717900244 c 0
 20.845436676 254.772905696 20.845436676 254.772905696 98.4806448724 300.318894504 c 0
 135.648254293 322 135.648254293 322 248 322 c 2
 336.53810979 322 l 1
 328.906560958 347.731848818 328.906560958 347.731848818 307.630017102 367.306269165 c 0
 301.379677429 372.961338394 301.379677429 372.961338394 292.8338176 376.076798286 c 0
 284.287957771 379.192258179 284.287957771 379.192258179 272.990826192 379.783440981 c 0
 261.693694613 380.374623783 261.693694613 380.374623783 247.836189302 378.070305023 c 0
 244.205349852 377.42956865 244.205349852 377.42956865 240.582313984 375.841835412 c 0
 236.959278116 374.254102175 236.959278116 374.254102175 233.275900657 371.668617574 c 0
 229.592523197 369.083132972 229.592523197 369.083132972 225.85938427 365.380569633 c 0
 222.126245343 361.678006294 222.126245343 361.678006294 218.452075261 356.937141673 c 0
 201.700301265 335.32194942 201.700301265 335.32194942 177.738078405 332.054373575 c 0
 172.26605118 331.167017809 172.26605118 331.167017809 167.440315986 331.162810542 c 0
 135 331.134527791 135 331.134527791 135 368 c 0
 135 375.700274723 135 375.700274723 137.192380262 383.373605639 c 2
 137.2461985 383.561969472 l 1
 157.527033402 438 157.527033402 438 232 438 c 0
 245.311288741 438 245.311288741 438 261.600666546 435.963827774 c 0
 359.225193701 424.53968098 359.225193701 424.53968098 383.911692832 294.935560539 c 2
 385.042275792 289 l 1
 286 289 l 2
425.205104603 425.666728031 m 2
 452.071611723 436 452.071611723 436 478 436 c 0
 533.279042553 436 533.279042553 436 571.273994691 392.279781101 c 0
 608.880976031 349.005994354 608.880976031 349.005994354 612.988095491 285.345642727 c 0
 618.859635988 206.079846012 618.859635988 206.079846012 585.080644515 134.177631297 c 1
 618.810834405 124.756934667 618.810834405 124.756934667 645.917883997 120.378467334 c 0
 673.024933589 116 673.024933589 116 697 116 c 0
 724.35855946 116 724.35855946 116 746.713337752 121.831681293 c 0
 834.544723639 145.698905719 834.544723639 145.698905719 827.031735158 211.437554924 c 0
 821.462183472 260.635261488 821.462183472 260.635261488 753.335652205 271.043481542 c 0
 744.732656077 272.036134942 744.732656077 272.036134942 735.865114194 273.207869602 c 0
 726.997572311 274.379604263 726.997572311 274.379604263 717.924663886 275.723226722 c 0
 708.851755461 277.066849182 708.851755461 277.066849182 699.692557159 278.565627086 c 0
 670.603234048 283.32569814 670.603234048 283.32569814 655.464466094 298.464466094 c 0
 645.782656608 308.14627558 645.782656608 308.14627558 640.891328304 320.374383468 c 0
 636 332.602491356 636 332.602491356 636 347 c 0
 636 379.939243573 636 379.939243573 658.288827383 404.350816421 c 0
 671.623252577 419.285372638 671.623252577 419.285372638 693.586895193 427.128029696 c 0
 715.550537809 434.970686754 715.550537809 434.970686754 745.806705404 435.996319554 c 0
 769.598402031 437.030741146 769.598402031 437.030741146 789.679990413 430.729947551 c 0
 809.761578794 424.429153955 809.761578794 424.429153955 825.74367088 410.805075455 c 0
 858 383.307876861 858 383.307876861 858 340 c 0
 858 334.752254082 858 334.752254082 857.475265696 329.504906736 c 0
 856.950531392 324.25755939 856.950531392 324.25755939 855.902903378 319.019419324 c 2
 855.099019514 315 l 1
 813.766919746 315 l 1
 815.119064699 321.084652289 l 2
 816.060909079 325.322951997 816.060909079 325.322951997 816.530454539 329.548854219 c 0
 817 333.774756441 817 333.774756441 817 338 c 0
 817 342.357805988 817 342.357805988 816.493031246 346.474246964 c 0
 815.986062492 350.59068794 815.986062492 350.59068794 814.964776566 354.496166162 c 0
 813.94349064 358.401644383 813.94349064 358.401644383 812.407743972 362.087031445 c 0
 810.871997304 365.772418506 810.871997304 365.772418506 808.81078909 369.264912274 c 0
 806.749580876 372.757406041 806.749580876 372.757406041 804.166663425 376.051296128 c 0
 801.583745973 379.345186215 801.583745973 379.345186215 798.464466094 382.464466094 c 0
 789.175939737 391.752992451 789.175939737 391.752992451 777.154391685 396.376496225 c 0
 765.132843632 401 765.132843632 401 750 401 c 0
 742.808278641 401 742.808278641 401 736.010258043 400.138600421 c 0
 729.212237444 399.277200842 729.212237444 399.277200842 722.793798367 397.552122245 c 0
 716.375359291 395.827043649 716.375359291 395.827043649 710.332918967 393.247088312 c 0
 704.290478643 390.667132975 704.290478643 390.667132975 698.5855782 387.22042229 c 0
 687.534631943 380.543808927 687.534631943 380.543808927 682.267315972 371.874688218 c 0
 677 363.205567509 677 363.205567509 677 352 c 0
 677 346.626950602 677 346.626950602 678.379591999 340.873451413 c 0
 679.759183997 335.119952225 679.759183997 335.119952225 682.507065991 329.166207905 c 0
 684.153823918 325.872692051 684.153823918 325.872692051 688.46877243 322.984637838 c 0
 692.783720941 320.096583626 692.783720941 320.096583626 699.840577341 317.645896313 c 0
 706.897433741 315.195209 706.897433741 315.195209 717.500835732 313.459675171 c 0
 728.104237724 311.724141342 728.104237724 311.724141342 741.333436297 310.989185866 c 0
 763.094748201 309.289083374 763.094748201 309.289083374 780.641110428 305.939653295 c 0
 798.187472654 302.590223216 798.187472654 302.590223216 812.084647518 297.373862639 c 0
 825.981822381 292.157502061 825.981822381 292.157502061 835.921625752 285.057642511 c 0
 900.201925044 238.402586573 900.201925044 238.402586573 892.983287606 145.591533803 c 0
 887.814453585 82.5317587428 887.814453585 82.5317587428 839.240593148 41.1923030515 c 0
 815.146540946 20.6867267094 815.146540946 20.6867267094 786.157142409 8.88616062142 c 0
 757.167743872 -2.91440546654 757.167743872 -2.91440546654 723.429441711 -5.98152384487 c 0
 607.766601648 -15.9524583331 607.766601648 -15.9524583331 538.649520299 74.1274416977 c 1
 517.171475133 50.648336423 517.171475133 50.648336423 495.96599519 34.9747208132 c 0
 476.674408472 20.7598674422 476.674408472 20.7598674422 458.331745066 10.8241133447 c 0
 439.98908166 0.888359247132 439.98908166 0.888359247132 422.539101427 -4.75722259277 c 2
 419.533772676 -5.72953483565 l 1
 395.253642773 19.9788380036 l 1
 402.196774036 22.6635154252 l 2
 475.820741848 51.1314496459 475.820741848 51.1314496459 527.961870313 122.948475645 c 0
 550.495614547 153.809907966 550.495614547 153.809907966 561.747807274 189.768327362 c 0
 573 225.726746757 573 225.726746757 573 267 c 0
 573 284.258547277 573 284.258547277 570.400126213 299.958999838 c 0
 567.800252426 315.659452399 567.800252426 315.659452399 562.641704471 329.729556054 c 0
 557.483156516 343.79965971 557.483156516 343.79965971 549.755915459 356.356426427 c 0
 535.859161865 378.399552819 535.859161865 378.399552819 517.544462131 389.199776409 c 0
 499.229762398 400 499.229762398 400 476 400 c 0
 454.014176558 400 454.014176558 400 428.948199954 389.395163745 c 2
 422 386.455540687 l 1
 422 424.433995491 l 1
 425.205104603 425.666728031 l 2
EndSplineSet
EndChar
StartChar: unknown_8
Encoding: 183 183 251
Width: 255
GlyphClass: 2
Flags: W
LayerCount: 2
Back
Fore
SplineSet
202.455222324 166.615845487 m 0
 227 144.205396305 227 144.205396305 227 94 c 0
 227 69.0933270911 227 69.0933270911 220.646746842 52.1513186688 c 0
 195.319875823 -8 195.319875823 -8 128 -8 c 0
 119.688711259 -8 119.688711259 -8 111.363770219 -6.95938237005 c 0
 71.2929409864 -1.68690483946 71.2929409864 -1.68690483946 47.0425556212 29.9440325935 c 0
 25 58.2844612493 25 58.2844612493 25 96 c 0
 25 110.751838136 25 110.751838136 29.2211049564 124.470429244 c 2
 30.3071267274 128 l 1
 63.729932327 128 l 1
 63.992301766 123.277350098 l 2
 64.4215226226 115.551374679 64.4215226226 115.551374679 68.5803383794 109.259871988 c 0
 72.7391541361 102.968369297 72.7391541361 102.968369297 81.1396706056 97.7464266264 c 0
 98.427400396 87 98.427400396 87 123 87 c 0
 140.333333333 87 140.333333333 87 153 96.5 c 0
 165 105.5 165 105.5 165 122 c 0
 165 135.477119131 165 135.477119131 152.999111152 148.177850368 c 0
 140.998222305 160.878581604 140.998222305 160.878581604 115.886271613 172.468712693 c 0
 43.513219164 206.587437419 43.513219164 206.587437419 32.0602640191 273.222812807 c 0
 30 287.644660941 30 287.644660941 30 302 c 0
 30 353.017999457 30 353.017999457 58.4087988861 382.478976079 c 0
 90.9876726151 416.108781219 90.9876726151 416.108781219 152.289667328 412.99173064 c 0
 176.783062441 411.394335307 176.783062441 411.394335307 194.719819827 397.204931381 c 0
 212.656577214 383.015527456 212.656577214 383.015527456 223.626486046 356.896696902 c 0
 228 345.962912018 228 345.962912018 228 328 c 0
 228 310.31060191 228 310.31060191 224.046970544 295.819897083 c 0
 220.093941089 281.329192257 220.093941089 281.329192257 212.034879006 270.046505341 c 0
 189.5 240 189.5 240 142 240 c 0
 138.676821426 240 138.676821426 240 135.313306807 240.166187801 c 0
 131.949792187 240.332375602 131.949792187 240.332375602 128.55453004 240.663697385 c 0
 125.159267893 240.995019168 125.159267893 240.995019168 121.724635709 241.491609892 c 0
 118.290003525 241.988200617 118.290003525 241.988200617 114.824404803 242.64832177 c 0
 111.358806081 243.308442923 111.358806081 243.308442923 107.854803331 244.132914158 c 0
 107.563260572 244.210868574 l 2
 102.987457374 245.583609533 102.987457374 245.583609533 94.6516282929 249.630672724 c 0
 86.3157992122 253.677735915 86.3157992122 253.677735915 74.9053426213 259.963156919 c 1
 81.0852214532 235.42746235 81.0852214532 235.42746235 122.437836025 212.3654273 c 0
 129.693637461 208.313486239 129.693637461 208.313486239 138.625308196 203.334878872 c 0
 147.55697893 198.356271505 147.55697893 198.356271505 153.134312059 195.248901218 c 0
 158.711645188 192.14153093 158.711645188 192.14153093 165.403576515 188.404163709 c 0
 172.095507843 184.666796488 172.095507843 184.666796488 176.157160778 182.379562066 c 0
 180.218813713 180.092327645 180.218813713 180.092327645 184.748105059 177.519617238 c 0
 189.277396405 174.946906831 189.277396405 174.946906831 191.900468573 173.403224944 c 0
 194.52354074 171.859543056 194.52354074 171.859543056 196.967291531 170.374906132 c 0
 199.411042323 168.890269207 199.411042323 168.890269207 200.672633148 168.013556523 c 0
 201.934223974 167.136843838 201.934223974 167.136843838 202.455222324 166.615845487 c 0
95.0562479633 356.076421882 m 0
 86 343.397674733 86 343.397674733 86 327 c 0
 86 301.546122959 86 301.546122959 105.923578118 287.056247963 c 0
 118.602325267 278 118.602325267 278 135 278 c 0
 161.47810885 278 161.47810885 278 176.954958651 298.939267379 c 0
 186 311.602325267 186 311.602325267 186 327 c 0
 186 352.387423597 186 352.387423597 165.119131706 366.913245019 c 0
 152.397674733 376 152.397674733 376 136 376 c 0
 109.546122959 376 109.546122959 376 95.0562479633 356.076421882 c 0
EndSplineSet
EndChar
StartChar: top_white_circle
Encoding: 730 730 256
Width: 248
GlyphClass: 2
Flags: W
LayerCount: 2
Back
Fore
SplineSet
49.3925846849 687.462170563 m 0
 76.8734574763 716 76.8734574763 716 117 716 c 0
 127.895970156 716 127.895970156 716 137.925134234 713.634210368 c 0
 147.954298313 711.268420735 147.954298313 711.268420735 157.070563493 706.539882825 c 0
 166.186828674 701.811344916 166.186828674 701.811344916 174.305628269 694.75151918 c 0
 189.074058042 681.565421169 189.074058042 681.565421169 196.537029021 665.043440122 c 0
 204 648.521459074 204 648.521459074 204 629 c 0
 204 612.582004255 204 612.582004255 198.134672248 597.920049936 c 0
 192.269344496 583.258095616 192.269344496 583.258095616 180.66880337 570.602959843 c 0
 167.503790558 556.384746005 167.503790558 556.384746005 150.988928163 549.192373002 c 0
 134.474065769 542 134.474065769 542 115 542 c 0
 82.1213244195 542 82.1213244195 542 56.7213448932 564.224982085 c 0
 26 590.708900097 26 590.708900097 26 630 c 0
 26 663.006286574 26 663.006286574 49.3925846849 687.462170563 c 0
73.9440727338 657.9267772 m 0
 68.9221366101 651.535222133 68.9221366101 651.535222133 66.461068305 644.376887986 c 0
 64 637.218553839 64 637.218553839 64 629 c 0
 64 603.52189115 64 603.52189115 85.0311892165 587.977099121 c 0
 97.7293153703 578 97.7293153703 578 115 578 c 0
 121.749183116 578 121.749183116 578 127.689246305 579.234489809 c 0
 133.629309493 580.468979618 133.629309493 580.468979618 138.857682124 582.972450985 c 0
 144.086054754 585.475922353 144.086054754 585.475922353 148.608696954 589.23513321 c 0
 153.131339154 592.994344067 153.131339154 592.994344067 157.055927266 598.0732228 c 0
 162.07786339 604.464777867 162.07786339 604.464777867 164.538931695 611.623112014 c 0
 167 618.781446161 167 618.781446161 167 627 c 0
 167 633.449877675 167 633.449877675 165.718084228 639.172686637 c 0
 164.436168456 644.895495599 164.436168456 644.895495599 161.831380424 649.99476322 c 0
 159.226592391 655.094030841 159.226592391 655.094030841 155.293386183 659.566025301 c 0
 151.360179976 664.03801976 151.360179976 664.03801976 146.043181682 667.967975021 c 0
 139.162146457 673.014067519 139.162146457 673.014067519 131.456543238 675.50703376 c 0
 123.75094002 678 123.75094002 678 115 678 c 0
 102.066561682 678 102.066561682 678 91.9286119446 673.040593553 c 0
 81.7906622067 668.081187106 81.7906622067 668.081187106 73.9440727338 657.9267772 c 0
EndSplineSet
EndChar
StartChar: visar
Encoding: 3459 3459 100
Width: 248
GlyphClass: 2
Flags: W
LayerCount: 2
Back
Fore
SplineSet
49.3217376031 176.386860947 m 0
 76.8196524377 206 76.8196524377 206 116 206 c 0
 122.734214348 206 122.734214348 206 129.138109189 205.101244676 c 0
 135.542004029 204.202489351 135.542004029 204.202489351 141.582611682 202.409601378 c 0
 147.623219336 200.616713405 147.623219336 200.616713405 153.286637692 197.941355002 c 0
 158.950056049 195.2659966 158.950056049 195.2659966 164.224995868 191.703117117 c 0
 169.499935688 188.140237634 169.499935688 188.140237634 174.350816421 183.711172617 c 0
 184.136579671 174.973884001 184.136579671 174.973884001 190.731819163 164.82104933 c 0
 197.327058654 154.668214659 197.327058654 154.668214659 200.663529327 143.170528343 c 0
 204 131.672842026 204 131.672842026 204 119 c 0
 204 108.055869817 204 108.055869817 201.385389632 97.8702964305 c 0
 198.770779264 87.6847230443 198.770779264 87.6847230443 193.583258189 78.3585325761 c 0
 188.395737113 69.0323421079 188.395737113 69.0323421079 180.66880337 60.6029598425 c 0
 167.503790558 46.3847460049 167.503790558 46.3847460049 150.988928163 39.1923730025 c 0
 134.474065769 32 134.474065769 32 115 32 c 0
 82.1213244195 32 82.1213244195 32 56.6886158632 54.2536199867 c 0
 27 80.7613127217 27 80.7613127217 27 119 c 0
 27 151.939243573 27 151.939243573 49.3217376031 176.386860947 c 0
49.3193397406 363.384234717 m 0
 75.8154187063 392 75.8154187063 392 115 392 c 0
 148.878675581 392 148.878675581 392 174.273325154 369.779681623 c 0
 204 344.299674612 204 344.299674612 204 306 c 0
 204 297.790843672 204 297.790843672 202.527137259 290.001540714 c 0
 201.054274518 282.212237755 201.054274518 282.212237755 198.128050895 274.901991597 c 0
 195.201827272 267.591745438 195.201827272 267.591745438 190.832186454 260.757575694 c 0
 186.462545636 253.923405951 186.462545636 253.923405951 180.66880337 247.602959843 c 0
 167.515037924 233.396893161 167.515037924 233.396893161 151.25264882 226.19844658 c 0
 134.990259715 219 134.990259715 219 116 219 c 0
 81.8424411622 219.741658438 81.8424411622 219.741658438 56.6886158632 241.253619987 c 0
 27 267.761312722 27 267.761312722 27 306 c 0
 27 338.939243573 27 338.939243573 49.3193397406 363.384234717 c 0
70 306 m 0
 70 300.525756267 70 300.525756267 71.044457319 295.65519498 c 0
 72.088914638 290.784633693 72.088914638 290.784633693 74.2134908901 286.422618825 c 0
 76.3380671421 282.060603957 76.3380671421 282.060603957 79.5440668539 278.208877244 c 0
 82.7500665656 274.357150532 82.7500665656 274.357150532 87.0891077597 270.931591694 c 0
 91.3392527661 267.592192046 91.3392527661 267.592192046 95.9280975545 265.390561845 c 0
 100.516942343 263.188931644 100.516942343 263.188931644 105.51889684 262.094465822 c 0
 110.520851337 261 110.520851337 261 116 261 c 0
 123.336622658 261 123.336622658 261 129.488012418 262.76768292 c 0
 135.639402179 264.53536584 135.639402179 264.53536584 140.737843344 268.091585788 c 0
 145.83628451 271.647805736 145.83628451 271.647805736 150.068408306 277.08910776 c 0
 153.421775295 281.357029383 153.421775295 281.357029383 155.626815428 285.85601272 c 0
 157.831855561 290.354996058 157.831855561 290.354996058 158.915927781 295.116460888 c 0
 160 299.877925719 160 299.877925719 160 305 c 0
 160 315.976425534 160 315.976425534 156.032287315 324.351540435 c 0
 152.064574631 332.726655336 152.064574631 332.726655336 143.91089224 339.068408306 c 0
 137.54055899 344.073670146 137.54055899 344.073670146 130.374949688 346.536835073 c 0
 123.209340387 349 123.209340387 349 115 349 c 0
 111.360347848 349 111.360347848 349 107.942161179 348.503929594 c 0
 104.523974511 348.007859188 104.523974511 348.007859188 101.287834572 347.007131931 c 0
 98.0516946326 346.006404673 98.0516946326 346.006404673 94.9974031065 344.491093358 c 0
 91.9431115803 342.975782044 91.9431115803 342.975782044 89.0518610236 340.943128485 c 0
 86.1606104668 338.910474926 86.1606104668 338.910474926 83.4115912518 336.344723659 c 0
 76.607952502 329.994660826 76.607952502 329.994660826 73.303976251 322.505737975 c 0
 70 315.016815125 70 315.016815125 70 306 c 0
70 120 m 0
 70 98.422992557 70 98.422992557 87.0891077597 84.9315916941 c 0
 99.7293153703 75 99.7293153703 75 116 75 c 0
 137.554657826 75 137.554657826 75 150.068408306 91.0891077597 c 0
 160 103.72931537 160 103.72931537 160 119 c 0
 160 129.976425534 160 129.976425534 156.032287315 138.351540435 c 0
 152.064574631 146.726655336 152.064574631 146.726655336 143.91089224 153.068408306 c 0
 137.54055899 158.073670146 137.54055899 158.073670146 130.374949688 160.536835073 c 0
 123.209340387 163 123.209340387 163 115 163 c 0
 96.9708159031 163 96.9708159031 163 83.4115912518 150.344723659 c 0
 70 137.82723849 70 137.82723849 70 120 c 0
EndSplineSet
EndChar
StartChar: v_i
Encoding: 3465 3465 105
Width: 593
GlyphClass: 2
Flags: W
LayerCount: 2
Back
Fore
SplineSet
240.781640809 87.2893247585 m 1
 230.720045417 92.6935877856 230.720045417 92.6935877856 221.54388677 101.386790714 c 0
 197 124.863551973 197 124.863551973 197 158 c 0
 197 169.669590418 197 169.669590418 200.15182652 181.226287659 c 0
 207.61722829 213.220866671 207.61722829 213.220866671 237.461538462 230.807692308 c 0
 252.137786853 239.456195824 252.137786853 239.456195824 268.23912738 242.75606503 c 0
 284.340467907 246.055934235 284.340467907 246.055934235 301.584701719 243.965724076 c 0
 338.523413417 239.744157025 338.523413417 239.744157025 360.301868391 214.247429251 c 0
 371.13491778 201.564834844 371.13491778 201.564834844 376.56745889 185.930069572 c 0
 382 170.295304299 382 170.295304299 382 152 c 0
 382 74.9390505875 382 74.9390505875 273.019771271 52.1050979013 c 0
 248.515301344 47 248.515301344 47 223 47 c 0
 140.179859474 47 140.179859474 47 82.7770137373 95.1773883861 c 0
 56.5080892382 117.325697278 56.5080892382 117.325697278 42.7695442114 146.099185924 c 0
 29.0309991846 174.872674571 29.0309991846 174.872674571 28.0019640792 209.859868152 c 0
 24.9328851286 319.323684058 24.9328851286 319.323684058 101.830886945 381.867392202 c 0
 175.303791343 442.074355528 175.303791343 442.074355528 298.211674465 436.995517383 c 0
 418.064321047 431.917015409 418.064321047 431.917015409 482.434488443 371.633842769 c 0
 549 308.140585591 549 308.140585591 549 191 c 0
 549 153.171444218 549 153.171444218 536.931086811 119.917791103 c 0
 524.862173622 86.6641379885 524.862173622 86.6641379885 500.815627236 58.2687481067 c 0
 480.160075272 33.8776175958 480.160075272 33.8776175958 455.762123893 17.6755407525 c 0
 431.364172514 1.47346390921 431.364172514 1.47346390921 403.291200945 -6.65122974165 c 1
 443.117034902 -23.5142719747 443.117034902 -23.5142719747 443.998583369 -72.8809861103 c 0
 445.071930928 -117.961583588 445.071930928 -117.961583588 397.333793098 -143.421923764 c 0
 391.149968219 -146.685609117 391.149968219 -146.685609117 384.623624227 -149.461722133 c 0
 378.097280234 -152.237835149 378.097280234 -152.237835149 371.246000373 -154.520062414 c 0
 364.394720512 -156.802289678 364.394720512 -156.802289678 357.213489306 -158.598417901 c 0
 350.032258101 -160.394546123 350.032258101 -160.394546123 342.523846379 -161.702297135 c 0
 335.015434658 -163.010048146 335.015434658 -163.010048146 327.190626856 -163.832904394 c 0
 319.365819054 -164.655760642 319.365819054 -164.655760642 311.212573583 -164.995479203 c 0
 214.444911379 -169.113252063 214.444911379 -169.113252063 177.936921104 -115.915894805 c 0
 168 -102.666666667 168 -102.666666667 168 -83 c 0
 168 -34 168 -34 211 -34 c 0
 214.24267373 -34 214.24267373 -34 217.376199438 -34.6432321558 c 0
 220.509725146 -35.2864643115 220.509725146 -35.2864643115 223.44917157 -36.5414298322 c 0
 226.388617993 -37.7963953529 226.388617993 -37.7963953529 229.14091484 -39.6312647501 c 0
 231.893211687 -41.4661341473 231.893211687 -41.4661341473 234.433117665 -43.8649342373 c 0
 239.556395061 -48.7035851114 239.556395061 -48.7035851114 242.27819753 -54.2985603097 c 0
 245 -59.893535508 245 -59.893535508 245 -66 c 0
 245 -68.7409473772 245 -68.7409473772 244.177237644 -72.0178430935 c 0
 243.354475287 -75.2947388098 243.354475287 -75.2947388098 241.681645888 -79.7556172079 c 0
 240.328503546 -83.3639967849 240.328503546 -83.3639967849 239.664251773 -86.2481287961 c 0
 239 -89.1322608072 239 -89.1322608072 239 -91 c 0
 239 -108.228761792 239 -108.228761792 256.6499947 -119.26000848 c 0
 275.185056216 -130.844421928 275.185056216 -130.844421928 301.457762449 -128.029489117 c 0
 308.984965688 -127.208339673 308.984965688 -127.208339673 315.276726393 -125.696949295 c 0
 321.568487099 -124.185558917 321.568487099 -124.185558917 326.662405356 -121.99224161 c 0
 331.756323613 -119.798924302 331.756323613 -119.798924302 335.698527987 -116.881050895 c 0
 339.64073236 -113.963177488 339.64073236 -113.963177488 342.467592351 -110.374511621 c 0
 345.294452342 -106.785845754 345.294452342 -106.785845754 347.053409138 -102.435278647 c 0
 348.812365934 -98.0847115403 348.812365934 -98.0847115403 349.538476413 -93.0744864434 c 0
 350.264586891 -88.0642613465 350.264586891 -88.0642613465 350.006522824 -82.2578198441 c 0
 346.283030639 -18.9584526911 346.283030639 -18.9584526911 237.955753945 -17.9998042248 c 2
 233 -17.9559479952 l 1
 233 20.765048437 l 1
 238.707106781 19.9497474683 l 2
 256.041365428 17.4734248044 256.041365428 17.4734248044 272.366010045 16.2367124022 c 0
 288.690654662 15 288.690654662 15 304 15 c 0
 362.980522304 15 362.980522304 15 409.022708249 34.5924195509 c 0
 443.692310975 49.5196096136 443.692310975 49.5196096136 461.617372845 78.4378181186 c 0
 479.542434715 107.356026624 479.542434715 107.356026624 481.00243962 151.156173762 c 0
 481.487999461 166.694088689 481.487999461 166.694088689 479.208700407 180.936916216 c 0
 476.929401352 195.179743742 476.929401352 195.179743742 471.865219626 208.197744916 c 0
 466.8010379 221.215746091 466.8010379 221.215746091 458.960488611 233.012369479 c 0
 451.119939322 244.808992866 451.119939322 244.808992866 440.464466094 255.464466094 c 0
 391.839729472 304.089202716 391.839729472 304.089202716 301.786779503 308.004548367 c 0
 141.333158575 314.853178528 141.333158575 314.853178528 103.621475123 220.090486778 c 0
 100.800248516 213.507624695 100.800248516 213.507624695 99.4001242582 206.043896446 c 0
 98 198.580168197 98 198.580168197 98 190 c 0
 98 142.369395638 98 142.369395638 129.17896882 116.85933024 c 0
 168.717596552 84.0711999256 168.717596552 84.0711999256 217.901998448 86 c 0
 226.623863173 86 226.623863173 86 240.781640809 87.2893247585 c 1
245 158 m 0
 245 138.226812024 245 138.226812024 258.344823658 126.216470731 c 0
 261.777962068 123.126646162 261.777962068 123.126646162 265.438771516 120.834542654 c 0
 269.099580964 118.542439146 269.099580964 118.542439146 273.04251969 117.021999806 c 0
 276.985458417 115.501560466 276.985458417 115.501560466 281.209294349 114.750780233 c 0
 285.43313028 114 285.43313028 114 290 114 c 0
 294.783869637 114 294.783869637 114 299.088626137 114.824273351 c 0
 303.393382637 115.648546701 303.393382637 115.648546701 307.291345072 117.320461151 c 0
 311.189307507 118.992375601 311.189307507 118.992375601 314.682946507 121.50476656 c 0
 318.176585507 124.017157518 318.176585507 124.017157518 321.344723659 127.411591252 c 0
 334 140.970815903 334 140.970815903 334 158 c 0
 334 164.728436553 334 164.728436553 332.516660657 170.454596618 c 0
 331.033321314 176.180756683 331.033321314 176.180756683 328.085095562 180.965380915 c 0
 325.13686981 185.750005147 325.13686981 185.750005147 320.655176342 189.783529269 c 0
 313.798927137 195.954153553 313.798927137 195.954153553 305.961752055 198.977076776 c 0
 298.124576972 202 298.124576972 202 289 202 c 0
 269.226812024 202 269.226812024 202 257.216470731 188.655176342 c 0
 245 175.081319974 245 175.081319974 245 158 c 0
EndSplineSet
EndChar
StartChar: v_ii
Encoding: 3466 3466 106
Width: 528
GlyphClass: 2
Flags: W
LayerCount: 2
Back
Fore
SplineSet
181 608 m 0
 186.762106944 608 186.762106944 608 192.284521638 607.175838555 c 0
 197.806936331 606.35167711 197.806936331 606.35167711 203.04915931 604.712914774 c 0
 208.291382288 603.074152438 208.291382288 603.074152438 213.255442234 600.630234683 c 0
 218.219502179 598.186316928 218.219502179 598.186316928 222.8848205 594.941978244 c 0
 227.550138821 591.697639561 227.550138821 591.697639561 231.898823326 587.667151483 c 0
 242.846417723 577.520600579 242.846417723 577.520600579 248.423208861 565.006705114 c 0
 254 552.492809649 254 552.492809649 254 538 c 0
 254 524.558327286 254 524.558327286 248.985660309 512.496567738 c 0
 243.971320619 500.434808189 243.971320619 500.434808189 234.127318493 490.05869784 c 0
 214.148553875 469 214.148553875 469 184 469 c 0
 169.609090611 469 169.609090611 469 156.930447734 473.990507072 c 0
 144.251804857 478.981014144 144.251804857 478.981014144 133.604790092 488.829502802 c 0
 112 508.813933637 112 508.813933637 112 540 c 0
 112 552.9670213 112 552.9670213 117.020731065 564.77284341 c 0
 122.04146213 576.578665519 122.04146213 576.578665519 131.872681507 586.94130216 c 0
 138.475031203 593.900535622 138.475031203 593.900535622 146.194214742 598.589841167 c 0
 153.913398281 603.279146711 153.913398281 603.279146711 162.642478374 605.639573356 c 0
 171.371558468 608 171.371558468 608 181 608 c 0
174.808884666 430.494372662 m 0
 239.172190506 462.18092323 239.172190506 462.18092323 307.63663603 523.699700367 c 0
 312.705265506 528.307545345 312.705265506 528.307545345 322.208011637 540.303514073 c 0
 331.710757769 552.299482801 331.710757769 552.299482801 344.924097959 570.896035661 c 0
 354.081044436 583.783589962 354.081044436 583.783589962 361.489767133 593.42392795 c 0
 368.89848983 603.064265939 368.89848983 603.064265939 374.994534261 609.960721333 c 0
 381.090578693 616.857176727 381.090578693 616.857176727 385.758133083 620.806645827 c 0
 389.959270756 624.407620975 389.959270756 624.407620975 395.348444608 626.203810487 c 0
 400.73761846 628 400.73761846 628 407 628 c 0
 436.714525402 628 436.714525402 628 437.989889024 606.318818416 c 0
 438.762365178 595.117914183 438.762365178 595.117914183 431.504942085 581.529405753 c 0
 424.247518991 567.940897323 424.247518991 567.940897323 410.138317114 552.758603953 c 0
 396.029115237 537.576310584 396.029115237 537.576310584 374.226758246 519.180571872 c 0
 361.742048615 508.633144771 361.742048615 508.633144771 348.652365912 498.447583385 c 0
 335.562683209 488.262022 335.562683209 488.262022 322.239227601 478.710402037 c 0
 308.915771993 469.158782075 308.915771993 469.158782075 295.377535583 460.222088337 c 0
 281.839299173 451.285394599 281.839299173 451.285394599 268.252935974 443.076701557 c 1
 275.191663978 442.850214886 275.191663978 442.850214886 281.223920058 442.084204337 c 0
 287.256176139 441.318193788 287.256176139 441.318193788 293.7815218 439.948754708 c 0
 378.778643315 431.405645972 378.778643315 431.405645972 433.245573598 369.812201446 c 0
 488.022582634 307.868107116 488.022582634 307.868107116 486.999759725 221.950982748 c 0
 485.977027206 117.632265763 485.977027206 117.632265763 396.180907914 43.1423031684 c 0
 337.795561518 -5 337.795561518 -5 248 -5 c 0
 151.964998254 -5 151.964998254 -5 89.0083807396 56.4210902581 c 0
 26 117.892681224 26 117.892681224 26 213 c 0
 26 295.831539257 26 295.831539257 71.1830685732 349.229711207 c 0
 115.869397388 402.04082708 115.869397388 402.04082708 174.808884666 430.494372662 c 0
122.705638406 347.643178102 m 0
 85.0658254221 306.142871479 85.0658254221 306.142871479 86.9963720639 249.191745546 c 0
 89.8982780054 181.480606911 89.8982780054 181.480606911 133.628699133 146.400159193 c 0
 177.757664703 111 177.757664703 111 245 111 c 0
 319.860533726 111 319.860533726 111 360.394476449 153.464130471 c 0
 408 203.012736616 408 203.012736616 408 268 c 0
 408 286.138235893 408 286.138235893 404.250889841 302.669902116 c 0
 400.501779683 319.201568338 400.501779683 319.201568338 392.9844563 334.215379581 c 0
 385.467132918 349.229190823 385.467132918 349.229190823 374.139012866 362.822934885 c 0
 355.363191896 385.931637617 355.363191896 385.931637617 327.971065892 397.465818809 c 0
 300.578939889 409 300.578939889 409 264 409 c 0
 178.218953456 409 178.218953456 409 122.705638406 347.643178102 c 0
445 537 m 0
 473.996375907 537 473.996375907 537 495.44374731 516.624997168 c 0
 517 496.146557112 517 496.146557112 517 467 c 0
 517 440.045080828 517 440.045080828 497.674017223 419.108599486 c 0
 478.189156159 398 478.189156159 398 448 398 c 0
 419.003624093 398 419.003624093 398 397.55625269 418.375002832 c 0
 376 438.853442888 376 438.853442888 376 468 c 0
 376 481.441672714 376 481.441672714 381.014339691 493.503432262 c 0
 386.028679381 505.565191811 386.028679381 505.565191811 395.872681507 515.94130216 c 0
 405.784338286 526.38872417 405.784338286 526.38872417 418.164108828 531.694362085 c 0
 430.543879369 537 430.543879369 537 445 537 c 0
150 540 m 0
 150 532.97592283 150 532.97592283 152.56595038 527.095752746 c 0
 155.13190076 521.215582662 155.13190076 521.215582662 160.459526816 516.109941026 c 0
 171.009030495 506 171.009030495 506 185 506 c 0
 198.993713426 506 198.993713426 506 209.04388677 515.613209286 c 0
 219 525.136448027 219 525.136448027 219 539 c 0
 219 552.731158867 219 552.731158867 208.707476961 561.737116526 c 0
 198.121324419 571 198.121324419 571 184 571 c 0
 170.878675581 571 170.878675581 571 160.292523039 561.737116526 c 0
 150 552.731158867 150 552.731158867 150 540 c 0
413 468 m 0
 413 454.136448027 413 454.136448027 422.95611323 444.613209286 c 0
 433.006286574 435 433.006286574 435 447 435 c 0
 460.928932188 435 460.928932188 435 470.964466094 445.035533906 c 0
 481 455.071067812 481 455.071067812 481 468 c 0
 481 481.731158867 481 481.731158867 470.707476961 490.737116526 c 0
 460.121324419 500 460.121324419 500 447 500 c 0
 432.939243573 500 432.939243573 500 422.87134682 490.80757253 c 0
 413 481.794603695 413 481.794603695 413 468 c 0
EndSplineSet
EndChar
StartChar: v_uu
Encoding: 3468 3468 108
Width: 965
GlyphClass: 2
Flags: W
LayerCount: 2
Back
Fore
SplineSet
347 266 m 2
 263.014428455 266 263.014428455 266 211.966229373 216.896494216 c 0
 161.060279311 167.929818443 161.060279311 167.929818443 162.997610387 99.1545652697 c 0
 164.468135971 51.6075713807 164.468135971 51.6075713807 181.746174766 14.1292319748 c 0
 199.024213561 -23.3491074311 199.024213561 -23.3491074311 232.18783857 -51.1480283944 c 0
 288.855482559 -98.045388937 288.855482559 -98.045388937 366.113607027 -100.001290822 c 0
 452.270163483 -101.959394378 452.270163483 -101.959394378 510.340910374 -54.62441582 c 0
 568.029972113 -7.60055877244 568.029972113 -7.60055877244 569.000400529 69.0632860693 c 2
 569.062890578 74 l 1
 607.947645422 74 l 1
 607.999723015 69.0526286633 l 2
 608.510843034 20.4962268243 608.510843034 20.4962268243 589.257223778 -20.5794383642 c 0
 570.003604521 -61.6551035526 570.003604521 -61.6551035526 531.262615677 -94.7888440118 c 0
 457.996583643 -157.879038263 457.996583643 -157.879038263 350.324517575 -164.98945772 c 0
 225.474430945 -173.109788558 225.474430945 -173.109788558 130.986986668 -101.990206845 c 0
 31.0843941779 -26.5535553723 31.0843941779 -26.5535553723 27.0033428671 92.8171954707 c 0
 23.927825345 176.881341073 23.927825345 176.881341073 75.3447236588 232.411591252 c 0
 104.089407503 263.209466799 104.089407503 263.209466799 150.098835614 282.124453911 c 0
 196.0123261 301 196.0123261 301 241 301 c 2
 501.609930742 301 l 1
 500.471375045 311.119551007 500.471375045 311.119551007 496.833792351 320.655679167 c 0
 493.196209657 330.191807326 493.196209657 330.191807326 486.839748528 339.726499019 c 0
 472.652807011 361.006911295 472.652807011 361.006911295 457.96930767 367.430942257 c 0
 449.228060456 371.315941018 449.228060456 371.315941018 441.23745135 373.901255319 c 0
 433.246842244 376.48656962 433.246842244 376.48656962 426.225481723 377.74328481 c 0
 419.204121201 379 419.204121201 379 413 379 c 0
 407.228068637 379 407.228068637 379 401.224923459 377.728421491 c 0
 395.221778281 376.456842982 395.221778281 376.456842982 389.12150872 373.978594451 c 0
 383.021239159 371.50034592 383.021239159 371.50034592 376.73420437 367.813550787 c 0
 374.285209001 366.180887208 374.285209001 366.180887208 368.776111863 360.928352199 c 0
 363.267014726 355.67581719 363.267014726 355.67581719 355.589090309 347.518022498 c 0
 342.644163653 334.573095842 342.644163653 334.573095842 321.509285375 328.232632358 c 0
 314.811388301 326 314.811388301 326 308 326 c 0
 305.067282654 326 305.067282654 326 302.217646808 326.312528596 c 0
 299.368010962 326.625057191 299.368010962 326.625057191 296.621022033 327.245987545 c 0
 293.874033105 327.866917899 293.874033105 327.866917899 291.224668742 328.796513819 c 0
 288.575304379 329.726109739 288.575304379 329.726109739 286.042217575 330.957836912 c 0
 283.509130771 332.189564085 283.509130771 332.189564085 281.088272425 333.726254292 c 0
 278.667414079 335.262944499 278.667414079 335.262944499 276.376524762 337.095655953 c 0
 269.337902435 342.726553815 269.337902435 342.726553815 265.668951217 350.064635515 c 0
 262 357.402717215 262 357.402717215 262 366 c 0
 262 372.811124159 262 372.811124159 264.247523374 379.553694282 c 0
 270.343400588 398.199906935 270.343400588 398.199906935 284.733599987 410.825374544 c 0
 299.123799385 423.450842154 299.123799385 423.450842154 320.875954025 429.884541989 c 0
 342.628108666 436.318241824 342.628108666 436.318241824 371.863065081 436.998124531 c 0
 409.265552355 438.02285021 409.265552355 438.02285021 440.524625361 426.397472036 c 0
 471.783698366 414.772093863 471.783698366 414.772093863 496.498123963 390.572552132 c 0
 546.061287058 342.041954936 546.061287058 342.041954936 543.997900924 270.855133307 c 2
 543.857172422 266 l 1
 347 266 l 2
753.750855859 271.433978724 m 0
 745.189760147 242.540280696 745.189760147 242.540280696 716.301585822 227.561227343 c 0
 688.143089171 212.960525375 688.143089171 212.960525375 655.862590136 214.001831796 c 0
 609.682920211 215.051369749 609.682920211 215.051369749 580.733415284 248.211711756 c 0
 552 281.124532899 552 281.124532899 552 328 c 0
 552 403.195861906 552 403.195861906 590.616873553 438.681637604 c 2
 592.051562043 440 l 1
 646.365557241 440 l 1
 631.658840663 430.765550056 l 2
 621.638528303 424.473726016 621.638528303 424.473726016 614.08540445 415.105311478 c 0
 606.532280596 405.73689694 606.532280596 405.73689694 601.372849418 393.118175243 c 0
 596.21341824 380.499453545 596.21341824 380.499453545 593.60670912 364.438227747 c 0
 591 348.377001949 591 348.377001949 591 329 c 0
 591 321.140441722 591 321.140441722 592.13800066 314.135402007 c 0
 593.276001319 307.130362293 593.276001319 307.130362293 595.551713168 300.968378218 c 0
 597.827425016 294.806394143 597.827425016 294.806394143 601.199662977 289.460293442 c 0
 604.571900938 284.114192742 604.571900938 284.114192742 609.080000698 279.490500681 c 0
 618.125858561 270.212697744 618.125858561 270.212697744 629.75727981 265.606348872 c 0
 641.388701059 261 641.388701059 261 656 261 c 0
 665.593127717 261 665.593127717 261 673.637627475 264.240135837 c 0
 681.682127233 267.480271674 681.682127233 267.480271674 688.524889516 274.09494188 c 0
 695.340421481 280.683289447 695.340421481 280.683289447 698.670210741 288.563814832 c 0
 702 296.444340217 702 296.444340217 702 306 c 0
 702 324.012106822 702 324.012106822 686.364934237 340.566882335 c 2
 685.21089728 341.788803819 l 1
 685.029277685 343.459704096 l 2
 679.754402093 391.988559543 679.754402093 391.988559543 714.64543338 423.707678896 c 0
 737.073788285 444 737.073788285 444 794 444 c 0
 825.556453202 444 825.556453202 444 850.289033209 425.582116242 c 0
 875.021613216 407.164232484 875.021613216 407.164232484 892.486749831 371.206598277 c 0
 923.014375641 309.13375913 923.014375641 309.13375913 921.999677201 226.943185486 c 0
 920.984359913 137.595264175 920.984359913 137.595264175 883.306335718 74.4591155245 c 0
 861.756014696 37.5157080578 861.756014696 37.5157080578 831.534593417 18.7578540289 c 0
 801.313172139 0 801.313172139 0 763 0 c 0
 713.64953247 0 713.64953247 0 683.149892195 36.8099106762 c 0
 653 73.1977116018 653 73.1977116018 653 127 c 0
 653 136.26859535 653 136.26859535 654.028000444 145.777604684 c 0
 655.056000888 155.286614018 655.056000888 155.286614018 657.107251075 165.030052405 c 2
 657.943029516 169 l 1
 694.184936094 169 l 1
 692.88901207 162.952354556 l 2
 690 149.470298228 690 149.470298228 690 137 c 0
 690 99.7194045449 690 99.7194045449 708.44251153 76.0751589935 c 0
 726.441135545 53 726.441135545 53 753 53 c 0
 755.793011823 53 755.793011823 53 758.586189194 53.2327649348 c 0
 761.379366566 53.4655298696 761.379366566 53.4655298696 764.178005063 53.9319696192 c 0
 770.461108186 54.9791534729 770.461108186 54.9791534729 776.164968861 59.1708940823 c 0
 781.868829536 63.3626346916 781.868829536 63.3626346916 787.089530882 70.8736555099 c 0
 792.310232228 78.3846763281 792.310232228 78.3846763281 796.887699337 89.8077091222 c 0
 801.465166447 101.230741916 801.465166447 101.230741916 805.136093472 116.159178485 c 0
 816.992589261 167.537326903 816.992589261 167.537326903 816.0009243 242.903863929 c 0
 813.095229375 394 813.095229375 394 775 394 c 0
 761.64829534 394 761.64829534 394 752.182059884 392.780176921 c 0
 742.715824427 391.560353842 742.715824427 391.560353842 738.109508246 389.46657376 c 0
 729.651703304 385.439047597 729.651703304 385.439047597 725.592685084 376.508486016 c 0
 721.533666865 367.577924434 721.533666865 367.577924434 721.865098454 353.043436682 c 1
 758 332.466617746 758 332.466617746 758 295 c 0
 758 289.038431176 758 289.038431176 756.943197223 283.172570508 c 0
 755.886394447 277.30670984 755.886394447 277.30670984 753.750855859 271.433978724 c 0
EndSplineSet
EndChar
StartChar: v_iruu
Encoding: 3470 3470 110
Width: 1140
GlyphClass: 2
Flags: W
LayerCount: 2
Back
Fore
SplineSet
290.74392624 274.006561683 m 2
 213.183460468 277.984021466 213.183460468 277.984021466 189.574600451 275.032913964 c 0
 174.245926548 273.402203974 174.245926548 273.402203974 160.924856692 269.932958553 c 0
 147.603786836 266.463713131 147.603786836 266.463713131 136.439014957 261.249625539 c 0
 125.274243078 256.035537947 125.274243078 256.035537947 116.058403116 249.04421108 c 0
 85.2480027889 224.769350216 85.2480027889 224.769350216 88.9790074466 187.459303639 c 0
 90.8413822226 165.421202124 90.8413822226 165.421202124 103.244791984 150.779109325 c 0
 115.648201746 136.137016527 115.648201746 136.137016527 139.794275666 128.568508263 c 0
 163.940349585 121 163.940349585 121 200 121 c 0
 233.85625558 121 233.85625558 121 261.878336164 134.527900972 c 0
 277.460322311 141.610621948 277.460322311 141.610621948 284.730161155 150.644452294 c 0
 292 159.678282641 292 159.678282641 292 171 c 2
 292 203 l 1
 334 203 l 1
 334 171 l 2
 334 151.339595371 334 151.339595371 371.896829928 135.626275645 c 0
 407.974976518 121 407.974976518 121 450 121 c 0
 486.85625558 121 486.85625558 121 514.742629697 134.462387505 c 0
 530.813697944 142.970600106 530.813697944 142.970600106 540.060689508 154.53813341 c 0
 549.307681072 166.105666713 549.307681072 166.105666713 552.10099218 181.003325952 c 0
 554 189.548861143 554 189.548861143 554 198 c 0
 554 233.609985938 554 233.609985938 527.359903659 255.109011055 c 0
 518.257967904 262.454432892 518.257967904 262.454432892 507.842025918 267.773682403 c 0
 497.426083932 273.092931913 497.426083932 273.092931913 485.593142058 276.412147664 c 0
 473.760200183 279.731363415 473.760200183 279.731363415 460.534254506 281.021699579 c 0
 438.452356216 282.999667868 438.452356216 282.999667868 417.028436652 282.888458459 c 0
 395.604517089 282.77724905 395.604517089 282.77724905 374.859106973 280.582302694 c 0
 354.113696857 278.387356337 354.113696857 278.387356337 334.042169973 274.109817821 c 2
 328.388931937 272.905029387 l 1
 328.010715255 278.672833787 l 2
 325.964843549 309.872377295 325.964843549 309.872377295 331.89885644 336.188157767 c 0
 337.832869331 362.50393824 337.832869331 362.50393824 351.826136604 383.752973729 c 0
 362.594138752 400.078654405 362.594138752 400.078654405 377.166903543 411.476223688 c 0
 391.739668333 422.873792971 391.739668333 422.873792971 409.891091262 429.244831809 c 0
 428.042514191 435.615870646 428.042514191 435.615870646 449.709792392 436.991570849 c 0
 539.685048634 442.222690398 539.685048634 442.222690398 561.827174224 366.306831231 c 0
 564 357.615528128 564 357.615528128 564 349 c 0
 564 329.589653178 564 329.589653178 553.763006262 312.88718971 c 0
 547.360590913 302.441143615 547.360590913 302.441143615 539.928846333 296.925683588 c 1
 604.232645379 260.762393954 604.232645379 260.762393954 611.975875001 178.490579225 c 0
 615.571459478 142.021079525 615.571459478 142.021079525 605.102498507 109.83870601 c 0
 594.633537537 77.6563324944 594.633537537 77.6563324944 570.238973891 50.1803502835 c 0
 521.247074107 -5 521.247074107 -5 444 -5 c 0
 351.334830936 -5 351.334830936 -5 312.321126505 69.7169590951 c 1
 277.561159824 -6 277.561159824 -6 178 -6 c 0
 111.776781339 -6 111.776781339 -6 68.7875449265 41.6507198793 c 0
 26 89.077878111 26 89.077878111 26 153 c 0
 26 157.477368172 26 157.477368172 26.2275770328 161.926053452 c 0
 26.4551540655 166.374738732 26.4551540655 166.374738732 26.9134093028 170.836462169 c 0
 27.3716645402 175.298185606 27.3716645402 175.298185606 28.0635418496 179.795388117 c 0
 44.5885164033 277.91242453 44.5885164033 277.91242453 142.583269295 306.79508854 c 0
 185.60985742 319.507489577 185.60985742 319.507489577 254.47222423 313.530661748 c 1
 251.359569227 343.625489054 251.359569227 343.625489054 244.692956925 354.458734046 c 0
 233.127587543 374.920541414 233.127587543 374.920541414 199.067555233 374 c 0
 172.342191319 374 172.342191319 374 161.620084162 348.088241036 c 0
 148.275308778 315.838367191 148.275308778 315.838367191 102.729838151 318.007199126 c 0
 90.6474914485 318.739462562 90.6474914485 318.739462562 82.0032689951 323.552801349 c 0
 73.3590465416 328.366140136 73.3590465416 328.366140136 68.5494897 337.003001039 c 0
 63.7399328583 345.639861941 63.7399328583 345.639861941 63.0086281341 357.70638989 c 0
 60.8450240627 394.487659105 60.8450240627 394.487659105 95.12411624 418.590145792 c 0
 128.641626724 442.157145351 128.641626724 442.157145351 181.48944135 436.975987054 c 0
 244.973290609 430.731674012 244.973290609 430.731674012 274.240767391 382.649390728 c 0
 300.095317157 342.316293093 300.095317157 342.316293093 295.989626545 278.67808861 c 2
 295.671933304 273.753843372 l 1
 290.74392624 274.006561683 l 2
370.526313622 316.221488718 m 1
 397.082302553 321 397.082302553 321 435.054341407 321 c 0
 478.637044292 320.052549937 478.637044292 320.052549937 504.493392916 311.800234996 c 1
 516 325.651998191 516 325.651998191 516 340 c 0
 516 351.202087687 516 351.202087687 510.709387796 360.022057367 c 0
 505.418775592 368.842027047 505.418775592 368.842027047 494.388547492 375.73591961 c 0
 485.040000856 381.345047592 485.040000856 381.345047592 474.198555721 384.172523796 c 0
 463.357110586 387 463.357110586 387 451 387 c 0
 378.083185849 387 378.083185849 387 370.526313622 316.221488718 c 1
644.369881731 237 m 1
 609.15147985 237 l 1
 609.002365185 241.846226621 l 2
 606.95275871 308.458437039 606.95275871 308.458437039 636.854639356 352.795708341 c 0
 652.010039772 375.267508959 652.010039772 375.267508959 673.94942853 386.633754479 c 0
 695.888817287 398 695.888817287 398 724 398 c 0
 755.957829419 398 755.957829419 398 780.700182699 380.889609723 c 0
 805.442535979 363.779219445 805.442535979 363.779219445 822.472135955 330.236067977 c 0
 836.769995828 301.640348231 836.769995828 301.640348231 843.637952666 266.794077481 c 0
 850.505909503 231.947806731 850.505909503 231.947806731 850 190.969136978 c 0
 850 156.625998155 850 156.625998155 841.444360357 99.7561581764 c 0
 833 43.6259981553 833 43.6259981553 833 23 c 0
 833 19.416178286 833 19.416178286 833.108746794 16.0506360006 c 0
 833.217493589 12.6850937152 833.217493589 12.6850937152 833.432669887 9.56570186635 c 0
 833.647846186 6.44631001754 833.647846186 6.44631001754 833.969418673 3.55215763037 c 2
 834.586325077 -2 l 1
 785.453877041 -2 l 1
 783.956319578 0.0591415116248 l 2
 777.715645143 8.64006886016 777.715645143 8.64006886016 771.129547774 9.0078204899 c 0
 767.270989871 8.75270922356 767.270989871 8.75270922356 747.779976638 1.32756132536 c 0
 725.804671674 -7.04398342294 725.804671674 -7.04398342294 703.709048981 -5.99181091375 c 0
 688.309787872 -4.92979290625 688.309787872 -4.92979290625 674.057504378 1.27151114814 c 0
 659.805220884 7.47281520254 659.805220884 7.47281520254 646.739803656 18.7090740184 c 0
 620.517885021 41.2599240447 620.517885021 41.2599240447 613.132914158 71.8548033314 c 0
 609 89.4196885043 609 89.4196885043 609 106 c 0
 609 180.31009942 609 180.31009942 678.030403507 209.59572515 c 0
 711.817651896 224.07597446 711.817651896 224.07597446 755.586898415 224.948335206 c 1
 754.587502007 237.338085539 754.587502007 237.338085539 753.747742226 247.457948021 c 0
 752.907982444 257.577810503 752.907982444 257.577810503 752.176897648 266.020871187 c 0
 751.445812852 274.463931872 751.445812852 274.463931872 750.844968382 280.96098061 c 0
 750.244123913 287.458029348 750.244123913 287.458029348 749.734338463 292.438016491 c 0
 749.224553014 297.418003634 749.224553014 297.418003634 748.814826237 300.786797115 c 0
 748.405099459 304.155590596 748.405099459 304.155590596 748.068030381 306.178005063 c 1
 753.55440102 307.09240017 753.55440102 307.09240017 727.762504004 335.839067922 c 0
 716.216566013 348.145687561 716.216566013 348.145687561 712.149055613 349.002191514 c 0
 677.023077893 348.077823679 677.023077893 348.077823679 658.378515459 313.585383176 c 0
 649.724091032 298.199739751 649.724091032 298.199739751 646.128191216 280.463002197 c 0
 642.5322914 262.726264643 642.5322914 262.726264643 643.987293499 242.35623525 c 2
 644.369881731 237 l 1
706.195265328 180.138930168 m 1
 662.195128468 167.032506422 662.195128468 167.032506422 652.857525084 127.814572209 c 0
 650 116.384471872 650 116.384471872 650 106 c 0
 650 95.8305036637 650 95.8305036637 651.884276401 86.8659316817 c 0
 653.768552802 77.9013596997 653.768552802 77.9013596997 657.496988979 70.1549606304 c 0
 661.225425155 62.4085615611 661.225425155 62.4085615611 666.833788365 55.7096832823 c 0
 683.187787691 36.1757396429 683.187787691 36.1757396429 707.64376475 37.9872934992 c 0
 720.866529769 38.9317767148 720.866529769 38.9317767148 732.643046618 43.6423834544 c 0
 739.515250806 46.3912651297 739.515250806 46.3912651297 744.05197333 47.6956325648 c 0
 748.588695853 49 748.588695853 49 752 49 c 0
 753.524711682 49 753.524711682 49 756.012984963 48.6754426155 c 1
 752 79.8720387663 752 79.8720387663 752 120 c 0
 752 135.252673078 752 135.252673078 754.720064475 187.774884228 c 1
 746.740622174 187.161080974 746.740622174 187.161080974 734.920718222 185.299327419 c 0
 723.100814271 183.437573864 723.100814271 183.437573864 706.195265328 180.138930168 c 1
891.369881731 239 m 1
 857.15147985 239 l 1
 857.002365185 243.846226621 l 2
 854.953439967 310.436296202 854.953439967 310.436296202 884.332307939 354.762307529 c 0
 914.315429693 400 914.315429693 400 972 400 c 0
 1036.11153713 400 1036.11153713 400 1069.47103575 332.238518435 c 0
 1083.76250082 304.165997763 1083.76250082 304.165997763 1090.63407343 269.299243445 c 0
 1097.50564605 234.432489126 1097.50564605 234.432489126 1097 192.969513329 c 0
 1097 158.647774342 1097 158.647774342 1088.95061988 101.799027273 c 0
 1081 45.6477743422 1081 45.6477743422 1081 26 c 0
 1081 14.2769256907 1081 14.2769256907 1081.96941867 5.55215763037 c 2
 1082.58632508 -4.89386309255e-13 l 1
 1033.45387704 0 l 1
 1031.95631958 2.05914151162 l 2
 1025.71350025 10.6430180819 1025.71350025 10.6430180819 1018.13907929 11.0084506725 c 0
 1014.27098987 10.7527092236 1014.27098987 10.7527092236 994.779976638 3.32756132536 c 0
 972.804671674 -5.04398342294 972.804671674 -5.04398342294 950.702927702 -3.99151942429 c 0
 920.993896423 -1.86944576153 920.993896423 -1.86944576153 894.739803656 20.7090740184 c 0
 868.517885021 43.2599240447 868.517885021 43.2599240447 861.132914158 73.8548033314 c 0
 857 91.4196885043 857 91.4196885043 857 109 c 0
 857 144.884553477 857 144.884553477 874.400231318 170.720038274 c 0
 891.800462637 196.555523072 891.800462637 196.555523072 926.009476231 211.586756317 c 0
 942.881666144 218.817694851 942.881666144 218.817694851 962.618670679 222.67143627 c 0
 982.355675214 226.525177688 982.355675214 226.525177688 1003.48012366 226.946207088 c 1
 1001.82327236 243.484956344 1001.82327236 243.484956344 1000.63529087 255.268381381 c 0
 999.44730939 267.051806417 999.44730939 267.051806417 998.455146244 276.771687938 c 0
 997.462983098 286.491569459 997.462983098 286.491569459 996.811997953 292.668604114 c 0
 996.161012807 298.845638769 996.161012807 298.845638769 995.719597322 302.771513423 c 0
 995.278181838 306.697388077 995.278181838 306.697388077 995.050252532 308.292893219 c 0
 999.640050046 308.948578578 999.640050046 308.948578578 977.043223186 336.35028864 c 0
 965.061350159 350.144708152 965.061350159 350.144708152 960.149055613 351.002191514 c 0
 948.338070408 350.691376114 948.338070408 350.691376114 938.425511267 346.739056332 c 0
 928.512952127 342.786736551 928.512952127 342.786736551 920.255370033 335.017159923 c 0
 911.997787939 327.247583296 911.997787939 327.247583296 905.357877686 315.548693802 c 0
 888.094316175 284.857917784 888.094316175 284.857917784 890.987293499 244.35623525 c 2
 891.369881731 239 l 1
953.181224655 182.136190524 m 0
 945.515241711 179.900278832 945.515241711 179.900278832 938.961833873 176.968957179 c 0
 932.408426034 174.037635525 932.408426034 174.037635525 926.956376399 170.401345293 c 0
 921.504326764 166.765055062 921.504326764 166.765055062 917.113707612 162.442076215 c 0
 912.723088459 158.119097368 912.723088459 158.119097368 909.361057699 153.059354573 c 0
 905.999026938 147.999611779 905.999026938 147.999611779 903.648723718 142.26460283 c 0
 901.298420497 136.529593882 901.298420497 136.529593882 899.905377536 130.028726729 c 0
 898 119.549150281 898 119.549150281 898 109 c 0
 898 101.356064956 898 101.356064956 899.029977697 94.3678799931 c 0
 900.059955394 87.3796950298 900.059955394 87.3796950298 902.12073644 81.0357472512 c 0
 904.181517487 74.6917994725 904.181517487 74.6917994725 907.248289418 68.978059116 c 0
 910.315061349 63.2643187595 910.315061349 63.2643187595 914.413005271 58.1126178291 c 0
 930.26720611 38.1816224888 930.26720611 38.1816224888 954.64376475 39.9872934992 c 0
 967.866529769 40.9317767148 967.866529769 40.9317767148 979.643046618 45.6423834544 c 0
 986.395806929 48.3434875788 986.395806929 48.3434875788 991.292998689 49.6717437894 c 0
 996.190190448 51 996.190190448 51 1000 51 c 0
 1001.52471168 51 1001.52471168 51 1003.73532803 50.7116587372 c 1
 999 80.6324324185 999 80.6324324185 999 122 c 0
 999 129.518790408 999 129.518790408 999.700599138 146.913725723 c 0
 1000.40119828 164.308661038 1000.40119828 164.308661038 1001.72006448 189.774884228 c 1
 986.218229601 188.582435392 986.218229601 188.582435392 953.181224655 182.136190524 c 0
EndSplineSet
EndChar
StartChar: v_oo
Encoding: 3477 3477 117
Width: 636
GlyphClass: 2
Flags: W
LayerCount: 2
Back
Fore
SplineSet
171.785422906 516.637435208 m 1
 229.570771001 528.691527994 229.570771001 528.691527994 312.271338701 523.992632102 c 0
 405.476674781 518.927124707 405.476674781 518.927124707 454.500074733 490.330141401 c 0
 493.484546564 468.053300355 493.484546564 468.053300355 516.919687861 444.136615059 c 1
 501.119760308 482.192000749 501.119760308 482.192000749 474.265761783 512.674917993 c 0
 467.745805 519.919314418 467.745805 519.919314418 459.919677575 526.64952257 c 0
 452.09355015 533.379730721 452.09355015 533.379730721 442.943131974 539.606844248 c 0
 433.792713799 545.833957774 433.792713799 545.833957774 423.291462946 551.546581055 c 0
 412.790212093 557.259204336 412.790212093 557.259204336 400.99590583 562.419213325 c 0
 353.843514285 583.048384626 353.843514285 583.048384626 311.747681218 585.00633035 c 0
 203.361063382 590.918327687 203.361063382 590.918327687 158.716256391 561.802149214 c 0
 144 552.279865667 144 552.279865667 144 544 c 0
 144 539.533780681 144 539.533780681 147.124784627 536.577922773 c 0
 150.249569253 533.622064864 150.249569253 533.622064864 158.066164163 531.885043773 c 0
 172.107495324 528.876187096 172.107495324 528.876187096 171.785422906 516.637435208 c 1
441.816512975 453.501955685 m 0
 378.79715825 484.02695563 378.79715825 484.02695563 294.863065081 486.001875469 c 0
 222.418321604 487.986662961 222.418321604 487.986662961 166.944236968 477.089967765 c 0
 141.266479348 472.151937453 141.266479348 472.151937453 110.485951263 462.222931889 c 0
 79.7054231782 452.293926324 79.7054231782 452.293926324 43.9230769231 437.384615385 c 2
 37 434.5 l 1
 37 477.640805637 l 1
 40.4649861004 478.758543089 l 2
 71.3712243118 488.728297351 71.3712243118 488.728297351 101.321447963 499.710046023 c 0
 108.903525446 502.334611305 108.903525446 502.334611305 114.112513753 505.138969053 c 0
 119.32150206 507.943326801 119.32150206 507.943326801 120.633791727 509.397912937 c 1
 114.079280977 513.55046012 114.079280977 513.55046012 105.354008857 520.613775646 c 0
 99.4091868452 525.426250608 99.4091868452 525.426250608 96.2045934226 531.07186522 c 0
 93 536.717479833 93 536.717479833 93 543 c 0
 93 548.172249489 93 548.172249489 94.7900071255 553.663304867 c 0
 96.580014251 559.154360245 96.580014251 559.154360245 99.8937782888 564.671530025 c 0
 103.207542327 570.188699806 103.207542327 570.188699806 108.171661411 576.216558694 c 0
 124.041001097 594.730788328 124.041001097 594.730788328 152.76759027 606.781840142 c 0
 181.494179443 618.832891956 181.494179443 618.832891956 223.302073489 624.951120353 c 0
 243.272469623 627.658970676 243.272469623 627.658970676 263.422896691 628.223274267 c 0
 283.573323759 628.787577857 283.573323759 628.787577857 303.933611907 627.210890926 c 0
 324.293900056 625.634203996 324.293900056 625.634203996 344.919536655 621.914826904 c 0
 394.645572324 612.274064887 394.645572324 612.274064887 433.363989377 592.405951323 c 0
 472.082406431 572.53783776 472.082406431 572.53783776 499.695981686 542.367449981 c 0
 541.425843744 496.566381869 541.425843744 496.566381869 561.758543089 433.5350139 c 2
 561.834668238 433.299025936 l 2
 565.818746018 414.872666206 565.818746018 414.872666206 570.091481413 396.278468612 c 0
 574.364216808 377.684271019 574.364216808 377.684271019 578.758211201 359.593270367 c 0
 587.082292163 340.006630788 587.082292163 340.006630788 591.041146081 313.212345073 c 0
 595 286.418059358 595 286.418059358 595 251 c 0
 595 155.789628525 595 155.789628525 558.433449944 84.6880034169 c 0
 511.012206758 -5 511.012206758 -5 422 -5 c 0
 383.023145001 -5 383.023145001 -5 350.121474456 8.36630365888 c 0
 317.602252433 21.5497720467 317.602252433 21.5497720467 304.430991769 44.3917618443 c 1
 268.213165932 -9.79513974524 268.213165932 -9.79513974524 182.722649902 -4.99230176603 c 0
 108.026051252 -0.842490729926 108.026051252 -0.842490729926 62.6700877105 77.4996281145 c 0
 20.9258869685 149.788365985 20.9258869685 149.788365985 26.0072886336 242.26987629 c 0
 30.0633517163 317.30704332 30.0633517163 317.30704332 56.5417521302 370.263844148 c 0
 90.9525824914 437 90.9525824914 437 150 437 c 0
 178.980074301 437 178.980074301 437 192.521031483 416.265286907 c 0
 206.061988665 395.530573815 206.061988665 395.530573815 203.994340689 356.762174253 c 0
 203.67512526 350.058650262 203.67512526 350.058650262 204.130896451 343.682715023 c 0
 204.586667642 337.306779783 204.586667642 337.306779783 205.82232902 331.232474375 c 0
 207.057990398 325.158168967 207.057990398 325.158168967 209.072187312 319.391388116 c 0
 211.086384227 313.624607264 211.086384227 313.624607264 213.888857001 308.138747388 c 0
 216.691329775 302.652887511 216.691329775 302.652887511 220.275564553 297.454530973 c 0
 223.859799332 292.256174435 223.859799332 292.256174435 228.240373192 287.318072993 c 0
 254.201720072 258.052554692 254.201720072 258.052554692 294.905646291 258.999157627 c 0
 360.735640104 259.953215508 360.735640104 259.953215508 384.430942257 313.03069233 c 0
 385.632904656 315.735107728 385.632904656 315.735107728 386.594570128 319.391905995 c 0
 387.556235601 323.048704262 387.556235601 323.048704262 388.104455174 326.832271472 c 2
 375.075936012 309.505335261 l 2
 367.461636268 301.713958779 367.461636268 301.713958779 358.513232661 296.478907647 c 0
 349.564829053 291.243856514 349.564829053 291.243856514 339.415998923 288.621928257 c 0
 329.267168792 286 329.267168792 286 318 286 c 0
 308.504902432 286 308.504902432 286 297.92268916 288.116442654 c 0
 293.524149681 289.17815908 293.524149681 289.17815908 289.42141384 290.568093083 c 0
 285.318677999 291.958027086 285.318677999 291.958027086 281.505132031 293.680295617 c 0
 277.691586062 295.402564148 277.691586062 295.402564148 274.178643903 297.4530542 c 0
 270.665701745 299.503544251 270.665701745 299.503544251 267.446926744 301.889038488 c 0
 264.228151743 304.274532725 264.228151743 304.274532725 261.314768916 306.988074711 c 0
 258.40138609 309.701616697 258.40138609 309.701616697 255.787147706 312.752832527 c 0
 253.172909323 315.804048356 253.172909323 315.804048356 250.868863286 319.183315877 c 0
 234.775863343 342.78638246 234.775863343 342.78638246 239.050252532 372.707106781 c 0
 243.343145751 402.757359313 243.343145751 402.757359313 269 422 c 0
 272.002613058 424.251959793 272.002613058 424.251959793 275.06036893 426.209983334 c 0
 278.118124803 428.168006875 278.118124803 428.168006875 281.24006657 429.835530799 c 0
 284.362008337 431.503054724 284.362008337 431.503054724 287.533803602 432.871456134 c 0
 290.705598866 434.239857544 290.705598866 434.239857544 293.939422024 435.310991319 c 0
 297.173245182 436.382125094 297.173245182 436.382125094 300.451423764 437.149055544 c 0
 303.729602347 437.915985993 303.729602347 437.915985993 307.067650822 438.378880788 c 0
 310.405699296 438.841775583 310.405699296 438.841775583 313.782813879 438.995280792 c 0
 361.599255902 441.074256532 361.599255902 441.074256532 393.076008055 416.942079882 c 0
 429.09554249 388.338331948 429.09554249 388.338331948 426.997773475 334.845222071 c 0
 425.950086845 288.747010317 425.950086845 288.747010317 390.368769288 256.30522078 c 0
 378.646406545 245.617184162 378.646406545 245.617184162 365.467782448 238.111627308 c 0
 352.28915835 230.606070454 352.28915835 230.606070454 337.738867153 226.32563002 c 0
 323.188575957 222.045189586 323.188575957 222.045189586 307.344010458 221.011848358 c 0
 287.460395031 219.640564535 287.460395031 219.640564535 269.627383974 222.580277015 c 0
 251.794372917 225.519989495 251.794372917 225.519989495 236.023126482 232.811267605 c 0
 220.251880048 240.102545715 220.251880048 240.102545715 206.742040427 251.707151542 c 0
 186.419840119 269.163400525 186.419840119 269.163400525 176.209920059 292.855316726 c 0
 166 316.547232927 166 316.547232927 166 346 c 0
 166 366.398434322 166 366.398434322 166.149633957 375.958092558 c 0
 166.299267915 385.517750795 166.299267915 385.517750795 166.707374503 387.546947441 c 0
 165.9460979 391.585023336 165.9460979 391.585023336 164.448948057 394.064539088 c 0
 162.951798215 396.544054839 162.951798215 396.544054839 160.484484852 397.945601874 c 0
 158.017171489 399.34714891 158.017171489 399.34714891 154.004812419 400.099466235 c 0
 125.125311561 406.416857048 125.125311561 406.416857048 100.546075865 372.56243807 c 0
 87.7640055376 354.956944977 87.7640055376 354.956944977 81.125281967 333.348687187 c 0
 74.4865583964 311.740429398 74.4865583964 311.740429398 73.9985712711 285.877111754 c 0
 70.1118986005 157.616913624 70.1118986005 157.616913624 160.491374966 128.77239989 c 0
 207.022659415 114.2313735 207.022659415 114.2313735 238.563260572 123.789131426 c 0
 285 137.720153254 285 137.720153254 285 175 c 2
 285 206 l 1
 321 206 l 1
 321 174 l 2
 321 136.982454173 321 136.982454173 378.16567951 123.862462155 c 0
 393.615528128 120 393.615528128 120 409 120 c 0
 467.392718179 120 467.392718179 120 502.892059432 170.850407741 c 0
 535.977276158 218.532043611 535.977276158 218.532043611 535.000629763 285.920644917 c 0
 534.511174594 316.756320539 534.511174594 316.756320539 526.69530904 344.360039368 c 0
 518.879443485 371.963758198 518.879443485 371.963758198 503.786527799 396.307170595 c 0
 477.578804133 436.104084311 477.578804133 436.104084311 441.816512975 453.501955685 c 0
279 365 m 0
 279 362.857010457 279 362.857010457 279.182341105 360.829827536 c 0
 279.364682209 358.802644615 279.364682209 358.802644615 279.732314652 356.877012723 c 0
 280.099947095 354.951380831 280.099947095 354.951380831 280.651328569 353.131985023 c 0
 281.202710044 351.312589214 281.202710044 351.312589214 281.943912256 349.584230178 c 0
 282.685114468 347.855871142 282.685114468 347.855871142 283.611265539 346.224240566 c 0
 284.537416611 344.592609991 284.537416611 344.592609991 285.65791782 343.04150193 c 0
 286.778419028 341.490393869 286.778419028 341.490393869 288.085068925 340.026506645 c 0
 289.391718822 338.562619421 289.391718822 338.562619421 290.897040157 337.16880337 c 0
 297.004952009 331.513329434 297.004952009 331.513329434 303.951666847 328.756664717 c 0
 310.898381686 326 310.898381686 326 319 326 c 0
 340.324081208 326 340.324081208 326 350.839748528 341.773500981 c 0
 358 352.513878189 358 352.513878189 358 365 c 0
 358 373.047779178 358 373.047779178 355.174844179 379.67602234 c 0
 352.349688359 386.304265502 352.349688359 386.304265502 346.534456419 391.895834675 c 0
 342.650379928 395.630523608 342.650379928 395.630523608 338.25231435 398.086754649 c 0
 333.854248772 400.542985689 333.854248772 400.542985689 328.807142288 401.771492844 c 0
 323.760035804 403 323.760035804 403 318 403 c 0
 302.013875519 403 302.013875519 403 290.465543581 391.895834675 c 0
 279 380.87127354 279 380.87127354 279 365 c 0
EndSplineSet
EndChar
StartChar: v_ou
Encoding: 3478 3478 118
Width: 1023
GlyphClass: 2
Flags: W
LayerCount: 2
Back
Fore
SplineSet
175.147491244 393.298305384 m 1
 176.351606044 391.621145484 176.351606044 391.621145484 176.985272428 383.383482494 c 1
 171.010592612 382.839338644 l 1
 175.147491244 393.298305384 l 1
165.688293577 389.204803538 m 0
 165.033920908 391.125579782 165.033920908 391.125579782 164.209949192 392.669450327 c 0
 163.385977475 394.213320872 163.385977475 394.213320872 162.354026116 395.444414184 c 0
 161.322074756 396.675507495 161.322074756 396.675507495 160.056649185 397.586644159 c 0
 158.791223614 398.497780823 158.791223614 398.497780823 157.285060475 399.121490921 c 0
 155.778897337 399.745201019 155.778897337 399.745201019 153.975384822 400.105903522 c 0
 125.125311561 406.416857048 125.125311561 406.416857048 100.546075865 372.56243807 c 0
 87.7640055376 354.956944977 87.7640055376 354.956944977 81.125281967 333.348687187 c 0
 74.4865583964 311.740429398 74.4865583964 311.740429398 73.9985712711 285.877111754 c 0
 70.1118986005 157.616913624 70.1118986005 157.616913624 160.491374966 128.77239989 c 0
 207.022659415 114.2313735 207.022659415 114.2313735 238.563260572 123.789131426 c 0
 285 137.720153254 285 137.720153254 285 175 c 2
 285 206 l 1
 321 206 l 1
 321 174 l 2
 321 136.982454173 321 136.982454173 378.16567951 123.862462155 c 0
 393.615528128 120 393.615528128 120 408 120 c 0
 466.481418958 120 466.481418958 120 504.970590936 171.96038217 c 0
 513.738080811 183.893910056 513.738080811 183.893910056 520.494954156 196.977112304 c 0
 527.251827501 210.060314552 527.251827501 210.060314552 532.011879849 224.331009785 c 0
 536.771932198 238.601705018 536.771932198 238.601705018 539.520367661 254.068395703 c 0
 542.268803124 269.535086387 542.268803124 269.535086387 543.003840246 286.195927833 c 0
 544.9721652 336.388214143 544.9721652 336.388214143 531.486938812 380.523448945 c 0
 518.001712423 424.658683746 518.001712423 424.658683746 489.025363812 462.966398859 c 0
 423.506870658 548.042651164 423.506870658 548.042651164 310.93507041 550.000421603 c 0
 234.904038349 550.987837604 234.904038349 550.987837604 186.794895397 532.333271969 c 0
 181.170488873 530.170038691 181.170488873 530.170038691 175.679137963 527.635417355 c 0
 170.187787053 525.10079602 170.187787053 525.10079602 164.818785932 522.188647524 c 0
 159.449784811 519.276499028 159.449784811 519.276499028 154.21279395 515.990519241 c 0
 148.97580309 512.704539454 148.97580309 512.704539454 143.861252096 509.03800076 c 0
 138.746701101 505.371462066 138.746701101 505.371462066 133.763039319 501.32868808 c 0
 128.779377536 497.285914095 128.779377536 497.285914095 123.918245697 492.859549456 c 0
 119.057113859 488.433184817 119.057113859 488.433184817 114.325750183 483.628180887 c 0
 109.594386507 478.823176957 109.594386507 478.823176957 104.985642853 473.631550627 c 0
 100.376899199 468.439924296 100.376899199 468.439924296 95.896878354 462.867215441 c 2
 94.3957835878 461 l 1
 52.2144447292 461 l 1
 57.9482482096 468.929728218 l 2
 105.784035875 535.085604776 105.784035875 535.085604776 168.072195867 560.613539199 c 0
 223.0064191 584.011449095 223.0064191 584.011449095 313.038758525 582.999849775 c 0
 444.4558678 581.981112494 444.4558678 581.981112494 523.952860506 480.061891076 c 0
 559.487981886 433.866233282 559.487981886 433.866233282 577.243990943 377.301952721 c 0
 595 320.73767216 595 320.73767216 595 254 c 0
 595 205.469350975 595 205.469350975 586.131146028 163.406797601 c 0
 577.262292057 121.344244226 577.262292057 121.344244226 559.462018208 85.7436965275 c 0
 513.058991574 -5 513.058991574 -5 422 -5 c 0
 383.023145001 -5 383.023145001 -5 350.121474456 8.36630365888 c 0
 317.602252433 21.5497720467 317.602252433 21.5497720467 304.430991769 44.3917618443 c 1
 268.213165932 -9.79513974524 268.213165932 -9.79513974524 182.722649902 -4.99230176603 c 0
 108.026051252 -0.842490729926 108.026051252 -0.842490729926 62.6700877105 77.4996281145 c 0
 20.9258869685 149.788365985 20.9258869685 149.788365985 26.0072886336 242.26987629 c 0
 30.0633517163 317.30704332 30.0633517163 317.30704332 56.5417521302 370.263844148 c 0
 90.9525824914 437 90.9525824914 437 150 437 c 0
 178.980074301 437 178.980074301 437 192.521031483 416.265286907 c 0
 206.061988665 395.530573815 206.061988665 395.530573815 203.994340689 356.762174253 c 0
 203.67512526 350.058650262 203.67512526 350.058650262 204.130896451 343.682715023 c 0
 204.586667642 337.306779783 204.586667642 337.306779783 205.82232902 331.232474375 c 0
 207.057990398 325.158168967 207.057990398 325.158168967 209.072187312 319.391388116 c 0
 211.086384227 313.624607264 211.086384227 313.624607264 213.888857001 308.138747388 c 0
 216.691329775 302.652887511 216.691329775 302.652887511 220.275564553 297.454530973 c 0
 223.859799332 292.256174435 223.859799332 292.256174435 228.240373192 287.318072993 c 0
 254.201720072 258.052554692 254.201720072 258.052554692 294.905646291 258.999157627 c 0
 360.735640104 259.953215508 360.735640104 259.953215508 384.430942257 313.03069233 c 0
 385.632904656 315.735107728 385.632904656 315.735107728 386.594570128 319.391905995 c 0
 387.556235601 323.048704262 387.556235601 323.048704262 388.104455174 326.832271472 c 2
 375.075936012 309.505335261 l 2
 367.461636268 301.713958779 367.461636268 301.713958779 358.513232661 296.478907647 c 0
 349.564829053 291.243856514 349.564829053 291.243856514 339.415998923 288.621928257 c 0
 329.267168792 286 329.267168792 286 318 286 c 0
 308.504902432 286 308.504902432 286 297.92268916 288.116442654 c 0
 293.524149681 289.17815908 293.524149681 289.17815908 289.42141384 290.568093083 c 0
 285.318677999 291.958027086 285.318677999 291.958027086 281.505132031 293.680295617 c 0
 277.691586062 295.402564148 277.691586062 295.402564148 274.178643903 297.4530542 c 0
 270.665701745 299.503544251 270.665701745 299.503544251 267.446926744 301.889038488 c 0
 264.228151743 304.274532725 264.228151743 304.274532725 261.314768916 306.988074711 c 0
 258.40138609 309.701616697 258.40138609 309.701616697 255.787147706 312.752832527 c 0
 253.172909323 315.804048356 253.172909323 315.804048356 250.868863286 319.183315877 c 0
 234.775863343 342.78638246 234.775863343 342.78638246 239.050252532 372.707106781 c 0
 243.343145751 402.757359313 243.343145751 402.757359313 269 422 c 0
 272.002613058 424.251959793 272.002613058 424.251959793 275.06036893 426.209983334 c 0
 278.118124803 428.168006875 278.118124803 428.168006875 281.24006657 429.835530799 c 0
 284.362008337 431.503054724 284.362008337 431.503054724 287.533803602 432.871456134 c 0
 290.705598866 434.239857544 290.705598866 434.239857544 293.939422024 435.310991319 c 0
 297.173245182 436.382125094 297.173245182 436.382125094 300.451423764 437.149055544 c 0
 303.729602347 437.915985993 303.729602347 437.915985993 307.067650822 438.378880788 c 0
 310.405699296 438.841775583 310.405699296 438.841775583 313.782813879 438.995280792 c 0
 361.599255902 441.074256532 361.599255902 441.074256532 393.076008055 416.942079882 c 0
 429.09554249 388.338331948 429.09554249 388.338331948 426.997773475 334.845222071 c 0
 425.950086845 288.747010317 425.950086845 288.747010317 390.368769288 256.30522078 c 0
 378.636235684 245.607910729 378.636235684 245.607910729 365.469670387 238.106337845 c 0
 352.30310509 230.60476496 352.30310509 230.60476496 337.745360408 226.324928521 c 0
 323.187615726 222.045092081 323.187615726 222.045092081 307.298867525 221.008869373 c 0
 250.337158669 217.901867071 250.337158669 217.901867071 207.836383034 252.628110579 c 0
 186.52042831 270.044805292 186.52042831 270.044805292 175.760214155 293.008570719 c 0
 165 315.972336146 165 315.972336146 165 344 c 0
 165 380.985297687 165 380.985297687 165.688293577 389.204803538 c 0
279 365 m 0
 279 362.857010457 279 362.857010457 279.182341105 360.829827536 c 0
 279.364682209 358.802644615 279.364682209 358.802644615 279.732314652 356.877012723 c 0
 280.099947095 354.951380831 280.099947095 354.951380831 280.651328569 353.131985023 c 0
 281.202710044 351.312589214 281.202710044 351.312589214 281.943912256 349.584230178 c 0
 282.685114468 347.855871142 282.685114468 347.855871142 283.611265539 346.224240566 c 0
 284.537416611 344.592609991 284.537416611 344.592609991 285.65791782 343.04150193 c 0
 286.778419028 341.490393869 286.778419028 341.490393869 288.085068925 340.026506645 c 0
 289.391718822 338.562619421 289.391718822 338.562619421 290.897040157 337.16880337 c 0
 297.004952009 331.513329434 297.004952009 331.513329434 303.951666847 328.756664717 c 0
 310.898381686 326 310.898381686 326 319 326 c 0
 340.324081208 326 340.324081208 326 350.839748528 341.773500981 c 0
 358 352.513878189 358 352.513878189 358 365 c 0
 358 373.047779178 358 373.047779178 355.174844179 379.67602234 c 0
 352.349688359 386.304265502 352.349688359 386.304265502 346.534456419 391.895834675 c 0
 342.650379928 395.630523608 342.650379928 395.630523608 338.25231435 398.086754649 c 0
 333.854248772 400.542985689 333.854248772 400.542985689 328.807142288 401.771492844 c 0
 323.760035804 403 323.760035804 403 318 403 c 0
 302.013875519 403 302.013875519 403 290.465543581 391.895834675 c 0
 279 380.87127354 279 380.87127354 279 365 c 0
664.30921943 424 m 1
 645.977743197 424 l 1
 612 391.072874149 612 391.072874149 612 322 c 0
 612 278.875467101 612 278.875467101 638.266584716 248.788288244 c 0
 642.005121137 244.505964708 642.005121137 244.505964708 646.036436785 240.830658758 c 0
 650.067752433 237.155352808 650.067752433 237.155352808 654.417638812 234.06705202 c 0
 658.767525191 230.978751233 658.767525191 230.978751233 663.431760087 228.4904975 c 0
 668.095994982 226.002243767 668.095994982 226.002243767 673.09152755 224.100594287 c 0
 678.087060118 222.198944808 678.087060118 222.198944808 683.419099982 220.889933877 c 0
 688.751139845 219.580922946 688.751139845 219.580922946 694.427204323 218.85811536 c 0
 700.103268802 218.135307774 700.103268802 218.135307774 706.137409864 217.998168204 c 0
 735.856910829 217.039474625 735.856910829 217.039474625 761.698414178 230.438772657 c 0
 786.810239853 243.459719304 786.810239853 243.459719304 794.206009436 268.420441648 c 2
 794.249144141 268.566021276 l 2
 798 278.880874888 798 278.880874888 798 289 c 0
 798 321.98524099 798 321.98524099 764.666206902 339.578076236 c 2
 762.174100807 340.893354453 l 1
 762.008628134 343.70638989 l 2
 759.810946589 381.066976161 759.810946589 381.066976161 783.890491754 392.53342624 c 0
 790.284603398 395.439840624 790.284603398 395.439840624 800.315779884 396.719920312 c 0
 810.346956369 398 810.346956369 398 825 398 c 0
 850.544858791 398 850.544858791 398 862.505187066 357.418241026 c 0
 874.465515341 316.836482052 874.465515341 316.836482052 875.999567231 237.065783779 c 0
 877.007497926 160.463050908 877.007497926 160.463050908 864.863906528 107.840821515 c 0
 849.069255451 43.6092404665 849.069255451 43.6092404665 815.821994937 38.0680303808 c 0
 812.620633435 37.5344701306 812.620633435 37.5344701306 809.413810805 37.2672350653 c 0
 806.206988175 37 806.206988175 37 803 37 c 0
 771.558864455 37 771.558864455 37 750.55748847 63.9248410065 c 0
 730 90.2805954551 730 90.2805954551 730 131 c 0
 730 135.978553021 730 135.978553021 730.558994408 142.055757988 c 0
 731.117988817 148.132962956 731.117988817 148.132962956 731.94224509 153 c 1
 716.099623141 153 l 1
 713 136.586086551 713 136.586086551 713 121 c 0
 713 70.8022883982 713 70.8022883982 740.850107805 37.1900893238 c 0
 768.35046753 4 768.35046753 4 813 4 c 0
 884.128148338 4 884.128148338 4 924.693664282 73.5408844755 c 0
 961.015642544 134.404739942 961.015642544 134.404739942 962.000380996 221.061723691 c 0
 962.985623656 300.866379141 962.985623656 300.866379141 933.502459207 360.815480186 c 0
 900.869978155 428 900.869978155 428 844 428 c 0
 826.110761126 428 826.110761126 428 811.849730207 425.894604786 c 0
 797.588699288 423.789209572 797.588699288 423.789209572 787.610367849 419.880582611 c 0
 777.63203641 415.97195565 777.63203641 415.97195565 771.36336397 410.300299633 c 0
 740.946191854 382.648324982 740.946191854 382.648324982 744.804543252 340.175090892 c 1
 750.718839389 333.581561865 750.718839389 333.581561865 754.515445188 327.081433567 c 0
 758.312050988 320.581305269 758.312050988 320.581305269 760.156025494 313.893140216 c 0
 762 307.204975164 762 307.204975164 762 300 c 0
 762 296.190067828 762 296.190067828 761.533666582 292.540221507 c 0
 761.067333164 288.890375187 761.067333164 288.890375187 760.141848479 285.429337802 c 0
 759.216363793 281.968300418 759.216363793 281.968300418 757.830709355 278.68917704 c 0
 756.445054916 275.410053662 756.445054916 275.410053662 754.611181386 272.34063829 c 0
 752.777307856 269.271222918 752.777307856 269.271222918 750.489110338 266.405611647 c 0
 748.200912819 263.540000377 748.200912819 263.540000377 745.475110484 260.90505812 c 0
 729.021602084 245 729.021602084 245 706 245 c 0
 697.826640663 245 697.826640663 245 690.327221791 246.345618785 c 0
 682.827802919 247.691237569 682.827802919 247.691237569 676.043314752 250.372518 c 0
 669.258826585 253.05379843 669.258826585 253.05379843 663.205566204 257.098414761 c 0
 657.152305824 261.143031092 657.152305824 261.143031092 651.919999302 266.509499319 c 0
 641.458186665 277.239563563 641.458186665 277.239563563 636.229093332 291.451552253 c 0
 631 305.663540944 631 305.663540944 631 323 c 0
 631 392.979145976 631 392.979145976 664.30921943 424 c 1
EndSplineSet
EndChar
StartChar: ka
Encoding: 3482 3482 119
Width: 746
GlyphClass: 2
Flags: W
LayerCount: 2
Back
Fore
SplineSet
105.796331541 56.2878609406 m 0
 98.2195140987 67.2321528014 98.2195140987 67.2321528014 89.6267606108 68.0133122094 c 0
 60.2167659407 69.7433118959 60.2167659407 69.7433118959 50.9362056036 12.2038378059 c 2
 49.9766013466 6.25429141297 l 1
 15.4844892044 18.6714517842 l 1
 16.0484184331 22.6941469486 l 2
 31.21658334 130.893723284 31.21658334 130.893723284 103.924097959 233.896035661 c 0
 112.843451235 246.449199532 112.843451235 246.449199532 125.417836393 261.485097249 c 0
 137.992221551 276.520994966 137.992221551 276.520994966 153.698771884 293.470078966 c 0
 169.405322217 310.419162966 169.405322217 310.419162966 188.164007399 329.233905071 c 1
 191.912226426 381.818919216 191.912226426 381.818919216 162.292893219 386.050252532 c 0
 132.200871413 390.34911279 132.200871413 390.34911279 127.936751633 362.205922241 c 0
 125.180084154 346.010500805 125.180084154 346.010500805 121.874079346 334.02923828 c 0
 118.568074537 322.047975755 118.568074537 322.047975755 114.187452606 313.201271195 c 0
 109.806830674 304.354566635 109.806830674 304.354566635 104.373743858 299.309557449 c 0
 92.9186800262 289 92.9186800262 289 72 289 c 0
 44.6581252701 289 44.6581252701 289 33.158893602 302.799078002 c 0
 22 316.189750324 22 316.189750324 22 336 c 0
 22 364.690785846 22 364.690785846 44.0261609304 393.534568017 c 0
 65.9758177182 422.278166191 65.9758177182 422.278166191 98.5268284667 432.778492239 c 0
 116.279954853 438 116.279954853 438 136 438 c 0
 178.878675581 438 178.878675581 438 204.311384137 415.746380013 c 0
 216.970246108 404.443824682 216.970246108 404.443824682 223.713051303 389.320353569 c 0
 230.455856499 374.196882456 230.455856499 374.196882456 231.204096492 356.566131213 c 1
 260.568719671 384.218077536 260.568719671 384.218077536 318.070249898 408.612666117 c 0
 399.10557204 442.0397365 399.10557204 442.0397365 475.219568205 438.995176654 c 0
 506.14497557 437.635818088 506.14497557 437.635818088 534.26595892 429.217892158 c 0
 562.386942269 420.799966228 562.386942269 420.799966228 587.599306471 405.364531243 c 0
 612.811670674 389.929096258 612.811670674 389.929096258 635.048951347 367.522065351 c 0
 668.435632553 333.880523983 668.435632553 333.880523983 686.197578238 292.477627677 c 0
 703.959523923 251.074731371 703.959523923 251.074731371 705.996398703 202.18973666 c 0
 707.523276797 161.98194684 707.523276797 161.98194684 698.571103651 127.198232204 c 0
 689.618930505 92.414517569 689.618930505 92.414517569 670.148245199 63.2084896097 c 0
 632.992497987 8.50697288073 632.992497987 8.50697288073 577.024315771 -2.89395312626 c 0
 554.941255837 -7.59662033027 554.941255837 -7.59662033027 535.809990017 -4.94046737168 c 0
 516.678724197 -2.28431441309 516.678724197 -2.28431441309 501.259868713 7.8176943521 c 2
 498.788085718 9.43713838372 l 1
 501.626735775 46.3395891269 l 1
 508.519355128 42.3188945045 l 2
 513.972302148 39.1380087426 513.972302148 39.1380087426 521.807251364 36.762799977 c 0
 529.642200579 34.3875912114 529.642200579 34.3875912114 539.691343414 32.9519993779 c 0
 550.39880802 31.5534461771 550.39880802 31.5534461771 558.30697131 32.2336428162 c 0
 566.2151346 32.9138394553 566.2151346 32.9138394553 571.980047161 35.5745683296 c 0
 633 61.3173609334 633 61.3173609334 633 129 c 0
 633 143.586187349 633 143.586187349 630.059456958 161.229445603 c 0
 613.452667382 275.523232683 613.452667382 275.523232683 487.030342207 330.404242061 c 0
 435.985823442 352 435.985823442 352 378 352 c 0
 297.760212385 352 297.760212385 352 237.81326962 312.724905378 c 1
 246.962954214 314.384743213 246.962954214 314.384743213 255.380628503 315.570151958 c 0
 263.798302791 316.755560703 263.798302791 316.755560703 271.94337996 317.519180675 c 0
 280.088457128 318.282800646 280.088457128 318.282800646 287.951256276 318.641400323 c 0
 295.814055423 319 295.814055423 319 304 319 c 0
 334.125340803 319 334.125340803 319 360.668108025 313.907335825 c 0
 387.210875247 308.814671649 387.210875247 308.814671649 410.250373199 298.558738185 c 0
 433.289871151 288.302804721 433.289871151 288.302804721 452.615026132 272.911088365 c 0
 510.768062563 226.594510676 510.768062563 226.594510676 518.977045146 143.478562033 c 0
 524.134647904 89.8394933481 524.134647904 89.8394933481 499.287464629 48.4275212229 c 0
 474.136848694 6.50982799936 474.136848694 6.50982799936 424.99412253 -2.90048126619 c 0
 410.529701772 -6 410.529701772 -6 397 -6 c 0
 330.168506612 -6 330.168506612 -6 296.363109668 51.7977001175 c 1
 267.120059266 -3.48984085838 267.120059266 -3.48984085838 207.13745141 -5.99815535503 c 0
 162.014650218 -7.0475228246 162.014650218 -7.0475228246 120.486841995 33.4420901935 c 0
 118.029221981 35.8997102074 118.029221981 35.8997102074 105.796331541 56.2878609406 c 0
180.859937926 262.861891415 m 1
 151.511630053 237.253566891 151.511630053 237.253566891 130.128738484 205.179229537 c 0
 127.781778453 201.826429493 127.781778453 201.826429493 124.687296552 196.751007085 c 0
 121.592814651 191.675584677 121.592814651 191.675584677 117.85738611 185.053487215 c 0
 114.12195757 178.431389753 114.12195757 178.431389753 109.837129915 170.444361089 c 0
 105.55230226 162.457332426 105.55230226 162.457332426 100.728188289 153.103054482 c 0
 95.9040743181 143.748776539 95.9040743181 143.748776539 90.7286839888 133.387258556 c 1
 102.069418738 137.18465291 102.069418738 137.18465291 113.426184855 136.998345538 c 0
 124.782950972 136.812038165 124.782950972 136.812038165 136.605588781 132.735266507 c 0
 186.598622052 116.070922083 186.598622052 116.070922083 208.633629401 117.987009679 c 0
 224.862771828 118.960758224 224.862771828 118.960758224 236.838076681 122.109015306 c 0
 248.813381533 125.257272388 248.813381533 125.257272388 256.0006779 130.046647933 c 0
 263.187974266 134.836023477 263.187974266 134.836023477 266.581060418 141.339438602 c 0
 274.93425366 157.117692504 274.93425366 157.117692504 274.006910853 174.737205834 c 2
 273.729921687 180 l 1
 314 180 l 1
 314 175 l 2
 314 172.291400698 314 172.291400698 314.672281423 167.519062401 c 0
 315.344562847 162.746724104 315.344562847 162.746724104 316.642655283 156.343450738 c 0
 317.94074772 149.940177371 317.94074772 149.940177371 319.704069228 142.797834695 c 0
 334.49320161 115.386016684 334.49320161 115.386016684 398.472178067 121.972087789 c 0
 458 128.482943313 458 128.482943313 458 181 c 0
 458 190.349891261 458 190.349891261 455.736612157 199.095435849 c 0
 453.473224315 207.840980437 453.473224315 207.840980437 448.894544524 216.087084899 c 0
 444.315864733 224.333189361 444.315864733 224.333189361 437.345971828 232.060175967 c 0
 430.376078923 239.787162572 430.376078923 239.787162572 421.011314837 246.990827253 c 0
 386.109989127 272.197340266 386.109989127 272.197340266 339.379826327 278.038610616 c 0
 334.17722191 278.688936169 334.17722191 278.688936169 328.298882201 279.124381322 c 0
 322.420542492 279.559826475 322.420542492 279.559826475 315.831837197 279.779913238 c 0
 309.243131903 280 309.243131903 280 302 280 c 0
 212.967443824 280 212.967443824 280 180.859937926 262.861891415 c 1
EndSplineSet
EndChar
StartChar: kha
Encoding: 3483 3483 121
Width: 630
GlyphClass: 2
Flags: W
LayerCount: 2
Back
Fore
SplineSet
73.380484992 121.925480695 m 1
 93.3292103291 150 93.3292103291 150 135 150 c 0
 140.74716674 150 140.74716674 150 146.452970102 149.481097841 c 0
 152.158773463 148.962195683 152.158773463 148.962195683 157.927283976 147.91337559 c 0
 207.504060455 138.213571496 207.504060455 138.213571496 214.963687438 79.602216633 c 0
 218.188968293 51.649782555 218.188968293 51.649782555 199.068667356 25.0938090314 c 0
 177.630052571 -4.92025166765 177.630052571 -4.92025166765 143.120459829 -5.99867644085 c 0
 80.7516566056 -7.05577480056 80.7516566056 -7.05577480056 48.4122218735 67.0119628118 c 0
 21.9160180023 128.157048668 21.9160180023 128.157048668 29.0175079682 216.41842396 c 0
 36.1983114181 298.4847491 36.1983114181 298.4847491 96.767391523 349.814478003 c 0
 157.16630748 401 157.16630748 401 247 401 c 0
 280.708713859 401 280.708713859 401 309.769981363 391.999021236 c 0
 338.831248866 382.998042472 338.831248866 382.998042472 362.968267062 365.023667219 c 0
 389.838601053 345.387653918 389.838601053 345.387653918 403.419300527 318.486245311 c 0
 417 291.584836704 417 291.584836704 417 258 c 0
 417 246.586187349 417 246.586187349 414.939640904 234.224032771 c 0
 406.854995698 179.428104157 406.854995698 179.428104157 376.282449487 142.981497866 c 1
 391.078408812 141.992659 391.078408812 141.992659 405.035533906 128.035533906 c 0
 417.071067812 116 417.071067812 116 436 116 c 0
 456.004896873 116 456.004896873 116 473.66057384 132.706703821 c 0
 491.316250807 149.413407641 491.316250807 149.413407641 506.42240273 184.011368497 c 0
 534.96948896 248.980599228 534.96948896 248.980599228 533.001792722 316.866119448 c 0
 531.522900512 372.07809526 531.522900512 372.07809526 514.602629936 417.321763785 c 0
 497.682359359 462.56543231 497.682359359 462.56543231 465.302608129 498.134098434 c 0
 400.750922757 569.04314676 400.750922757 569.04314676 300.892881734 571.001147564 c 0
 163.84922159 573.937797424 163.84922159 573.937797424 102.328943016 467.497950367 c 2
 100.885173538 465 l 1
 55.6470466246 465 l 1
 59.5931243665 472.36208534 l 2
 127.945669348 599.885490156 127.945669348 599.885490156 285.821542347 605.996814272 c 0
 399.772065275 610.066475805 399.772065275 610.066475805 485.253956867 536.796283012 c 0
 570.721625978 463.538280917 570.721625978 463.538280917 584.957447761 349.651706654 c 0
 586.974287941 335.029615349 586.974287941 335.029615349 587.98714397 320.088019678 c 0
 589 305.146424006 589 305.146424006 589 290 c 0
 589 176.745079884 589 176.745079884 543.419377257 91.6612507633 c 0
 519.99094971 46.8416502396 519.99094971 46.8416502396 489.944918373 22.4930724596 c 0
 459.898887036 -1.8555053204 459.898887036 -1.8555053204 423.45267873 -4.97946603234 c 0
 388.60418945 -8.14751051234 388.60418945 -8.14751051234 366.159415636 7.88447078383 c 0
 356.544646724 14.2943167246 356.544646724 14.2943167246 339.021581617 36.9712245108 c 0
 328.958306065 50.3889252469 328.958306065 50.3889252469 319.550953635 50.0348851017 c 0
 316.997863295 49.7028862817 316.997863295 49.7028862817 307.864372489 42.6570610624 c 0
 298.730881683 35.611235843 298.730881683 35.611235843 281.587275549 19.9919187236 c 0
 264.443669416 4.37260160417 264.443669416 4.37260160417 243.535533906 -16.5355339059 c 2
 241.895756988 -18.1753108235 l 1
 192.841477951 -14.0874542371 l 1
 200.464466094 -6.46446609407 l 2
 220.324789212 13.3958570238 220.324789212 13.3958570238 284.196566773 88.2455963535 c 0
 347 161.843369666 347 161.843369666 347 207 c 0
 347 240.5 347 240.5 319 261.5 c 0
 314.965253386 264.526059961 314.965253386 264.526059961 310.569721389 267.044336108 c 0
 306.174189392 269.562612255 306.174189392 269.562612255 301.37306736 271.589707513 c 0
 296.571945328 273.61680277 296.571945328 273.61680277 291.395775038 275.129982025 c 0
 286.219604748 276.643161281 286.219604748 276.643161281 280.622515448 277.65085651 c 0
 275.025426149 278.658551739 275.025426149 278.658551739 269.039096789 279.146743507 c 0
 263.05276743 279.634935276 263.05276743 279.634935276 256.630190087 279.603339882 c 0
 250.207612744 279.571744488 250.207612744 279.571744488 243.381532465 279.014513445 c 0
 209.003521157 276.558941209 209.003521157 276.558941209 179.960104442 266.309223841 c 0
 150.916687727 256.059506474 150.916687727 256.059506474 127.029121171 238.021956217 c 0
 73 196.535309604 73 196.535309604 73 133 c 0
 73 128.013240567 73 128.013240567 73.380484992 121.925480695 c 1
95 74 m 0
 95 58.1245179781 95 58.1245179781 107.470677853 46.0992214771 c 0
 120.018018644 34 120.018018644 34 136 34 c 0
 143.536668358 34 143.536668358 34 149.790688152 36.6957277738 c 0
 156.044707945 39.3914555476 156.044707945 39.3914555476 161.393063395 44.9626591409 c 0
 172 56.011551438 172 56.011551438 172 71 c 0
 172 92 172 92 158 102 c 0
 147 110 147 110 132 110 c 0
 112.573089476 110 112.573089476 110 104.068667356 98.0938090314 c 0
 95 85.397674733 95 85.397674733 95 74 c 0
EndSplineSet
EndChar
StartChar: nja
Encoding: 3494 3494 138
Width: 666
GlyphClass: 2
Flags: W
LayerCount: 2
Back
Fore
SplineSet
462 359 m 0
 462.840986467 338.94529102 462.840986467 338.94529102 475.915785644 326.151357068 c 0
 483.018362021 319.507011424 483.018362021 319.507011424 491.208181643 316.253505712 c 0
 499.398001265 313 499.398001265 313 509 313 c 0
 527.032736016 313 527.032736016 313 540.09290736 325.159469872 c 0
 553 337.176418192 553 337.176418192 553 355 c 0
 553 373.025867146 553 373.025867146 539.848642932 387.084214356 c 0
 526.830649911 401 526.830649911 401 506 401 c 0
 487.967263984 401 487.967263984 401 474.90709264 388.840530128 c 0
 462 376.823581808 462 376.823581808 462 359 c 0
425.148640893 342.789062726 m 0
 419.32642038 365.246198988 419.32642038 365.246198988 427.425503968 393.685026587 c 1
 397 370.346286094 397 370.346286094 397 334 c 0
 397 325.644226792 397 325.644226792 399.02233805 314.352839346 c 1
 410.366107539 315.203622058 410.366107539 315.203622058 427.772961695 315.994842701 c 2
 428 316 l 2
 429.941498935 316 429.941498935 316 433.034001249 315.874235099 c 0
 436.126503562 315.748470199 436.126503562 315.748470199 438.164003501 315.610970203 c 1
 433.094500054 321.755822866 433.094500054 321.755822866 430.135636323 328.047168422 c 0
 427.176772593 334.338513977 427.176772593 334.338513977 425.148640893 342.789062726 c 0
162.750259016 192.56631413 m 0
 188.514132102 121 188.514132102 121 369 121 c 0
 536.181020795 121 536.181020795 121 556.176180894 194.315587029 c 2
 556.25658351 194.58113883 l 2
 557.634496539 198.714877918 557.634496539 198.714877918 558.31724827 202.811350558 c 0
 559 206.907823198 559 206.907823198 559 211 c 0
 559 224.713933143 559 224.713933143 554.649131887 235.700968738 c 0
 550.298263774 246.688004333 550.298263774 246.688004333 541.357957211 255.231647362 c 0
 532.417650648 263.775290391 532.417650648 263.775290391 518.633311151 269.724027716 c 0
 504.848971654 275.672765041 504.848971654 275.672765041 486.112672361 279.079364913 c 0
 425.987965767 289.921525118 425.987965767 289.921525118 369.86399739 280.075214877 c 2
 365.453733715 279.301484407 l 1
 364.2 283.6 l 2
 357 308.285714286 357 308.285714286 357 331 c 0
 357 413.332826074 357 413.332826074 443.193572269 437.162813701 c 1
 462.636655016 489.790466013 462.636655016 489.790466013 505.11244464 542.144346247 c 0
 561.123709389 611.39463721 561.123709389 611.39463721 602.674217585 622.821026964 c 2
 602.915347711 622.880935301 l 2
 612.451138857 625 612.451138857 625 621 625 c 0
 663 625 663 625 663 591 c 0
 663 586.049444276 663 586.049444276 661.766441429 581.351596344 c 0
 660.532882859 576.653748412 660.532882859 576.653748412 658.134384912 572.349390092 c 0
 655.735886965 568.045031773 655.735886965 568.045031773 652.207678896 564.14543338 c 0
 648.505350016 560.053385671 648.505350016 560.053385671 641.701242652 555.624176328 c 0
 634.897135289 551.194966985 634.897135289 551.194966985 625.475365489 546.554092042 c 0
 616.053595689 541.913217099 616.053595689 541.913217099 602.924565282 536.385204295 c 0
 580.250245041 527.019724196 580.250245041 527.019724196 565.797749944 520.286987651 c 0
 551.345254846 513.554251105 551.345254846 513.554251105 545.686464062 509.781723916 c 0
 537.922034968 505.062168976 537.922034968 505.062168976 530.93201661 499.84102731 c 0
 523.941998252 494.619885644 523.941998252 494.619885644 517.849097098 489.004298937 c 0
 511.756195944 483.388712231 511.756195944 483.388712231 506.459337424 477.361530509 c 0
 501.162478905 471.334348788 501.162478905 471.334348788 496.710630622 464.928916409 c 0
 492.258782339 458.523484031 492.258782339 458.523484031 488.629524513 451.801368171 c 0
 485.000266687 445.079252311 485.000266687 445.079252311 482.168828055 438 c 1
 498.932444767 438 l 2
 518.154924516 438.51952648 518.154924516 438.51952648 534.832055333 433.091345968 c 0
 551.50918615 427.663165456 551.50918615 427.663165456 565.186321799 416.353226362 c 0
 592.927009192 393.413811786 592.927009192 393.413811786 593.998438281 359.128080931 c 0
 594.946627027 311.718643675 594.946627027 311.718643675 554.603359736 289.063890832 c 1
 583.625569117 273.603461536 583.625569117 273.603461536 602.808153188 241.037679275 c 0
 625.059544981 203.262060651 625.059544981 203.262060651 622.996209409 155.805342491 c 0
 621.446309608 116.024580937 621.446309608 116.024580937 601.163460749 85.3371529656 c 0
 580.88061189 54.6497249944 580.88061189 54.6497249944 542.432678169 33.6315212264 c 0
 474.319206532 -5 474.319206532 -5 367 -5 c 0
 250.701238837 -5 250.701238837 -5 179.586097454 34.6212930563 c 0
 139.540388513 56.6977736264 139.540388513 56.6977736264 118.785425785 90.1666179417 c 0
 98.030463056 123.635462257 98.030463056 123.635462257 97.0007692899 167.912294198 c 0
 95.9629106467 227.070236865 95.9629106467 227.070236865 139.555430431 269.624839511 c 0
 160.20377652 288.724559644 160.20377652 288.724559644 185.423676304 300.048568322 c 0
 210.643576088 311.372577 210.643576088 311.372577 240.424357929 314.966809291 c 0
 265.693538116 317.774495978 265.693538116 317.774495978 299.529298843 316.237198707 c 0
 299.781431208 319.171102592 299.781431208 319.171102592 299.890715604 321.702338678 c 0
 300 324.233574763 300 324.233574763 300 327 c 0
 300 377.308973685 300 377.308973685 257.744625943 380.006125221 c 0
 249.961912016 380.305460372 249.961912016 380.305460372 243.538098189 378.292616213 c 0
 237.114284361 376.279772053 237.114284361 376.279772053 231.819614789 371.834344186 c 0
 226.524945218 367.38891632 226.524945218 367.38891632 222.266409168 360.392749953 c 0
 210.83560304 341.68779447 210.83560304 341.68779447 204.200921998 336.158893602 c 0
 183.841043506 324.708407532 183.841043506 324.708407532 177.178994246 323.140866529 c 0
 172.960724132 322.086299001 172.960724132 322.086299001 169.157011734 321.543149501 c 0
 165.353299336 321 165.353299336 321 162 321 c 0
 121 321 121 321 121 361 c 0
 121 364.889836349 121 364.889836349 121.517539097 368.632439755 c 1
 109.716674192 358.713711838 109.716674192 358.713711838 98.8044832879 345.755484937 c 0
 62 303.139767445 62 303.139767445 62 218 c 0
 62 99.2743247796 62 99.2743247796 138.285676002 32.7688636495 c 2
 140 31.2743247796 l 1
 140 -8.09016994375 l 1
 132.763932023 -4.472135955 l 2
 77.1488136443 23.3354232341 77.1488136443 23.3354232341 47.421058956 90.9916925246 c 0
 22 148.951706944 22 148.951706944 22 221 c 0
 22 286.12970335 22 286.12970335 42.4856974059 329.149667902 c 0
 62.9680021687 372.162507904 62.9680021687 372.162507904 99.3367818855 401.872215278 c 0
 135.998089838 431.82088938 135.998089838 431.82088938 176.502481405 435.975185951 c 0
 200.473657717 438.372303582 200.473657717 438.372303582 221.721608945 436.995746997 c 0
 222.358944926 437.000000113 222.358944926 437.000000113 223 437 c 0
 274.898130045 437 274.898130045 437 307.318072993 408.240373192 c 0
 340 379.248341169 340 379.248341169 340 326 c 0
 340 322.29106017 340 322.29106017 339.835270554 318.502738415 c 0
 339.670541107 314.714416659 339.670541107 314.714416659 339.342144546 310.856085556 c 0
 339.013747986 306.997754453 339.013747986 306.997754453 338.521429756 303.059788061 c 0
 338.029111527 299.121821669 338.029111527 299.121821669 337.374746774 295.114317105 c 0
 336.720382022 291.10681254 336.720382022 291.10681254 335.902903378 287.019419324 c 2
 335.011950295 282.564653906 l 1
 330.49243156 283.025829287 l 2
 314.418639034 284.664659097 314.418639034 284.664659097 298.11196511 284.664445442 c 0
 281.805291186 284.664231787 281.805291186 284.664231787 265.267020675 283.022623466 c 0
 248.728750164 281.381015146 248.728750164 281.381015146 231.99985596 278.100839812 c 0
 200.391840997 271.396109365 200.391840997 271.396109365 179.905519712 252.339066309 c 0
 174.843208193 247.629939315 174.843208193 247.629939315 171.092918851 242.651957415 c 0
 167.34262951 237.673975516 167.34262951 237.673975516 164.881606489 232.393018823 c 0
 162.420583468 227.112062129 162.420583468 227.112062129 161.210291734 221.539381305 c 0
 160 215.966700481 160 215.966700481 160 210 c 0
 160 201.733844182 160 201.733844182 162.750259016 192.56631413 c 0
EndSplineSet
EndChar
StartChar: Ta
Encoding: 3496 3496 141
Width: 638
GlyphClass: 2
Flags: W
LayerCount: 2
Back
Fore
SplineSet
505.753902142 414.296183038 m 1
 471.478989562 358 471.478989562 358 413 358 c 0
 392.661092755 358 392.661092755 358 374.306380646 364.685976757 c 0
 355.951668537 371.371953514 355.951668537 371.371953514 339.823647304 384.638551625 c 0
 307.182731665 411.48833707 307.182731665 411.48833707 304.012444298 451.645310386 c 0
 298.906770914 532.314949849 298.906770914 532.314949849 345.786518701 605.691946386 c 2
 348.019651517 609.187284706 l 1
 351.867334354 607.63821759 l 2
 430.081086768 576.149564021 430.081086768 576.149564021 499.904344047 489.123475238 c 0
 576.798494682 393.005786945 576.798494682 393.005786945 588.964384192 289.595726103 c 0
 592 264.298927707 592 264.298927707 592 238 c 0
 592 139.63317774 592 139.63317774 552.312624529 72.4699269431 c 0
 506.863600722 -5 506.863600722 -5 422 -5 c 0
 349.217888449 -5 349.217888449 -5 302.930289185 51.0157005372 c 1
 287.430642067 32.671817897 287.430642067 32.671817897 269.731483343 20.3359160127 c 0
 252.032324618 8.00001412836 252.032324618 8.00001412836 232.116686629 1.66541199256 c 0
 212.20104864 -4.66919014324 212.20104864 -4.66919014324 190.065783779 -4.99956723071 c 0
 111.314857029 -6.03576363532 111.314857029 -6.03576363532 64.8197604458 65.2567177926 c 0
 21.8710434167 130.702381837 21.8710434167 130.702381837 29.0178584755 214.422215383 c 0
 34.122938016 274.662153962 34.122938016 274.662153962 63.8136474772 320.733944505 c 0
 80.2265691713 345.866230849 80.2265691713 345.866230849 101.848591759 363.625231313 c 0
 123.470614346 381.384231778 123.470614346 381.384231778 150.26623029 391.69023791 c 0
 182.139196179 403 182.139196179 403 221 403 c 2
 226 403 l 1
 226 368.836108897 l 1
 220.83879353 369.002599428 l 2
 200.846705614 369.64750549 200.846705614 369.64750549 183.07505362 365.12746042 c 0
 165.303401626 360.607415349 165.303401626 360.607415349 149.6085127 350.874335291 c 0
 133.913623775 341.141255233 133.913623775 341.141255233 120.190708669 326.126771647 c 0
 79.1941267391 281.271687889 79.1941267391 281.271687889 84.9716519736 222.533514671 c 0
 89.7892534619 181.102141872 89.7892534619 181.102141872 113.741638321 153.317375435 c 0
 143.20748063 121 143.20748063 121 190 121 c 0
 281 121 281 121 281 177 c 2
 281 217 l 1
 322 217 l 1
 322 177 l 2
 322 163.409968636 322 163.409968636 328.904937361 153.16416706 c 0
 335.809874721 142.918365484 335.809874721 142.918365484 350.301585822 135.438772657 c 0
 356.714362071 132.113629417 356.714362071 132.113629417 364.063434116 129.607028948 c 0
 371.41250616 127.10042848 371.41250616 127.10042848 379.7382367 125.40501781 c 0
 388.063967241 123.70960714 388.063967241 123.70960714 397.397841566 122.85480357 c 0
 406.731715891 122 406.731715891 122 417 122 c 0
 534.176414681 122 534.176414681 122 540.002189229 284.150724932 c 0
 540.980978209 324.281073101 540.980978209 324.281073101 526.263855012 370.394725784 c 0
 515.420046162 400.60247901 515.420046162 400.60247901 505.753902142 414.296183038 c 1
363.596073203 562.635540784 m 1
 353.103640722 546.9737597 353.103640722 546.9737597 348.051820361 526.45122422 c 0
 343 505.928688739 343 505.928688739 343 479 c 0
 343 469.930745663 343 469.930745663 344.103729136 461.978397176 c 0
 345.207458271 454.026048689 345.207458271 454.026048689 347.374072295 447.256612016 c 0
 349.540686318 440.487175342 349.540686318 440.487175342 352.790493717 434.759839795 c 0
 356.040301117 429.032504248 356.040301117 429.032504248 360.290322528 424.401291275 c 0
 364.540343939 419.770078302 364.540343939 419.770078302 369.853022967 416.106161731 c 0
 379.263629831 409.518736926 379.263629831 409.518736926 389.739241775 406.259368463 c 0
 400.214853719 403 400.214853719 403 412 403 c 0
 458.425944904 403 458.425944904 403 481.256009888 449.555426635 c 1
 457.200161613 484.628121364 457.200161613 484.628121364 432.105723458 507.828639659 c 0
 405.637258517 532.299484604 405.637258517 532.299484604 394.806406003 541.152635814 c 0
 378.41446939 554.956371909 378.41446939 554.956371909 363.596073203 562.635540784 c 1
EndSplineSet
EndChar
StartChar: Dha
Encoding: 3498 3498 144
Width: 647
GlyphClass: 2
Flags: W
LayerCount: 2
Back
Fore
SplineSet
373.640143747 560.743379292 m 1
 352 529.479188821 352 529.479188821 352 476 c 0
 352 453.502929063 352 453.502929063 358.964726226 437.94627311 c 0
 365.929452453 422.389617157 365.929452453 422.389617157 379.734623522 413.186169778 c 0
 391.665303257 405.550534747 391.665303257 405.550534747 402.758848322 401.775267374 c 0
 413.852393387 398 413.852393387 398 424 398 c 0
 461.927508229 398 461.927508229 398 492.129400032 449.797580808 c 1
 475.376776741 474.552155447 475.376776741 474.552155447 442.442642642 507.486289546 c 0
 405.585417551 545.264945265 405.585417551 545.264945265 373.640143747 560.743379292 c 1
47.1780986551 204.32261882 m 0
 55.5027404787 234.499445431 55.5027404787 234.499445431 80.3075725304 261.37134682 c 0
 84.3082964161 265.753092028 84.3082964161 265.753092028 88.4230162334 269.711097315 c 0
 92.5377360507 273.669102601 92.5377360507 273.669102601 96.4682913177 276.959619679 c 0
 100.398846585 280.250136757 100.398846585 280.250136757 104.248655125 283 c 2
 10 283 l 1
 10 320 l 1
 249.861955798 320 l 1
 248.254256881 343.319753986 248.254256881 343.319753986 234.643133607 359.818085226 c 0
 219.643053919 378 219.643053919 378 199 378 c 0
 195.062059116 378 195.062059116 378 191.396002091 377.137401295 c 0
 187.729945067 376.27480259 187.729945067 376.27480259 184.236067977 374.527864045 c 2
 184.067547761 374.443603937 l 2
 163.148134005 365.885661946 163.148134005 365.885661946 150.985981615 349.981308819 c 0
 147.390469743 345.187292991 147.390469743 345.187292991 141.59035322 341.831144527 c 0
 135.790236696 338.474996064 135.790236696 338.474996064 128.720960004 336.648810315 c 0
 121.651683311 334.822624566 121.651683311 334.822624566 112.688868327 334.034107119 c 0
 105.056781329 332.398659905 105.056781329 332.398659905 96.9687785815 334.465654159 c 0
 88.8807758338 336.532648413 88.8807758338 336.532648413 81.5238622469 341.982214033 c 0
 66 353.481371253 66 353.481371253 66 370 c 0
 66 415.831889238 66 415.831889238 121.596592762 430.800202673 c 0
 141.229284296 437 141.229284296 437 169.956143725 437 c 0
 229.39309946 438.042753609 229.39309946 438.042753609 262.428181573 396.093442989 c 0
 295.026722004 354.698471013 295.026722004 354.698471013 293.999408389 287.923086025 c 2
 293.923668604 283 l 1
 195 283 l 2
 159.967263984 283 159.967263984 283 132.40709264 257.340530128 c 0
 105 231.823581808 105 231.823581808 105 202 c 0
 105 183.42482981 105 183.42482981 111.079434732 168.695207078 c 0
 117.158869464 153.965584346 117.158869464 153.965584346 129.391400514 142.674017223 c 0
 137.527622421 135.16365854 137.527622421 135.16365854 147.746606596 130.145131872 c 0
 157.965590772 125.126605205 157.965590772 125.126605205 170.557136808 122.563302603 c 0
 183.148682845 120 183.148682845 120 198 120 c 0
 216.804321632 120 216.804321632 120 233.303054473 124.901881049 c 0
 249.801787314 129.803762098 249.801787314 129.803762098 264.179047475 139.628223208 c 0
 278.278973827 149.263172881 278.278973827 149.263172881 285.139486913 161.727477414 c 0
 292 174.191781947 292 174.191781947 292 190 c 2
 292 223 l 1
 331 223 l 1
 331 190 l 2
 331 158.639207433 331 158.639207433 358.820952525 139.628223208 c 0
 387.545181609 120 387.545181609 120 425 120 c 0
 488.469111313 120 488.469111313 120 522.979119293 166.971955305 c 0
 555.978279329 211.617877707 555.978279329 211.617877707 555.000822137 285.904624291 c 0
 554.024247577 324.967606671 554.024247577 324.967606671 535.343423001 371.178067465 c 0
 531.672716096 380.879221429 531.672716096 380.879221429 528.006362811 389.209729213 c 0
 524.340009526 397.540236996 524.340009526 397.540236996 521.031014197 403.847267627 c 0
 517.722018868 410.154298257 517.722018868 410.154298257 514.642450522 414.825846849 c 1
 481.042727795 358 481.042727795 358 422 358 c 0
 401.661092755 358 401.661092755 358 383.306380646 364.685976757 c 0
 364.951668537 371.371953514 364.951668537 371.371953514 348.823647304 384.638551625 c 0
 316.182731665 411.48833707 316.182731665 411.48833707 313.012933847 451.639109436 c 0
 307.906390616 529.258566537 307.906390616 529.258566537 354.737810705 605.614142768 c 2
 356.942214311 609.208279083 l 1
 360.856953382 607.642383454 l 2
 394.707715378 594.102078656 394.707715378 594.102078656 425.12402557 572.989290346 c 0
 455.540335762 551.876502036 455.540335762 551.876502036 482.415494455 523.314876444 c 0
 509.290653147 494.753250852 509.290653147 494.753250852 532.693113187 458.723564173 c 0
 603 350.481306777 603 350.481306777 603 240 c 0
 603 140.603109309 603 140.603109309 562.289296143 73.4304479445 c 0
 515.850215123 -5 515.850215123 -5 431 -5 c 0
 385.60097685 -5 385.60097685 -5 356.461761424 12.6916665087 c 0
 336.442676414 24.1311436574 336.442676414 24.1311436574 313.072256692 51.1837195421 c 1
 266.437255252 -4.00895593343 266.437255252 -4.00895593343 200.075748881 -4.99942617777 c 0
 131.846795507 -6.03319819859 131.846795507 -6.03319819859 86.3319096257 43.1021899691 c 0
 41 92.0400469514 41 92.0400469514 41 158 c 0
 41 181.669590418 41 181.669590418 47.1780986551 204.32261882 c 0
EndSplineSet
EndChar
StartChar: Tha
Encoding: 3502 3502 150
Width: 614
GlyphClass: 2
Flags: W
LayerCount: 2
Back
Fore
SplineSet
245.071421284 400.000510126 m 2
 176.887781566 399.02645813 176.887781566 399.02645813 131.263900932 359.712263116 c 0
 86 320.708263376 86 320.708263376 86 263 c 0
 86 247.128499742 86 247.128499742 88.930921196 233.05354941 c 0
 91.8618423919 218.978599078 91.8618423919 218.978599078 97.7552658671 206.602141814 c 0
 103.648689342 194.22568455 103.648689342 194.22568455 112.541146042 183.557769599 c 0
 121.433602743 172.889854648 121.433602743 172.889854648 133.335218161 163.882139357 c 0
 145.236833578 154.874424066 145.236833578 154.874424066 160.20559425 147.487243475 c 0
 218.136090299 119.012931858 218.136090299 119.012931858 306.927049707 119.999498074 c 0
 469.303447439 122.934011286 469.303447439 122.934011286 513.232086674 263.50565684 c 0
 516.108537755 272.614418594 516.108537755 272.614418594 517.554268877 282.734511535 c 0
 519 292.854604477 519 292.854604477 519 304 c 0
 519 333.755531689 519 333.755531689 512.403309608 358.703522853 c 0
 505.806619215 383.651514018 505.806619215 383.651514018 493.280832287 402.844252053 c 1
 463.770662256 358 463.770662256 358 413 358 c 0
 392.661092755 358 392.661092755 358 374.306380646 364.685976757 c 0
 355.951668537 371.371953514 355.951668537 371.371953514 339.823647304 384.638551625 c 0
 307.182731665 411.48833707 307.182731665 411.48833707 304.012444298 451.645310386 c 0
 298.906770914 532.314949849 298.906770914 532.314949849 345.786518701 605.691946386 c 2
 348.019651517 609.187284706 l 1
 351.867334354 607.63821759 l 2
 430.314003323 576.055792421 430.314003323 576.055792421 497.157881521 474.77718909 c 0
 534.005244473 420.263282258 534.005244473 420.263282258 552.502622236 365.02269132 c 0
 571 309.782100383 571 309.782100383 571 254 c 0
 571 240.025023772 571 240.025023772 569.785511113 226.62975377 c 0
 568.571022226 213.234483768 568.571022226 213.234483768 566.144491667 200.430387705 c 0
 563.717961107 187.626291641 563.717961107 187.626291641 560.077453002 175.410935036 c 0
 556.436944897 163.195578432 556.436944897 163.195578432 551.588174889 151.582408466 c 0
 546.739404881 139.9692385 546.739404881 139.9692385 540.676950773 128.953709261 c 0
 534.614496666 117.938180021 534.614496666 117.938180021 527.347560424 107.535850122 c 0
 520.080624183 97.1335202218 520.080624183 97.1335202218 511.600297288 87.3377323162 c 0
 503.119970394 77.5419444106 503.119970394 77.5419444106 493.43872324 68.3702365805 c 0
 415.205497454 -4.61862936473 415.205497454 -4.61862936473 298.045043217 -5.99979710674 c 0
 185.14861043 -7.01688208681 185.14861043 -7.01688208681 106.717893793 61.2280271946 c 0
 28 129.722817897 28 129.722817897 28 238 c 0
 28 320.268800616 28 320.268800616 93.7206385786 377.774359372 c 0
 156.057613025 431.935992907 156.057613025 431.935992907 244.827688621 434.997029997 c 2
 250 435.175385562 l 1
 250 400.070918393 l 1
 245.071421284 400.000510126 l 2
364.04274696 558.773394931 m 1
 344 535.183757357 344 535.183757357 344 478 c 0
 344 462.252136899 344 462.252136899 347.170120601 449.683696275 c 0
 350.340241202 437.115255652 350.340241202 437.115255652 356.489567357 427.835654001 c 0
 362.638893512 418.556052349 362.638893512 418.556052349 371.845446724 412.111465101 c 0
 380.748052701 406.02020838 380.748052701 406.02020838 390.011249046 403.01010419 c 0
 399.274445391 400 399.274445391 400 409 400 c 0
 446.739385743 400 446.739385743 400 471.33281032 444.029848289 c 1
 456.29368067 471.767620533 456.29368067 471.767620533 426.347365303 503.58558061 c 0
 413.29404591 517.549596705 413.29404591 517.549596705 401.64254016 528.619772613 c 0
 389.991034411 539.689948521 389.991034411 539.689948521 380.662330546 547.133415024 c 0
 371.333626681 554.576881526 371.333626681 554.576881526 364.04274696 558.773394931 c 1
EndSplineSet
EndChar
StartChar: pa
Encoding: 3508 3508 158
Width: 616
GlyphClass: 2
Flags: W
LayerCount: 2
Back
Fore
SplineSet
270.480439892 292.027067536 m 2
 248.409521763 294.336726472 248.409521763 294.336726472 227.889255479 294.330124383 c 0
 207.368989194 294.323522293 207.368989194 294.323522293 188.487894324 292.033513891 c 0
 169.606799454 289.743505488 169.606799454 289.743505488 152.309683427 285.174455972 c 0
 95 269.202904853 95 269.202904853 95 222 c 0
 95 209.866068747 95 209.866068747 99.7363386139 196.604320628 c 0
 123.647979841 122 123.647979841 122 313 122 c 0
 493.19421349 122 493.19421349 122 513.164210508 194.272370161 c 0
 515.072496803 201.905515341 515.072496803 201.905515341 516.036248402 209.138058385 c 0
 517 216.370601429 517 216.370601429 517 223 c 0
 517 281.688316755 517 281.688316755 447.253736538 292.056004567 c 0
 394.905168807 299.957675168 394.905168807 299.957675168 324.559837671 292.031440673 c 2
 319.892355063 291.50552714 l 1
 319.076082206 296.13107333 l 2
 316 313.562205831 316 313.562205831 316 329 c 0
 316 380.242419957 316 380.242419957 349.674561198 410.233826023 c 0
 366.521839176 425.238432973 366.521839176 425.238432973 390.70912211 432.130454849 c 0
 414.896405045 439.022476726 414.896405045 439.022476726 446.144405855 437.99795211 c 0
 487.833461513 436.955725718 487.833461513 436.955725718 516.158364756 413.876174928 c 0
 530.44021083 402.239115163 530.44021083 402.239115163 537.720105415 387.409836478 c 0
 545 372.580557793 545 372.580557793 545 355 c 0
 545 321.04576658 545 321.04576658 523.0469431 303.270012005 c 1
 579 266.305854851 579 266.305854851 579 188 c 0
 579 175.617633905 579 175.617633905 576.956219231 162.333058903 c 0
 567.679112082 81.9314636136 567.679112082 81.9314636136 489.500371885 36.6700877105 c 0
 417.339976094 -5 417.339976094 -5 307 -5 c 0
 186.717157358 -5 186.717157358 -5 114.61109671 34.6075544405 c 0
 34.2369490414 77.8859416468 34.2369490414 77.8859416468 27.0155092567 166.606487573 c 0
 17.6913301565 284.712756175 17.6913301565 284.712756175 136.670355009 317.819963091 c 0
 192.439281663 333.204494582 192.439281663 333.204494582 239.573280619 326.733007311 c 1
 240 332.195015383 240 332.195015383 240 337 c 0
 240 383 240 383 194 383 c 0
 185.686625981 383 185.686625981 383 178.868969766 381.007951139 c 0
 172.051313552 379.015902278 172.051313552 379.015902278 166.678786159 375.081508967 c 0
 161.306258767 371.147115656 161.306258767 371.147115656 157.128738484 365.179229537 c 0
 136.176237767 333.750478462 136.176237767 333.750478462 105.481996074 324.224679316 c 0
 104.980580676 324.097096622 l 2
 99.495097568 323 99.495097568 323 94 323 c 0
 85.9796203066 323 85.9796203066 323 78.9585005664 326.217923359 c 0
 71.9373808262 329.435846717 71.9373808262 329.435846717 66.300299633 335.63663603 c 0
 60.683350582 341.815279986 60.683350582 341.815279986 57.841675291 349.48754233 c 0
 55 357.159804673 55 357.159804673 55 366 c 0
 55 372.035199716 55 372.035199716 56.4199319652 377.721292466 c 0
 57.8398639304 383.407385216 57.8398639304 383.407385216 60.5764512674 388.333242422 c 0
 72.6739608655 412.528261618 72.6739608655 412.528261618 95.2899146778 424.764130809 c 0
 117.90586849 437 117.90586849 437 150 437 c 0
 161.165874101 437 161.165874101 437 176.352654905 435.987547946 c 0
 280 428.658947788 280 428.658947788 280 335 c 0
 280 326.230675338 280 326.230675338 278.976092075 316.503847107 c 0
 277.952184149 306.777018876 277.952184149 306.777018876 275.911692832 296.064439461 c 2
 275.051699272 291.549473272 l 1
 270.480439892 292.027067536 l 2
488.016415628 320.632583115 m 1
 492.485343349 324.485822652 492.485343349 324.485822652 495.355658246 328.827521819 c 0
 498.225973143 333.169220986 498.225973143 333.169220986 499.612986572 338.150250592 c 0
 501 343.131280199 501 343.131280199 501 349 c 0
 501 368.019850695 501 368.019850695 486.85575964 383.076622692 c 0
 472.752952278 398.089288593 472.752952278 398.089288593 450.743124048 399.006364769 c 0
 426.956178499 400.462708374 426.956178499 400.462708374 409.042696051 395.836823491 c 0
 391.129213602 391.210938607 391.129213602 391.210938607 378.73615411 380.688529604 c 0
 356.072705817 361.445979167 356.072705817 361.445979167 358.456800353 330.266976602 c 1
 382.263776121 331.628034326 382.263776121 331.628034326 396.581041162 332.055395777 c 0
 410.898306204 332.482757228 410.898306204 332.482757228 417.321247093 331.990560483 c 0
 438.294232217 331.037242978 438.294232217 331.037242978 456.175797673 328.1459706 c 0
 474.057363129 325.254698221 474.057363129 325.254698221 488.016415628 320.632583115 c 1
EndSplineSet
EndChar
StartChar: pha
Encoding: 3509 3509 160
Width: 583
GlyphClass: 2
Flags: W
LayerCount: 2
Back
Fore
SplineSet
206 320 m 2
 242.669537972 320 l 1
 241.395169005 332.256179395 241.395169005 332.256179395 237.443820379 341.570662274 c 0
 233.492471754 350.885145153 233.492471754 350.885145153 226.23113635 359.214323998 c 0
 220.945380289 365.277397127 220.945380289 365.277397127 215.272362017 369.23637003 c 0
 209.599343745 373.195342933 209.599343745 373.195342933 203.588055888 375.097671466 c 0
 197.576768031 377 197.576768031 377 191 377 c 0
 187.487459442 377 187.487459442 377 183.910152563 376.329907395 c 0
 180.332845684 375.659814791 180.332845684 375.659814791 176.806498652 374.337434654 c 0
 167.445704748 370.593117092 167.445704748 370.593117092 159.983604495 365.112051747 c 0
 152.521504241 359.630986401 152.521504241 359.630986401 146.953618538 352.439134035 c 0
 133.798000515 335.446460755 133.798000515 335.446460755 105.883252188 330.078239923 c 0
 85.2839151115 326.645017077 85.2839151115 326.645017077 71.9644660941 339.964466094 c 0
 59 352.928932188 59 352.928932188 59 371 c 0
 59 382.33976454 59 382.33976454 65.2924041802 393.280614308 c 0
 71.5848083605 404.221464076 71.5848083605 404.221464076 83.7191064254 414.773027611 c 0
 96.1288450155 425.564104646 96.1288450155 425.564104646 115.902350422 431.02472106 c 0
 135.675855829 436.485337474 135.675855829 436.485337474 162.910728518 436.999202997 c 0
 221.478145457 438.045049728 221.478145457 438.045049728 255.012311705 392.983513832 c 0
 270.026593243 372.791893832 270.026593243 372.791893832 278.001700664 346.550892115 c 0
 285.976808086 320.309890397 285.976808086 320.309890397 286.997482376 288.158650234 c 2
 287.161249051 283 l 1
 188 283 l 2
 164.71216203 283 164.71216203 283 146.035259519 277.372989993 c 0
 127.358357008 271.745979985 127.358357008 271.745979985 113.083309876 260.563859732 c 0
 85 238.565266996 85 238.565266996 85 209 c 0
 85 157.678803909 85 157.678803909 158.462333817 134.781453109 c 0
 207.733844182 120 207.733844182 120 278 120 c 0
 362.427071139 120 362.427071139 120 419.137433868 159.599477423 c 0
 475.386002034 198.876494849 475.386002034 198.876494849 486.050850895 267.713246592 c 0
 488 282.331864876 488 282.331864876 488 297 c 0
 488 352.17536442 488 352.17536442 459.434993018 400.749141773 c 1
 434.458480098 356.873334636 434.458480098 356.873334636 374.222003068 354.004930968 c 0
 326.693807728 351.89256673 326.693807728 351.89256673 296.106230455 389.863352311 c 0
 265.963131135 427.282372156 265.963131135 427.282372156 267.000650903 477.083321039 c 0
 268.026713118 559.168298207 268.026713118 559.168298207 311.551724138 600.620689655 c 2
 314.151602726 603.096764501 l 1
 317.328732164 601.424591112 l 2
 336.730298892 591.213240203 336.730298892 591.213240203 357.722520973 575.278546491 c 0
 378.714743053 559.34385278 378.714743053 559.34385278 401.477104387 537.59315195 c 0
 451.98586411 488.094567422 451.98586411 488.094567422 485.317343315 430.522012431 c 0
 545.089223242 328.200658657 545.089223242 328.200658657 537.990057436 219.684838478 c 0
 534.933427761 171.288201954 534.933427761 171.288201954 515.864677868 131.103140329 c 0
 496.795927976 90.9180787048 496.795927976 90.9180787048 461.855275077 59.2929622129 c 0
 391.948017672 -3.98075981816 391.948017672 -3.98075981816 290.03999872 -4.99984000768 c 0
 163.447546316 -6.01257962691 163.447546316 -6.01257962691 96.1480209525 40.8931501716 c 0
 21.81867031 92.5107547845 21.81867031 92.5107547845 28.0099964604 183.316871657 c 0
 32.1525101238 253.739603933 32.1525101238 253.739603933 88.1539501058 292.110960958 c 0
 128.438117611 320 128.438117611 320 206 320 c 2
436.218429159 438.786360088 m 1
 416.507322069 469.363271085 416.507322069 469.363271085 384.442365288 500.485140903 c 0
 367.438765939 518.43338466 367.438765939 518.43338466 322.602991903 554.138401952 c 1
 309 536.650527814 309 536.650527814 309 496 c 0
 309 422.920537049 309 422.920537049 362.254307738 409.84053164 c 0
 372.669590418 407 372.669590418 407 382 407 c 0
 394.461654164 407 394.461654164 407 404.659611355 410.658358059 c 0
 414.857568545 414.316716119 414.857568545 414.316716119 422.626672757 421.321797848 c 0
 430.395776969 428.326879578 430.395776969 428.326879578 436.218429159 438.786360088 c 1
EndSplineSet
EndChar
StartChar: ba
Encoding: 3510 3510 161
Width: 619
GlyphClass: 2
Flags: W
LayerCount: 2
Back
Fore
SplineSet
77.2430080742 108.700634413 m 1
 80.781453247 122.218115753 80.781453247 122.218115753 88.314229299 130.378623143 c 0
 111.800491418 156 111.800491418 156 153 156 c 0
 223.353550513 156 223.353550513 156 233.955791508 79.6638648326 c 0
 238.260131675 46.3052285399 238.260131675 46.3052285399 215.152634697 21.5855806097 c 0
 192.345788858 -2.81244051951 192.345788858 -2.81244051951 156.433148082 -5.98120294098 c 0
 83.811609699 -12.2961193221 83.811609699 -12.2961193221 49.390089472 69.0638375782 c 0
 28 119.992622035 28 119.992622035 28 187 c 0
 28 235.373406503 28 235.373406503 43.1378718721 274.37229884 c 0
 58.2757437442 313.371191177 58.2757437442 313.371191177 88.5259398954 342.59595695 c 0
 118.750238121 371.795702694 118.750238121 371.795702694 158.457462943 386.397851347 c 0
 198.164687765 401 198.164687765 401 247 401 c 0
 317.538950858 401 317.538950858 401 368.792584302 366.147529258 c 0
 428 326.675918792 428 326.675918792 428 257 c 0
 428 254.933720552 428 254.933720552 427.959691874 252.891137031 c 0
 427.919383748 250.848553509 427.919383748 250.848553509 427.837935584 248.803037105 c 0
 427.756487419 246.757520701 427.756487419 246.757520701 427.633127378 244.70964027 c 0
 427.509767338 242.66175984 427.509767338 242.66175984 427.344031661 240.597670791 c 0
 427.178295985 238.533581742 427.178295985 238.533581742 426.969044682 236.441068715 c 0
 423.85020429 211.490345581 423.85020429 211.490345581 413.590860633 192.547208393 c 0
 403.331516975 173.604071205 403.331516975 173.604071205 385.940858488 160.956319578 c 0
 385.163655338 160.492384713 l 2
 360.198825454 148.509266368 360.198825454 148.509266368 336.236067977 136.527864045 c 0
 325.122901288 130.9712807 325.122901288 130.9712807 320.061450644 125.06093458 c 0
 315 119.150588459 315 119.150588459 315 113 c 0
 315 95 315 95 345 95 c 0
 366.112231538 95 366.112231538 95 395.245155469 105.682072108 c 0
 417.688302148 114.277319772 417.688302148 114.277319772 438.48231434 134.94883126 c 0
 459.276326532 155.620342747 459.276326532 155.620342747 478.164769635 188.491139836 c 0
 516.060264697 254.439144229 516.060264697 254.439144229 519.005659311 319.237825747 c 0
 523.904830064 422.120411547 523.904830064 422.120411547 462.85658825 487.075740836 c 0
 401.817440656 552.021393876 401.817440656 552.021393876 302.933339258 553.000444385 c 0
 155.702606227 554.963520826 155.702606227 554.963520826 99.2028551755 467.291493331 c 2
 97.7261150286 465 l 1
 56.0432133097 465 l 1
 59.4949916512 472.169078094 l 2
 112.796546077 582.872306516 112.796546077 582.872306516 285.778977323 589.995112509 c 0
 343.111596941 592.531954085 343.111596941 592.531954085 392.050898272 576.983416799 c 0
 440.990199604 561.434879514 440.990199604 561.434879514 481.205697014 527.837122184 c 0
 508.017111105 505.437712944 508.017111105 505.437712944 527.512774535 477.873839123 c 0
 547.008437965 450.309965303 547.008437965 450.309965303 559.116843526 417.740413404 c 0
 571.225249086 385.170861505 571.225249086 385.170861505 575.958889333 347.639856688 c 0
 577.979611985 331.979256135 577.979611985 331.979256135 578.989805993 316.068701838 c 0
 580 300.158147541 580 300.158147541 580 284 c 0
 580 174.779900599 580 174.779900599 538.428100253 94.6779474281 c 0
 494.307952392 10.5418515072 494.307952392 10.5418515072 423.897855102 -2.91890238656 c 0
 400.431543825 -7 400.431543825 -7 381 -7 c 0
 333.180796798 -7 333.180796798 -7 300.78693869 20.1690422844 c 0
 268 47.6677650567 268 47.6677650567 268 94 c 0
 268 114.585535674 268 114.585535674 276.081455182 130.751425368 c 0
 284.162910364 146.917315063 284.162910364 146.917315063 300.132688278 158.096159603 c 0
 300.830921906 158.505008349 l 2
 327.696725393 171.440395213 327.696725393 171.440395213 353.564658427 185.866819372 c 0
 376.607860042 198.717835657 376.607860042 198.717835657 373.038076801 226.383655772 c 0
 365.553458284 289.067335849 365.553458284 289.067335849 238.905677165 291.000889759 c 0
 221.61330366 291.327160957 221.61330366 291.327160957 205.227671889 289.103871929 c 0
 188.842040118 286.880582902 188.842040118 286.880582902 173.358463206 282.113928053 c 0
 157.874886295 277.347273204 157.874886295 277.347273204 143.236067977 270.027864045 c 0
 128.684385063 262.752022588 128.684385063 262.752022588 117.329704341 253.754391267 c 0
 105.97502362 244.756759947 105.97502362 244.756759947 97.8439071971 234.12920657 c 0
 89.7127907737 223.501653193 89.7127907737 223.501653193 84.6342032018 211.122595987 c 0
 71 177.037087982 71 177.037087982 71 148 c 0
 71 128.44892526 71 128.44892526 77.2430080742 108.700634413 c 1
105 75 m 0
 105 56.0710678119 105 56.0710678119 117.535533906 43.5355339059 c 0
 123.853708032 37.2173597798 123.853708032 37.2173597798 131.625619705 34.1086798899 c 0
 139.397531379 31 139.397531379 31 149 31 c 0
 152.638350858 31 152.638350858 31 156.033253015 31.4947794529 c 0
 159.428155173 31.9895589058 159.428155173 31.9895589058 162.616419561 32.9861171651 c 0
 165.804683949 33.9826754244 165.804683949 33.9826754244 168.792057043 35.4921300526 c 0
 171.779430137 37.0015846808 171.779430137 37.0015846808 174.581407198 39.0230544599 c 0
 177.383384258 41.044524239 177.383384258 41.044524239 180.027027432 43.5970073031 c 0
 193 56.1226359899 193 56.1226359899 193 74 c 0
 193 78.52952384 193 78.52952384 192.20627096 82.647519945 c 0
 191.41254192 86.7655160501 191.41254192 86.7655160501 189.799574201 90.5486649995 c 0
 188.186606482 94.331813949 188.186606482 94.331813949 185.752456906 97.7785095787 c 0
 183.31830733 101.225205208 183.31830733 101.225205208 180.027027432 104.402992697 c 0
 173.428492535 110.773991908 173.428492535 110.773991908 165.75718995 113.886995954 c 0
 158.085887364 117 158.085887364 117 149 117 c 0
 139.884548758 117 139.884548758 117 132.193416383 113.990440356 c 0
 124.502284008 110.980880712 124.502284008 110.980880712 117.90709264 104.840530128 c 0
 111.370430633 98.7546723979 111.370430633 98.7546723979 108.185215317 91.395692517 c 0
 105 84.0367126361 105 84.0367126361 105 75 c 0
EndSplineSet
EndChar
StartChar: ra
Encoding: 3515 3515 169
Width: 528
GlyphClass: 2
Flags: W
LayerCount: 2
Back
Fore
SplineSet
122.293719367 350.238152584 m 0
 99.5191916296 330.371011366 99.5191916296 330.371011366 88.2595958148 306.655675853 c 0
 77 282.94034034 77 282.94034034 77 255 c 0
 77 199.071067812 77 199.071067812 120.535533906 155.535533906 c 0
 154.071067812 122 154.071067812 122 226 122 c 0
 319.773187976 122 319.773187976 122 363.283529269 170.344823658 c 0
 407 218.918680026 407 218.918680026 407 274 c 0
 407 320.22715327 407 320.22715327 371.616791793 363.850286676 c 0
 336.617579875 407 336.617579875 407 269 407 c 0
 227.881792434 407 227.881792434 407 191.275072802 392.844294175 c 0
 154.668353169 378.68858835 154.668353169 378.68858835 122.293719367 350.238152584 c 0
399.302467862 524.209936281 m 0
 414.553587962 534.049368603 414.553587962 534.049368603 427.51275662 545.054374984 c 0
 440.471925279 556.059381365 440.471925279 556.059381365 451.290570265 568.353296122 c 0
 477.62518879 596.713654533 477.62518879 596.713654533 486.462749462 603.471789165 c 0
 491.310264082 607.178712109 491.310264082 607.178712109 496.748459589 609.089356055 c 0
 502.186655096 611 502.186655096 611 508 611 c 0
 531.677709182 611 531.677709182 611 532.987293499 591.35623525 c 0
 534.093921475 575.863443587 534.093921475 575.863443587 525.994616785 560.685234233 c 0
 517.895312094 545.507024879 517.895312094 545.507024879 501.582766198 531.214125467 c 0
 485.270220301 516.921226055 485.270220301 516.921226055 460.476074529 502.65610109 c 0
 386.379609794 460.813391592 386.379609794 460.813391592 315.387287217 436.875484476 c 1
 385.881142094 423.373848287 385.881142094 423.373848287 433.245573598 369.812201446 c 0
 488.022582634 307.868107116 488.022582634 307.868107116 486.999759725 221.950982748 c 0
 485.977027206 117.632265763 485.977027206 117.632265763 396.180907914 43.1423031684 c 0
 337.795561518 -5 337.795561518 -5 248 -5 c 0
 151.952512841 -5 151.952512841 -5 87.9930925008 57.9360696146 c 0
 24 120.905272635 24 120.905272635 24 216 c 0
 24 294.871155115 24 294.871155115 72.2371165265 350.292523039 c 0
 115.018610865 399.185659426 115.018610865 399.185659426 180.1858965 425.659869215 c 0
 231.239164288 444.679714077 231.239164288 444.679714077 281.170776605 463.653726758 c 0
 344.698098699 489.461701359 344.698098699 489.461701359 399.302467862 524.209936281 c 0
EndSplineSet
EndChar
StartChar: la
Encoding: 3517 3517 170
Width: 670
GlyphClass: 2
Flags: W
LayerCount: 2
Back
Fore
SplineSet
260 313 m 1
 523 313 l 1
 523 277 l 1
 401.741677753 277 l 1
 405.613146013 261.33815113 405.613146013 261.33815113 427.238295873 247.183507584 c 0
 453.568994457 229.948868511 453.568994457 229.948868511 481.145666776 228.997948776 c 0
 521.421147671 228.039008755 521.421147671 228.039008755 546.049917053 246.036955611 c 0
 570 263.538939303 570 263.538939303 570 293 c 0
 570 301.451138857 570 301.451138857 568.141809636 309.812995494 c 0
 562.477782457 331.053097415 562.477782457 331.053097415 547.454862552 347.744313388 c 0
 532.431942648 364.43552936 532.431942648 364.43552936 507.860971416 376.480123101 c 0
 462.912669638 397 462.912669638 397 401 397 c 0
 293.872843441 397 293.872843441 397 225.270759665 337.218184138 c 0
 153 274.713743347 153 274.713743347 153 168 c 0
 153 158.650028566 153 158.650028566 153.49454088 149.004294531 c 0
 153.989081761 139.358560497 153.989081761 139.358560497 154.971889591 129.530482193 c 0
 176.545793661 -60.7121264197 176.545793661 -60.7121264197 357.878953192 -92.0778621225 c 0
 385.442925307 -97 385.442925307 -97 412 -97 c 0
 476.38569989 -97 476.38569989 -97 518.054139213 -66.9599623489 c 0
 564.70769305 -32.9417460095 564.70769305 -32.9417460095 583.213295316 27.4449561239 c 0
 593.692152698 62.6920218617 593.692152698 62.6920218617 585.40427485 82.0304035071 c 2
 582.417304924 89 l 1
 628.743762524 89 l 1
 628.993089147 84.2627941656 l 2
 631.039926722 45.3728802283 631.039926722 45.3728802283 617.784992409 2.54924629209 c 0
 598.299348828 -63.0866057688 598.299348828 -63.0866057688 535.855322441 -107.104526009 c 0
 518.286491548 -119.326321413 518.286491548 -119.326321413 498.992465051 -128.684481146 c 0
 479.698438553 -138.042640879 479.698438553 -138.042640879 458.724217415 -144.521991236 c 0
 437.749996278 -151.001341594 437.749996278 -151.001341594 415.106258196 -154.619657924 c 0
 392.462520114 -158.237974254 392.462520114 -158.237974254 368.144866693 -158.997900924 c 0
 228.383933362 -163.048942469 228.383933362 -163.048942469 131.98796547 -89.9909457517 c 0
 23.9645495457 -8.4638393934 23.9645495457 -8.4638393934 26.0004690652 135.068486725 c 0
 28.0328099622 283.429372207 28.0328099622 283.429372207 129.889822783 364.914982463 c 0
 175.622468429 400.992958473 175.622468429 400.992958473 234.196163136 418.996479237 c 0
 292.769857843 437 292.769857843 437 364 437 c 0
 457.026046691 437 457.026046691 437 520.997927103 409.583479824 c 0
 560.938538317 392.173469807 560.938538317 392.173469807 584.322912417 365.153216647 c 0
 607.707286518 338.132963488 607.707286518 338.132963488 613.923855367 301.869645203 c 0
 616 290.450849719 616 290.450849719 616 280 c 0
 616 261.633986289 616 261.633986289 611.139545465 245.653427395 c 0
 606.279090929 229.672868501 606.279090929 229.672868501 596.593813637 216.217929962 c 0
 586.908536345 202.762991424 586.908536345 202.762991424 572.492272416 191.994215959 c 0
 529.448632967 159.841135888 529.448632967 159.841135888 474.506166612 165.024387431 c 0
 424.718309657 170.210622531 424.718309657 170.210622531 393.964466094 200.964466094 c 0
 379.340671402 215.588260786 379.340671402 215.588260786 371.617034132 234.873782834 c 0
 363.893396862 254.159304882 363.893396862 254.159304882 363.077953916 277 c 1
 260 277 l 1
 260 313 l 1
EndSplineSet
EndChar
StartChar: sha
Encoding: 3521 3521 174
Width: 631
GlyphClass: 2
Flags: W
LayerCount: 2
Back
Fore
SplineSet
250.653612007 403.012012895 m 2
 241.886102903 403.618718418 241.886102903 403.618718418 233.429983209 403.428708778 c 0
 224.973863515 403.238699138 224.973863515 403.238699138 216.814074431 402.24209684 c 0
 208.654285348 401.245494543 208.654285348 401.245494543 200.79652237 399.449338103 c 0
 192.938759392 397.653181663 192.938759392 397.653181663 185.367963721 395.047593586 c 0
 177.797168049 392.442005509 177.797168049 392.442005509 170.519035179 389.034024311 c 0
 163.24090231 385.626043112 163.24090231 385.626043112 156.240373442 381.405791296 c 0
 149.239844575 377.185539481 149.239844575 377.185539481 142.522615205 372.160055563 c 0
 135.805385835 367.134571646 135.805385835 367.134571646 129.356397163 361.293978132 c 0
 103.551739037 337.923721717 103.551739037 337.923721717 90.7758695187 310.443789973 c 0
 78 282.96385823 78 282.96385823 78 251 c 0
 78 194.925181636 78 194.925181636 109.708882305 159.853236056 c 0
 114.972132139 154.031762754 114.972132139 154.031762754 120.968275229 149.024680323 c 0
 126.964418319 144.017597891 126.964418319 144.017597891 133.737554859 139.795199031 c 0
 140.510691398 135.57280017 140.510691398 135.57280017 148.057095253 132.164427767 c 0
 155.603499108 128.756055365 155.603499108 128.756055365 163.937537587 126.148661118 c 0
 172.271576067 123.541266872 172.271576067 123.541266872 181.421238114 121.746424071 c 0
 190.570900161 119.95158127 190.570900161 119.95158127 200.5208202 118.97290061 c 0
 235.265406 115.112391077 235.265406 115.112391077 261.570969348 126.112899386 c 0
 287.185072166 136.824251473 287.185072166 136.824251473 294.410937378 153.985681352 c 0
 298 162.061072252 298 162.061072252 298 171 c 0
 298 179.670937226 298 179.670937226 295.322350915 187.034582355 c 0
 292.644701829 194.398227485 292.644701829 194.398227485 287.203716988 200.746043133 c 0
 281.876555476 206.961064897 281.876555476 206.961064897 275.190491371 209.980532449 c 0
 268.504427267 213 268.504427267 213 260 213 c 0
 252.199287133 213 252.199287133 213 243.342628065 210.203160294 c 0
 242.68088754 207.335618022 242.68088754 207.335618022 241.882980867 204.370745199 c 0
 241.085074193 201.405872376 241.085074193 201.405872376 240.14413249 198.246514139 c 0
 239.203190786 195.087155902 239.203190786 195.087155902 237.77239989 190.508625034 c 2
 236.675954567 187 l 1
 202.575204672 187 l 1
 203.016576921 192.406810047 l 2
 211.129196007 291.786393846 211.129196007 291.786393846 259.917921802 359.887323603 c 0
 271.780285209 376.658251178 271.780285209 376.658251178 285.277588936 389.797465584 c 0
 298.774892663 402.936679989 298.774892663 402.936679989 313.873360791 412.405743673 c 0
 328.971828918 421.874807357 328.971828918 421.874807357 345.629148037 427.665033404 c 0
 362.286467156 433.455259452 362.286467156 433.455259452 380.510493862 435.53898919 c 0
 398.734520568 437.622718929 398.734520568 437.622718929 418.441308936 435.980486565 c 0
 499.983423417 428.755235915 499.983423417 428.755235915 547.304632641 349.543646561 c 0
 587 282.36687103 587 282.36687103 587 196 c 0
 587 139.305686955 587 139.305686955 570.810819689 82.1376439819 c 0
 567.570723039 70.6960526858 567.570723039 70.6960526858 564.144977033 60.5220142812 c 0
 560.719231026 50.3479758767 560.719231026 50.3479758767 557.047977025 41.2986941405 c 0
 553.376723023 32.2494124044 553.376723023 32.2494124044 549.489278909 24.4390613565 c 0
 545.601834795 16.6287103085 545.601834795 16.6287103085 541.44670212 9.96847553225 c 0
 537.291569444 3.30824075596 537.291569444 3.30824075596 532.889705901 -2.14168553544 c 2
 531.388759603 -4 l 1
 492.284053381 -4 l 1
 497.931332644 3.9061909686 l 2
 502 9.60232526704 502 9.60232526704 502 14 c 0
 502 19 502 19 496 19 c 2
 489.207202177 17.5025028525 l 1
 461.507996855 1.6743855257 l 2
 443.205994174 -9.0914984044 443.205994174 -9.0914984044 426.74111682 -7.9938399141 c 0
 412.219710407 -7.45601004697 412.219710407 -7.45601004697 400.124307841 -0.719205731672 c 0
 388.028905275 6.01759858363 388.028905275 6.01759858363 378.948877946 18.5694010674 c 0
 360.945758531 43.4560661405 360.945758531 43.4560661405 362.001365463 75.12427408 c 0
 362.5194607 106.728083576 362.5194607 106.728083576 376.187651312 131.172143155 c 0
 389.855841923 155.616202734 389.855841923 155.616202734 416.3500053 172.23999152 c 0
 429.065383221 180.187102721 429.065383221 180.187102721 445.734876463 184.09355136 c 0
 462.404369706 188 462.404369706 188 483 188 c 0
 505.003661437 188 505.003661437 188 525.401584452 182.315617036 c 1
 494.369087472 325 494.369087472 325 380 325 c 0
 335.319979515 325 335.319979515 325 299.480694692 304.658784289 c 0
 263.086446542 283.862071061 263.086446542 283.862071061 249.275522974 246.228934082 c 1
 255.701072293 247 255.701072293 247 262 247 c 0
 338.509438682 247 338.509438682 247 347.972932464 155.519560108 c 0
 355.215403018 86.1987705198 355.215403018 86.1987705198 308.092394581 37.5222563099 c 0
 284.583187881 13.238020817 284.583187881 13.238020817 254.354868197 2.34075734121 c 0
 224.126548514 -8.5565061346 224.126548514 -8.5565061346 187.625007048 -5.9859750454 c 0
 110.196179093 0.20833119097 110.196179093 0.20833119097 67.8681263801 63.1842144955 c 0
 29 119.440713203 29 119.440713203 29 204 c 0
 29 313.009551623 29 313.009551623 88.3906799096 374.960174632 c 0
 147.86687613 437 147.86687613 437 223 437 c 0
 226.589023766 437 226.589023766 437 230.178389918 436.871792616 c 0
 233.76775607 436.743585232 233.76775607 436.743585232 237.356304432 436.487244455 c 0
 240.944852794 436.230903678 240.944852794 436.230903678 244.53258331 435.84652507 c 0
 248.120313826 435.462146462 248.120313826 435.462146462 251.707106781 434.949747468 c 2
 256 434.336477008 l 1
 256 402.640735951 l 1
 250.653612007 403.012012895 l 2
488.664907148 57.820108819 m 0
 506.925722482 63.3777482684 506.925722482 63.3777482684 517.138229258 54.3461309268 c 1
 523.41130571 78.9469975666 523.41130571 78.9469975666 525.014428575 97.3829105113 c 2
 527.859852173 140.064264481 l 1
 521.087217474 145.828208905 521.087217474 145.828208905 503.585460419 149.084349753 c 0
 482.952288794 152.923079357 482.952288794 152.923079357 465.851776276 150.072993937 c 0
 403 138.815959381 403 138.815959381 403 77 c 0
 403 39.7715070638 403 39.7715070638 427.249780112 32.8429984604 c 0
 438.134889663 30.3310501024 438.134889663 30.3310501024 454.410092793 40.2770075706 c 0
 480.065514678 55.6702607014 480.065514678 55.6702607014 488.664907148 57.820108819 c 0
EndSplineSet
EndChar
StartChar: sa
Encoding: 3523 3523 176
Width: 670
GlyphClass: 2
Flags: W
LayerCount: 2
Back
Fore
SplineSet
310.737205834 274.006910853 m 2
 273.06368883 275.989727538 273.06368883 275.989727538 247.446724454 276.238481396 c 0
 221.829760078 276.487235253 221.829760078 276.487235253 209.551036299 275.030407139 c 0
 163.913018883 270.175298903 163.913018883 270.175298903 136.058403116 249.04421108 c 0
 105.248002789 224.769350216 105.248002789 224.769350216 108.979007447 187.459303639 c 0
 114.595286627 121 114.595286627 121 220 121 c 0
 253.85625558 121 253.85625558 121 281.878336164 134.527900972 c 0
 297.460322311 141.610621948 297.460322311 141.610621948 304.730161155 150.644452294 c 0
 312 159.678282641 312 159.678282641 312 171 c 2
 312 203 l 1
 355 203 l 1
 355 171 l 2
 355 151.307828453 355 151.307828453 391.917248255 135.617997944 c 0
 427.974976518 121 427.974976518 121 470 121 c 0
 506.85625558 121 506.85625558 121 534.742629697 134.462387505 c 0
 545.46979519 140.141475119 545.46979519 140.141475119 553.164259586 147.208056463 c 0
 560.858723982 154.274637807 560.858723982 154.274637807 565.548488875 162.671679451 c 0
 570.238253769 171.068721094 570.238253769 171.068721094 572.091189723 180.951046185 c 0
 574 190.495097568 574 190.495097568 574 199 c 0
 574 234.576990296 574 234.576990296 547.401778557 255.575586172 c 0
 533.739135789 266.361883095 533.739135789 266.361883095 517.054137662 272.72423597 c 0
 500.369139535 279.086588844 500.369139535 279.086588844 480.534254506 281.021699579 c 0
 458.452356216 282.999667868 458.452356216 282.999667868 437.028436652 282.888458459 c 0
 415.604517089 282.77724905 415.604517089 282.77724905 394.859106973 280.582302694 c 0
 374.113696857 278.387356337 374.113696857 278.387356337 354.042169973 274.109817821 c 2
 348.294697222 272.884946579 l 1
 348.006035815 278.754395204 l 2
 344.928134267 341.33839334 344.928134267 341.33839334 371.801459533 383.715560104 c 0
 387.980822875 408.245562591 387.980822875 408.245562591 412.56611826 421.584967395 c 0
 437.151413645 434.924372199 437.151413645 434.924372199 469.709792392 436.991570849 c 0
 559.685048634 442.222690398 559.685048634 442.222690398 581.827174224 366.306831231 c 0
 584 357.615528128 584 357.615528128 584 349 c 0
 584 329.653639817 584 329.653639817 574.323944733 312.989322413 c 0
 572.349812519 309.589428044 572.349812519 309.589428044 570.033119462 306.510179575 c 0
 567.716426406 303.430931105 567.716426406 303.430931105 565.417575866 301.049304571 c 0
 563.118725325 298.667678036 563.118725325 298.667678036 560.843569199 296.905625302 c 1
 581.975145838 284.83976222 581.975145838 284.83976222 596.963354505 267.533488606 c 0
 611.951563173 250.227214992 611.951563173 250.227214992 620.683417429 227.962102225 c 0
 629.415271685 205.696989458 629.415271685 205.696989458 631.975875001 178.490579225 c 0
 635.571459478 142.021079525 635.571459478 142.021079525 625.102498507 109.83870601 c 0
 614.633537537 77.6563324944 614.633537537 77.6563324944 590.238973891 50.1803502835 c 0
 541.247074107 -5 541.247074107 -5 464 -5 c 0
 432.93271721 -5 432.93271721 -5 407.816788643 3.4628705754 c 0
 382.700860076 11.9257411508 382.700860076 11.9257411508 364.030580619 28.5082226652 c 0
 345.360301162 45.0907041796 345.360301162 45.0907041796 333.143511555 69.5914668964 c 1
 315.385027219 31.8311561211 315.385027219 31.8311561211 281.644618806 12.9155780606 c 0
 247.904210394 -6 247.904210394 -6 199 -6 c 0
 132.766273548 -6 132.766273548 -6 88.289855188 43.6480949131 c 0
 46 90.0637896316 46 90.0637896316 46 154 c 0
 46 244.217764325 46 244.217764325 115.695231634 279 c 1
 0 279 l 1
 0 313 l 1
 274.524265977 313 l 1
 273.76107285 320.693692564 273.76107285 320.693692564 272.717309582 327.261686642 c 0
 271.673546314 333.829680719 271.673546314 333.829680719 270.417341289 338.97033015 c 0
 269.161136263 344.110979581 269.161136263 344.110979581 267.728368205 347.982709195 c 0
 266.295600147 351.85443881 266.295600147 351.85443881 264.692956925 354.458734046 c 0
 253.127587543 374.920541414 253.127587543 374.920541414 219.067555233 374 c 0
 205.906059326 374 205.906059326 374 196.733899446 367.668767753 c 0
 187.561739565 361.337535505 187.561739565 361.337535505 181.562546623 347.95472048 c 0
 174.38230463 331.937257574 174.38230463 331.937257574 159.397137705 324.443412944 c 0
 144.411970779 316.949568315 144.411970779 316.949568315 122.800091426 318.003806332 c 0
 86.2769360725 319.145154937 86.2769360725 319.145154937 84.0086281341 357.70638989 c 0
 81.8450240627 394.487659105 81.8450240627 394.487659105 116.12411624 418.590145792 c 0
 149.646144138 442.160321658 149.646144138 442.160321658 201.501657511 436.97477032 c 0
 325.29684897 424.491221602 325.29684897 424.491221602 315.989845414 278.681499229 c 2
 315.674879503 273.747033292 l 1
 310.737205834 274.006910853 l 2
391.528492892 316.259567819 m 1
 398.340760752 317.517534538 398.340760752 317.517534538 405.574124257 318.417101447 c 0
 412.807487762 319.316668355 412.807487762 319.316668355 420.794804486 319.889733199 c 0
 428.782121211 320.462798044 428.782121211 320.462798044 437.440213497 320.731399022 c 0
 446.098305783 321 446.098305783 321 456.054341407 321 c 0
 499.617576176 320.052973157 499.617576176 320.052973157 524.518495347 311.830453541 c 1
 528.780038026 316.960539205 528.780038026 316.960539205 531.318567564 321.605615262 c 0
 533.857097101 326.25069132 533.857097101 326.25069132 534.92854855 330.617555048 c 0
 536 334.984418776 536 334.984418776 536 340 c 0
 536 363.180304871 536 363.180304871 516.912903305 374.721340082 c 0
 496.605888826 387 496.605888826 387 471 387 c 0
 399.062636482 387 399.062636482 387 391.528492892 316.259567819 c 1
EndSplineSet
EndChar
StartChar: fa
Encoding: 3526 3526 182
Width: 616
GlyphClass: 2
Flags: W
LayerCount: 2
Back
Fore
SplineSet
509.675872475 34.610609342 m 0
 473.192416502 -5 473.192416502 -5 420 -5 c 0
 403.384471872 -5 403.384471872 -5 386.787321875 -0.850712500727 c 2
 383 0.0961179679779 l 1
 383 35.403882032 l 1
 389.212678125 33.8507125007 l 2
 400.615528128 31 400.615528128 31 412 31 c 0
 461.124386084 31 461.124386084 31 491.715545688 83.5785555706 c 0
 518.97023056 127.380727686 518.97023056 127.380727686 518.000573822 173.924251119 c 0
 516.068027136 301.472332384 516.068027136 301.472332384 411.489855673 312.026092807 c 0
 406.090578309 312.579864844 406.090578309 312.579864844 400.908752025 312.739395812 c 0
 395.72692574 312.898926779 395.72692574 312.898926779 390.770919604 312.666206628 c 0
 385.814913467 312.433486477 385.814913467 312.433486477 381.065197978 311.808057631 c 0
 376.315482489 311.182628784 376.315482489 311.182628784 371.783642574 310.170170081 c 0
 367.251802658 309.157711377 367.251802658 309.157711377 362.914878569 307.753830427 c 0
 358.577954479 306.349949477 358.577954479 306.349949477 354.450961389 304.564259931 c 0
 350.323968299 302.778570385 350.323968299 302.778570385 346.380730603 300.602990967 c 0
 317 284.994477834 317 284.994477834 317 254 c 2
 317 207 l 1
 275 207 l 1
 275 254 l 2
 275 279.637994816 275 279.637994816 254.324473002 296.63787257 c 0
 233.208372074 314 233.208372074 314 198 314 c 0
 194.15280188 314 194.15280188 314 190.162493817 313.783760152 c 0
 186.172185754 313.567520305 186.172185754 313.567520305 182.071159278 313.136665284 c 0
 177.970132802 312.705810263 177.970132802 312.705810263 173.799181198 312.064125401 c 0
 77.9655155221 295.772402236 77.9655155221 295.772402236 76.9996341236 177.934871625 c 0
 76.0288388703 123.570337439 76.0288388703 123.570337439 109.560076857 76.9181802408 c 0
 142.563768905 31 142.563768905 31 188 31 c 0
 203.093327091 31 203.093327091 31 218.244382792 36.6816458878 c 2
 225 39.2150023408 l 1
 225 2.4525949749 l 1
 221.651752124 1.28070821817 l 2
 200.849728643 -6 200.849728643 -6 182 -6 c 0
 148.559078814 -6 148.559078814 -6 112.32035306 16.7786276169 c 0
 32.0780875923 68.2159772758 32.0780875923 68.2159772758 28.0015234613 209.876580826 c 0
 25.9680017059 292.234211922 25.9680017059 292.234211922 62.6127595853 358.398358093 c 0
 105.034990494 436 105.034990494 436 178 436 c 0
 259.159837995 436 259.159837995 436 295.766758999 370.437554502 c 1
 302.29879273 383.018670999 302.29879273 383.018670999 311.164333237 393.161068032 c 0
 320.029873745 403.303465065 320.029873745 403.303465065 331.091812862 410.960072211 c 0
 342.153751979 418.616679357 342.153751979 418.616679357 355.55026339 423.940336397 c 0
 368.9467748 429.263993436 368.9467748 429.263993436 384.443624496 432.250003441 c 0
 399.940474191 435.236013446 399.940474191 435.236013446 417.772961695 435.994842701 c 0
 486.616714972 439.124104214 486.616714972 439.124104214 532.194888049 369.720977029 c 0
 574.01611574 304.439060633 574.01611574 304.439060633 572.999496 211.926664299 c 0
 572.323511542 175.085511346 572.323511542 175.085511346 565.094196499 143.112810147 c 0
 557.864881456 111.140108949 557.864881456 111.140108949 544.001379775 83.9589455229 c 0
 530.137878094 56.7777820969 530.137878094 56.7777820969 509.675872475 34.610609342 c 0
EndSplineSet
EndChar
StartChar: ae
Encoding: 3536 3536 186
Width: 334
GlyphClass: 2
Flags: W
LayerCount: 2
Back
Fore
SplineSet
308.645911655 -104.425156157 m 0
 262.087571544 -157.191274949 262.087571544 -157.191274949 199.570558289 -151.981523845 c 0
 139.189863907 -146.776291571 139.189863907 -146.776291571 107.85413723 -100.294963665 c 0
 76.9555226866 -54.4620187595 76.9555226866 -54.4620187595 79.0025859549 16.161663999 c 0
 82.0406059127 101.226222818 82.0406059127 101.226222818 122.497924964 185.175159849 c 0
 161.395558073 265.684214423 161.395558073 265.684214423 199.363993261 308 c 1
 -2 308 l 1
 -2 344 l 1
 255.937129434 344 l 1
 253.74341649 337.41886117 l 1
 250.941858488 322.239714079 l 1
 250.768540652 321.113148146 l 1
 250.124087413 320.173004596 l 2
 166 197.450806488 166 197.450806488 166 73 c 0
 166 44.4429253067 166 44.4429253067 170.925793772 16.8584801828 c 0
 187.221735403 -79 187.221735403 -79 300 -79 c 2
 309.342585459 -79 l 1
 304.430474486 -86.368166459 l 2
 304.591138211 -86.9465558665 304.591138211 -86.9465558665 305.10100349 -87.8805237794 c 0
 305.610868769 -88.8144916924 305.610868769 -88.8144916924 306.5 -90 c 0
 313.601886205 -99.4691816068 313.601886205 -99.4691816068 308.645911655 -104.425156157 c 0
EndSplineSet
EndChar
